<svg width="25" height="24" viewBox="0 0 25 24" fill="none" xmlns="http://www.w3.org/2000/svg">
<path d="M10.2788 14.6054L8.46582 3.7706L24.7731 6.73041V14.8565L10.2788 14.6054ZM23.7642 16.7036H8.67871L5.41186 0H1.2362C0.553269 0 0 0.585559 0 1.30829C0 2.03029 0.553269 2.61513 1.2362 2.61513H3.39993L6.66678 19.3187H23.7642C24.4467 19.3187 25 18.7332 25 18.0112C25 17.2891 24.4467 16.7036 23.7642 16.7036ZM10.2284 20.5124C9.31858 20.5124 8.5811 21.2937 8.5811 22.2566C8.5811 23.2195 9.31858 24 10.2284 24C11.1386 24 11.876 23.2195 11.876 22.2566C11.876 21.2937 11.1386 20.5124 10.2284 20.5124ZM20.2781 20.5124C19.3682 20.5124 18.6308 21.2937 18.6308 22.2566C18.6308 23.2195 19.3682 24 20.2781 24C21.1882 24 21.9265 23.2195 21.9265 22.2566C21.9265 21.2937 21.1882 20.5124 20.2781 20.5124Z" fill="#BEBEBE"/>
</svg>
