<svg width="24" height="24" viewBox="0 0 24 24" fill="none" xmlns="http://www.w3.org/2000/svg">
<path d="M6.85858 10.285V23.1412C6.85858 23.6133 6.47699 24 6 24H0.858579C0.386612 24 0 23.6183 0 23.1412V10.285C0.00502275 9.80791 0.386612 9.42624 0.858579 9.42624H6C6.47197 9.42624 6.85858 9.80791 6.85858 10.285ZM14.5707 0H9.42929C8.95732 0 8.57071 0.381672 8.57071 0.853735V23.1412C8.57071 23.6183 8.95732 24 9.42929 24H14.5707C15.0477 24 15.4293 23.6133 15.4293 23.1412V0.858759C15.4293 0.381672 15.0427 0 14.5707 0ZM23.1414 6.85499H18C17.523 6.85499 17.1414 7.23666 17.1414 7.71375V23.1412C17.1414 23.6183 17.528 24 18 24H23.1414C23.6184 24 24 23.6133 24 23.1412V7.71375C24 7.23666 23.6134 6.85499 23.1414 6.85499Z" fill="#BEBEBE"/>
</svg>
