<svg width="13" height="13" viewBox="0 0 13 13" fill="none" xmlns="http://www.w3.org/2000/svg">
<path d="M6.5 0C2.9159 0 0 2.91594 0 6.50004C0 10.0841 2.9159 13 6.5 13C10.0841 13 13 10.0841 13 6.50004C13 2.91594 10.0841 0 6.5 0ZM6.5 11.8182C3.56752 11.8182 1.18182 9.43249 1.18182 6.50004C1.18182 3.56759 3.56752 1.18182 6.5 1.18182C9.43248 1.18182 11.8182 3.56759 11.8182 6.50004C11.8182 9.43248 9.43245 11.8182 6.5 11.8182ZM7.28764 3.54581C7.28764 3.98005 6.93428 4.33333 6.49992 4.33333C6.06556 4.33333 5.7122 3.98005 5.7122 3.54581C5.7122 3.11118 6.06556 2.75758 6.49992 2.75758C6.93428 2.75758 7.28764 3.11118 7.28764 3.54581ZM7.09091 6.10606V9.65152C7.09091 9.97785 6.82634 10.2424 6.5 10.2424C6.17366 10.2424 5.90909 9.97785 5.90909 9.65152V6.10606C5.90909 5.77972 6.17366 5.51515 6.5 5.51515C6.82634 5.51515 7.09091 5.77972 7.09091 6.10606Z" fill="#B4B4B4"/>
</svg>
