<svg width="155" height="155" viewBox="0 0 155 155" fill="none" xmlns="http://www.w3.org/2000/svg">
<path d="M154.682 153.924C154.707 153.884 154.731 153.843 154.752 153.8C154.765 153.776 154.776 153.751 154.788 153.727C154.807 153.686 154.825 153.645 154.842 153.603C154.853 153.577 154.862 153.55 154.872 153.523C154.886 153.482 154.9 153.441 154.912 153.399C154.92 153.37 154.927 153.341 154.934 153.312C154.944 153.272 154.954 153.231 154.961 153.19C154.967 153.158 154.971 153.127 154.976 153.095C154.981 153.055 154.987 153.016 154.99 152.975C154.993 152.941 154.994 152.908 154.996 152.874C154.997 152.844 155 152.815 155 152.786V59.8067C155 59.8011 155 59.7956 155 59.79V59.7848C155 59.7776 154.999 59.7706 154.999 59.7634C154.999 59.7584 154.998 59.7535 154.998 59.7485C154.998 59.7168 154.996 59.6853 154.994 59.6538C154.993 59.6248 154.992 59.5958 154.989 59.5669C154.988 59.5534 154.985 59.5402 154.984 59.5268C154.981 59.5 154.977 59.4734 154.972 59.4468C154.968 59.4151 154.963 59.3834 154.957 59.3519C154.954 59.3375 154.951 59.3235 154.947 59.3092C154.942 59.2858 154.936 59.2627 154.93 59.2395C154.922 59.2069 154.914 59.1742 154.904 59.1418C154.9 59.128 154.896 59.1145 154.891 59.1008C154.884 59.0776 154.875 59.0548 154.867 59.0319C154.855 59.0005 154.844 58.9692 154.832 58.9382C154.827 58.9261 154.821 58.9142 154.816 58.9022C154.805 58.8764 154.792 58.8512 154.78 58.8258C154.767 58.7979 154.754 58.7699 154.739 58.7425C154.734 58.7327 154.728 58.7229 154.723 58.7131C154.706 58.6833 154.688 58.6545 154.67 58.6254C154.656 58.6024 154.643 58.5791 154.628 58.5564C154.622 58.5483 154.617 58.5404 154.611 58.5324C154.589 58.5003 154.565 58.4695 154.541 58.4384C154.528 58.4216 154.517 58.404 154.504 58.3875C154.502 58.3847 154.499 58.3823 154.497 58.3796C154.492 58.3732 154.486 58.3674 154.481 58.3611C154.456 58.3318 154.43 58.3038 154.403 58.2757C154.378 58.2481 154.352 58.2205 154.325 58.1945C154.304 58.1737 154.281 58.1538 154.258 58.1338C154.223 58.1022 154.187 58.0711 154.15 58.0421C154.144 58.0371 154.138 58.0315 154.132 58.0266L133.965 42.5928V17.7129C133.965 16.49 132.973 15.4986 131.75 15.4986H98.5113L78.8449 0.454593C78.0514 -0.151531 76.9503 -0.151531 76.1568 0.454593L56.4904 15.4986H23.2515C22.0286 15.4986 21.0372 16.49 21.0372 17.7129V42.5928L0.86971 58.0266C0.863928 58.031 0.859006 58.0363 0.853263 58.0408C0.803024 58.0801 0.754699 58.1223 0.707429 58.1665C0.694186 58.1788 0.680122 58.1903 0.667211 58.2029C0.632149 58.2374 0.599138 58.2746 0.56601 58.3117C0.546086 58.334 0.524912 58.3551 0.505907 58.3782C0.504598 58.3797 0.503231 58.3813 0.501941 58.3829C0.500594 58.3845 0.49907 58.3859 0.497722 58.3875C0.477056 58.413 0.459652 58.4399 0.440295 58.466C0.41793 58.496 0.394705 58.5254 0.373863 58.5566C0.368237 58.565 0.362534 58.5734 0.357025 58.5819C0.351419 58.5905 0.346868 58.5997 0.341399 58.6085C0.331164 58.6247 0.3221 58.6415 0.312334 58.6579C0.295614 58.6861 0.278034 58.7137 0.262544 58.7426C0.253696 58.7592 0.245433 58.7759 0.237034 58.7926C0.229182 58.8083 0.222579 58.8245 0.215098 58.8404C0.212559 58.8458 0.210117 58.8512 0.207597 58.8567C0.194999 58.8839 0.18156 58.9106 0.170055 58.9383C0.159702 58.9633 0.150737 58.9886 0.141361 59.0139C0.134485 59.0324 0.128371 59.051 0.122004 59.0697C0.113761 59.0938 0.104639 59.1175 0.0971966 59.1421C0.0869808 59.1758 0.0789332 59.2099 0.0703777 59.244C0.0654749 59.2634 0.0603767 59.2828 0.0559818 59.3024C0.0522901 59.319 0.0479537 59.3353 0.0446331 59.3521C0.0358432 59.3964 0.0299638 59.441 0.023928 59.4856C0.0213301 59.5046 0.017697 59.5232 0.0156069 59.5423C0.0147084 59.5506 0.0135169 59.5588 0.0126965 59.5671C0.0063678 59.6318 0.0035355 59.6966 0.00289093 59.7614C0.00289093 59.7618 0.00283233 59.7622 0.00283233 59.7625C0.00275421 59.7701 0.00154315 59.7774 0.00154315 59.7849C0.00154315 59.7861 0.00171894 59.7873 0.00171894 59.7884V59.7905C0.00171894 59.7957 0.00166035 59.801 0.00171894 59.8063V152.757C0.00158216 152.767 0 152.777 0 152.787C0.000957113 154.01 0.993081 155.001 2.21599 155H152.786C152.868 155 152.949 154.995 153.028 154.986C153.047 154.984 153.066 154.98 153.084 154.978C153.146 154.969 153.207 154.959 153.267 154.946C153.288 154.941 153.308 154.935 153.328 154.93C153.386 154.916 153.443 154.9 153.499 154.881C153.519 154.874 153.539 154.866 153.56 154.858C153.614 154.838 153.668 154.816 153.72 154.791C153.74 154.782 153.76 154.772 153.781 154.762C153.832 154.736 153.883 154.708 153.932 154.678C153.95 154.666 153.969 154.656 153.987 154.644C154.041 154.609 154.092 154.572 154.142 154.534C154.154 154.524 154.167 154.516 154.179 154.506C154.241 154.455 154.301 154.402 154.358 154.345C154.359 154.343 154.361 154.341 154.362 154.339C154.416 154.285 154.467 154.227 154.515 154.167C154.518 154.163 154.522 154.159 154.526 154.155C154.536 154.141 154.545 154.126 154.555 154.113C154.586 154.072 154.616 154.031 154.643 153.988C154.657 153.967 154.669 153.946 154.682 153.924ZM4.43024 64.4433L56.7934 107.074L4.43024 148.228V64.4433ZM60.3641 109.9C65.3502 113.468 71.3397 115.4 77.5008 115.388C83.6604 115.4 89.6483 113.469 94.6336 109.903L146.387 150.571H8.6162L60.3641 109.9ZM98.2045 107.078L150.571 64.4433V148.23L98.2045 107.078ZM149.214 59.8368L133.965 72.255V48.1663L149.214 59.8368ZM77.5008 5.00056L91.2243 15.4986H63.7774L77.5008 5.00056ZM129.536 19.9272V43.1451C129.461 43.4709 129.464 43.8068 129.536 44.128V75.8612L93.262 105.4C84.1663 112.757 71.2091 112.829 62.0324 105.626C61.8484 105.415 61.6339 105.246 61.3991 105.122L25.4657 75.8612V19.9272H129.536ZM21.0372 72.255L5.78724 59.8368L21.0372 48.1663V72.255ZM40.9655 36.5345C40.9655 35.3116 41.9569 34.3202 43.1798 34.3202H111.822C113.045 34.3202 114.036 35.3116 114.036 36.5345C114.036 37.7575 113.045 38.7488 111.822 38.7488H43.1798C41.9569 38.7488 40.9655 37.7575 40.9655 36.5345ZM40.9655 53.6954C40.9655 52.4725 41.9569 51.4811 43.1798 51.4811H111.822C113.045 51.4811 114.036 52.4725 114.036 53.6954C114.036 54.9183 113.045 55.9097 111.822 55.9097H43.1798C41.9569 55.9097 40.9655 54.9183 40.9655 53.6954ZM40.9655 70.8563C40.9655 69.6334 41.9569 68.642 43.1798 68.642H111.822C113.045 68.642 114.036 69.6334 114.036 70.8563C114.036 72.0792 113.045 73.0706 111.822 73.0706H43.1798C41.9569 73.0706 40.9655 72.0792 40.9655 70.8563Z" fill="#3C3C3C"/>
</svg>
