<svg width="19" height="14" viewBox="0 0 19 14" fill="none" xmlns="http://www.w3.org/2000/svg">
<path d="M19 1.66706C19 1.46109 18.9591 1.26596 18.8927 1.08371C18.8921 1.0819 18.893 1.07993 18.8923 1.07812C18.8917 1.0761 18.8901 1.07467 18.8893 1.07265C18.8333 0.921782 18.7558 0.783791 18.6621 0.657633C18.6514 0.643226 18.64 0.630079 18.6289 0.616055C18.4404 0.378639 18.1925 0.197756 17.9057 0.0962484C17.8794 0.0868262 17.8537 0.0789926 17.827 0.07094C17.6862 0.029362 17.5405 0 17.3871 0H1.61464C1.46115 0 1.3155 0.029362 1.17473 0.0708852C1.1478 0.0789379 1.12172 0.0868262 1.09544 0.0963031C0.809652 0.197372 0.562665 0.37705 0.374297 0.612768C0.361683 0.6286 0.348856 0.64339 0.336666 0.65977C0.244443 0.78423 0.167803 0.920084 0.112151 1.06854C0.110985 1.07171 0.108547 1.07402 0.107381 1.07719C0.106321 1.0801 0.107911 1.08316 0.106851 1.08607C0.0409172 1.26766 0 1.46197 0 1.66706V12.3321C0 12.5372 0.0409171 12.7315 0.106851 12.9132C0.107911 12.9163 0.106215 12.9197 0.107381 12.9228C0.108653 12.9262 0.111303 12.9287 0.112575 12.9321C0.168015 13.0798 0.244337 13.215 0.33603 13.339C0.34875 13.3562 0.362213 13.3718 0.375569 13.3884C0.563725 13.6234 0.810288 13.8026 1.09501 13.9035C1.12172 13.9131 1.1478 13.9211 1.17494 13.9292C1.31571 13.9707 1.46125 14 1.61464 14H17.3871C17.5405 14 17.686 13.9706 17.8265 13.9291C17.8536 13.9211 17.8795 13.9131 17.906 13.9036C18.192 13.8022 18.4391 13.622 18.6274 13.3854C18.6394 13.3704 18.6515 13.3564 18.6629 13.341C18.756 13.2155 18.833 13.0782 18.8889 12.9283C18.8898 12.926 18.8915 12.9243 18.8923 12.922C18.8931 12.9199 18.892 12.9177 18.8927 12.9155C18.9591 12.7332 19 12.5381 19 12.3321V1.66706ZM12.886 7.00005L18.1316 2.16485V11.8353L12.886 7.00005ZM17.3871 0.897515C17.4914 0.897515 17.5924 0.921125 17.6847 0.963689C17.6904 0.966263 17.6944 0.971687 17.7 0.974426C17.7844 1.016 17.8619 1.0721 17.9262 1.14293C17.9277 1.14452 17.9283 1.14682 17.9298 1.14846L9.50127 8.91735L1.07042 1.14901C1.07243 1.14682 1.07339 1.14375 1.0753 1.14156C1.13678 1.07445 1.21109 1.0223 1.29091 0.981492C1.30045 0.976726 1.30723 0.967907 1.31677 0.963524C1.40921 0.921179 1.51033 0.897515 1.61464 0.897515H17.3871ZM0.868378 2.16501L6.11543 6.99962L0.868378 11.835V2.16501ZM1.61464 13.1025C1.51033 13.1025 1.40942 13.0788 1.31698 13.0365C1.30659 13.0318 1.29928 13.0223 1.2891 13.0171C1.21024 12.9764 1.13657 12.9251 1.07572 12.8587C1.0736 12.8564 1.07265 12.8532 1.07063 12.8509L6.76756 7.60055L9.21252 9.85338C9.29478 9.92919 9.39781 9.96737 9.50127 9.96737C9.60473 9.96737 9.70777 9.92919 9.79045 9.85338L12.2336 7.60143L17.9297 12.8514C17.9281 12.8532 17.9275 12.8556 17.9258 12.8573C17.8622 12.9275 17.7852 12.9828 17.7017 13.0243C17.6953 13.0274 17.691 13.0334 17.6845 13.0363C17.5923 13.0789 17.4914 13.1025 17.3871 13.1025H1.61464Z" fill="#BEBEBE"/>
</svg>
