<svg width="17" height="20" viewBox="0 0 17 20" fill="none" xmlns="http://www.w3.org/2000/svg">
<path d="M8.5004 0C3.81309 0 0 3.76302 0 8.38883C0 12.9318 7.88198 19.6149 8.21779 19.8971C8.29908 19.9656 8.39995 20 8.5004 20C8.60084 20 8.70172 19.9656 8.78301 19.8971C9.11882 19.6149 17 12.9318 17 8.38883C17 3.76302 13.1869 0 8.5004 0ZM8.5004 18.9979C7.08778 17.7571 0.871661 12.0863 0.871661 8.38883C0.871661 4.2377 4.29404 0.860215 8.5004 0.860215C12.7063 0.860215 16.1283 4.2377 16.1283 8.38883C16.1283 12.0842 9.91302 17.7566 8.5004 18.9979ZM8.5004 4.51786C6.33742 4.51786 4.57792 6.2542 4.57792 8.38883C4.57792 10.5234 6.33742 12.2598 8.5004 12.2598C10.6634 12.2598 12.4229 10.5234 12.4229 8.38883C12.4229 6.2542 10.6634 4.51786 8.5004 4.51786ZM8.5004 11.3996C6.81837 11.3996 5.44958 10.0488 5.44958 8.38883C5.44958 6.72888 6.81837 5.37808 8.5004 5.37808C10.1824 5.37808 11.5512 6.72888 11.5512 8.38883C11.5512 10.0488 10.1824 11.3996 8.5004 11.3996Z" fill="#BEBEBE"/>
</svg>
