<svg width="16" height="11" viewBox="0 0 16 11" fill="none" xmlns="http://www.w3.org/2000/svg">
<path d="M16 5.5C16 5.83752 15.7202 6.11111 15.375 6.11111H0.625C0.279812 6.11111 0 5.83752 0 5.5C0 5.16248 0.279812 4.88889 0.625 4.88889H15.375C15.7202 4.88889 16 5.16248 16 5.5ZM0.625 1.22222H15.375C15.7202 1.22222 16 0.948628 16 0.611111C16 0.273594 15.7202 0 15.375 0H0.625C0.279812 0 0 0.273594 0 0.611111C0 0.948628 0.279812 1.22222 0.625 1.22222ZM15.375 9.77778H0.625C0.279812 9.77778 0 10.0514 0 10.3889C0 10.7264 0.279812 11 0.625 11H15.375C15.7202 11 16 10.7264 16 10.3889C16 10.0514 15.7202 9.77778 15.375 9.77778Z" fill="black"/>
</svg>
