<svg width="43" height="36" viewBox="0 0 43 36" fill="none" xmlns="http://www.w3.org/2000/svg">
<path d="M40.5855 0H1.96225C0.88025 0 0 0.8803 0 1.96231V33.9495C0 35.0315 0.88025 35.9119 1.96225 35.9119H40.5855C41.6675 35.9119 42.5478 35.0315 42.5478 33.9495V23.6906V12.2212V1.96231C42.5478 0.8803 41.6675 0 40.5855 0ZM29.3282 22.9389C28.8891 22.9389 28.5832 22.6727 28.5832 22.4337V13.4782C28.5832 13.2392 28.8891 12.9729 29.3282 12.9729H41.0443V22.9389H29.3282ZM40.5855 34.4084H1.96225C1.71356 34.4084 1.50342 34.1983 1.50342 33.9495V1.96231C1.50342 1.71356 1.71356 1.50343 1.96225 1.50343H40.5855C40.8342 1.50343 41.0443 1.71356 41.0443 1.96231V11.4694H29.3282C28.0884 11.4694 27.0797 12.3706 27.0797 13.4782V22.4337C27.0797 23.5413 28.0884 24.4423 29.3282 24.4423H41.0443V33.9495C41.0443 34.1983 40.8342 34.4084 40.5855 34.4084Z" fill="#E91D25"/>
<path d="M34.8137 14.6943C33.0152 14.6943 31.552 16.1575 31.552 17.956C31.552 19.7545 33.0152 21.2177 34.8137 21.2177C36.6121 21.2177 38.0754 19.7545 38.0754 17.956C38.0754 16.1575 36.6121 14.6943 34.8137 14.6943ZM34.8137 19.7142C33.8442 19.7142 33.0555 18.9255 33.0555 17.956C33.0555 16.9865 33.8442 16.1978 34.8137 16.1978C35.7832 16.1978 36.5719 16.9865 36.5719 17.956C36.5719 18.9255 35.7832 19.7142 34.8137 19.7142Z" fill="white"/>
</svg>
