<svg width="39" height="38" viewBox="0 0 39 38" fill="none" xmlns="http://www.w3.org/2000/svg">
<path d="M35.4779 9.32984C35.3751 9.15619 35.2085 9.03149 35.0093 8.97913C34.8091 8.92677 34.5992 8.95405 34.4195 9.05585C34.2417 9.15668 34.1155 9.31961 34.0634 9.51396C34.0127 9.70441 34.0395 9.9029 34.1399 10.0729C35.6732 12.6742 36.4842 15.6411 36.4842 18.6523C36.4842 28.1123 28.6464 35.8086 19.0128 35.8086C15.5076 35.8086 12.134 34.7969 9.25631 32.8831L8.0191 32.0604H11.4341C11.8593 32.0604 12.2047 31.7248 12.2047 31.3125C12.2047 30.9002 11.8593 30.5646 11.4341 30.5646H6.1136C5.68885 30.5646 5.34351 30.9002 5.34351 31.3125V36.5346C5.34351 36.9469 5.68885 37.2826 6.1136 37.2826C6.53883 37.2826 6.88418 36.9469 6.88418 36.5346V33.0329L7.60069 33.5636C10.9022 36.011 14.8486 37.3045 19.0128 37.3045C24.0926 37.3045 28.8681 35.3632 32.4594 31.8383C36.0488 28.3157 38.0254 23.6328 38.0254 18.6523C38.0254 15.3815 37.1447 12.1579 35.4779 9.32984Z" fill="#E91D25"/>
<path d="M22.8105 18.652C22.8105 16.6011 21.1067 14.9326 19.0127 14.9326C16.9187 14.9326 15.2148 16.6011 15.2148 18.652C15.2148 20.7029 16.9187 22.3717 19.0127 22.3717C21.1067 22.3717 22.8105 20.7029 22.8105 18.652ZM16.755 18.652C16.755 17.426 17.7677 16.4285 19.0127 16.4285C20.2572 16.4285 21.2699 17.426 21.2699 18.652C21.2699 19.8781 20.2572 20.8756 19.0127 20.8756C17.7677 20.8756 16.755 19.8781 16.755 18.652Z" fill="white"/>
<path d="M16.7419 28.3151H21.2835C21.7082 28.3151 22.0536 27.9795 22.0536 27.5672V25.8679L22.3191 25.7489C22.7769 25.5435 23.2182 25.2924 23.6308 25.0031L23.8631 24.8402L25.3551 25.6858C25.5314 25.7861 25.7462 25.8136 25.9455 25.7618C26.1442 25.7096 26.3103 25.5847 26.4131 25.4106L28.6839 21.5504C28.7842 21.3792 28.811 21.1792 28.7594 20.9875C28.7063 20.7956 28.5796 20.6342 28.4028 20.5338L26.9099 19.688L26.9381 19.3977C26.962 19.1519 26.9737 18.9011 26.9737 18.6522C26.9737 18.4033 26.962 18.1527 26.9381 17.9072L26.9099 17.6169L28.4033 16.7708C28.5796 16.6707 28.7063 16.5092 28.7594 16.3163C28.811 16.1249 28.7842 15.9252 28.6834 15.754L26.4131 11.8938C26.3108 11.7199 26.1447 11.5952 25.945 11.5428C25.7448 11.4902 25.5353 11.517 25.3556 11.6183L23.8631 12.4644L23.6308 12.3015C23.2173 12.0114 22.776 11.7606 22.3191 11.5557L22.0536 11.4369V9.73743C22.0536 9.32486 21.7082 8.98926 21.2835 8.98926H16.7419C16.3171 8.98926 15.9718 9.32486 15.9718 9.73743V11.4364L15.7063 11.5555C15.248 11.7611 14.8067 12.0121 14.3946 12.3012L14.1627 12.4642L12.6703 11.6188C12.4935 11.518 12.2786 11.4902 12.0804 11.5426C11.8807 11.595 11.7146 11.7196 11.6128 11.8935L9.34149 15.7542C9.24066 15.9257 9.21387 16.1256 9.26599 16.3166C9.31859 16.5087 9.44524 16.6702 9.62302 16.771L11.1155 17.6166L11.0872 17.9069C11.0634 18.1558 11.0512 18.4064 11.0512 18.6522C11.0512 18.8982 11.0634 19.1488 11.0872 19.3974L11.1155 19.6875L9.62254 20.5336C9.44524 20.6342 9.31859 20.7956 9.26599 20.9878C9.21387 21.179 9.24066 21.3789 9.34197 21.5506L11.6123 25.4106C11.7146 25.5847 11.8807 25.7094 12.0804 25.7618C12.2806 25.8149 12.491 25.7883 12.6698 25.6858L14.1627 24.8402L14.3951 25.0034C14.8057 25.292 15.247 25.5426 15.7063 25.7486L15.9718 25.8675V27.5672C15.9718 27.9795 16.3171 28.3151 16.7419 28.3151ZM14.7609 23.3701C14.511 23.1517 14.1481 23.1159 13.8578 23.2808L12.5646 24.0133L11.0585 21.452L12.3556 20.717C12.6406 20.5557 12.7881 20.2367 12.7229 19.9232C12.6362 19.5082 12.5923 19.0806 12.5923 18.6522C12.5923 18.2233 12.6362 17.7959 12.7229 17.3816C12.7881 17.0682 12.6406 16.7489 12.3556 16.5874L11.0585 15.8524L12.5655 13.2912L13.8578 14.0238C14.1476 14.1885 14.511 14.1519 14.7614 13.9345C15.417 13.3631 16.1661 12.9371 16.9878 12.6685C17.3015 12.5657 17.5124 12.2808 17.5124 11.9595V10.4854H20.5134V11.9595C20.5134 12.281 20.7238 12.566 21.038 12.6685C21.8592 12.9371 22.6084 13.3631 23.2645 13.9345C23.5134 14.1519 23.8768 14.1877 24.1676 14.0238L25.4608 13.2912L26.9669 15.8524L25.6698 16.5876C25.3848 16.7489 25.2372 17.0679 25.3025 17.3816C25.3892 17.7959 25.433 18.2233 25.433 18.6522C25.433 19.0808 25.3892 19.5085 25.3025 19.923C25.2372 20.2364 25.3848 20.5557 25.6698 20.7172L26.9669 21.4517L25.4598 24.0133L24.1676 23.2808C23.8753 23.1156 23.5139 23.1522 23.264 23.3701C22.6084 23.9415 21.8592 24.3675 21.0375 24.6361C20.7238 24.7386 20.5129 25.0236 20.5129 25.3451V26.8192H17.512V25.3451C17.512 25.0236 17.3015 24.7386 16.9878 24.6361C16.1661 24.3675 15.417 23.9415 14.7609 23.3701Z" fill="white"/>
<path d="M3.88504 27.2318C2.35168 24.63 1.54116 21.6634 1.54116 18.6522C1.54116 9.19215 9.37894 1.4961 19.0126 1.4961C22.5182 1.4961 25.8928 2.50755 28.7701 4.42133L30.0073 5.24403H26.5913C26.1661 5.24403 25.8207 5.57963 25.8207 5.99195C25.8207 6.40452 26.1661 6.74013 26.5913 6.74013H31.9118C32.3365 6.74013 32.6819 6.40452 32.6819 5.99195V0.770091C32.6819 0.357525 32.3365 0.0219191 31.9118 0.0219191C31.487 0.0219191 31.1417 0.357525 31.1417 0.770091V4.26863L30.4252 3.73818C27.1242 1.29274 23.1778 0 19.0126 0C13.9328 0 9.15732 1.9413 5.56599 5.46614C1.97662 8.98878 0 13.6714 0 18.6522C0 21.9237 0.880661 25.1476 2.54749 27.9749C2.75109 28.3202 3.24403 28.4525 3.60642 28.2486C3.78373 28.148 3.90988 27.9851 3.962 27.7908C4.01266 27.6003 3.98538 27.4018 3.88504 27.2321V27.2318Z" fill="#E91D25"/>
</svg>
