<svg width="17" height="17" viewBox="0 0 17 17" fill="none" xmlns="http://www.w3.org/2000/svg">
<path d="M16.3718 0.0364509L0.295677 7.15938C-0.100991 7.3351 -0.0976335 7.98024 0.300255 8.15144L4.21743 9.8307L5.73354 15.4309C5.83065 15.7897 6.21249 15.9223 6.46597 15.6842L8.64944 13.6397C8.87838 13.4256 9.20431 13.4149 9.44357 13.6143L13.3818 16.8983C13.6529 17.1246 14.037 16.9539 14.1051 16.5777L16.99 0.639051C17.0642 0.227979 16.7125 -0.114855 16.3718 0.0364509ZM13.3058 3.76387L6.98775 10.5092C6.76571 10.7466 6.62246 11.0642 6.58187 11.4092L6.36666 13.241C6.3381 13.4857 6.03896 13.5099 5.98019 13.2731L5.15243 9.93275C5.0577 9.55171 5.19582 9.14473 5.48928 8.93678L13.1448 3.52131C13.2825 3.42427 13.424 3.63795 13.3058 3.76387Z" fill="#00B6EF"/>
</svg>
