<svg width="17" height="19" viewBox="0 0 17 19" fill="none" xmlns="http://www.w3.org/2000/svg">
<path d="M10.3289 7.95491C10.1715 7.94893 10.086 7.84883 10.069 7.68599C10.0567 7.56703 10.0469 7.44649 10.0207 7.33077C9.96901 7.10274 9.85695 6.8915 9.67964 6.75185C9.5959 6.68587 9.50111 6.63771 9.40169 6.60677C9.27547 6.56734 9.14436 6.5782 9.01838 6.54482C8.88161 6.50862 8.80592 6.38881 8.82741 6.25002C8.84694 6.1238 8.96058 6.02522 9.08815 6.03517C9.88576 6.09743 10.4557 6.54329 10.5371 7.55861C10.5429 7.6302 10.5496 7.70589 10.5349 7.77443C10.511 7.88582 10.4374 7.9438 10.3629 7.95442C10.369 7.95448 10.3679 7.95509 10.351 7.95625C10.2534 7.95815 10.2918 7.95607 10.3289 7.95491ZM11.5006 10.5778C11.2521 10.3862 11.002 10.1967 10.7441 10.0202C10.4862 9.84377 10.1803 9.84651 9.94075 10.0582C9.69581 10.2749 9.58265 10.6894 9.23311 10.7336C9.02437 10.7599 8.84242 10.665 8.66121 10.5835C7.52894 10.0741 6.839 9.12819 6.42964 7.91176C6.37648 7.7538 6.38045 7.58229 6.46303 7.43697C6.50825 7.35756 6.57026 7.29829 6.63612 7.23964C6.71132 7.17268 6.7848 7.10317 6.86549 7.04384C7.1974 6.8 7.24769 6.36202 7.06459 6.00368C6.76668 5.42116 6.39888 4.8929 5.99843 4.39034C5.81325 4.15785 5.563 4.08186 5.3094 4.21364C4.98445 4.38246 4.6844 4.61153 4.45125 4.91078C4.20271 5.22969 3.96663 5.66695 4.12697 6.09016C4.30263 6.55434 4.47499 7.0215 4.67958 7.47109C5.11091 8.41902 5.62129 9.31484 6.27321 10.1083C7.41975 11.5036 8.86714 12.4138 10.4398 13.1193C10.5916 13.1875 10.755 13.2253 10.9265 13.2816C11.0756 13.2319 11.2335 13.2071 11.3657 13.1304C11.8339 12.8584 12.1585 12.4323 12.3816 11.9201C12.5034 11.6403 12.429 11.37 12.2127 11.164C11.9876 10.9497 11.7447 10.7658 11.5006 10.5778ZM8.50966 3.62837C8.62495 3.63271 10.4798 3.68794 8.50435 3.62807C8.46455 3.62788 8.42463 3.62593 8.38496 3.62825C8.23915 3.63673 8.10988 3.76857 8.13716 3.93422C8.16975 4.13179 8.3622 4.14143 8.50923 4.1581C8.74165 4.18446 8.97664 4.19612 9.20613 4.24037C10.7315 4.53456 11.9533 5.90547 12.1663 7.56245C12.2067 7.87636 12.2213 8.19423 12.2425 8.51082C12.2532 8.67067 12.3274 8.8199 12.4923 8.81777C12.652 8.81569 12.7357 8.66371 12.7243 8.5038C12.6969 8.12349 12.6748 7.74037 12.6131 7.36568C12.2514 5.16853 10.5644 3.69313 8.50966 3.62837ZM16.6198 12.1143L16.6147 12.1362C16.2046 13.929 14.3556 15.8528 12.6577 16.253L12.6385 16.2573C11.2656 16.5405 9.88252 16.6819 8.50001 16.6819C8.09309 16.6819 7.68617 16.6682 7.27949 16.6436L5.40437 18.7512C4.94014 19.2739 4.12385 18.9181 4.12385 18.1939V16.1926C2.48921 15.6878 0.77803 13.8525 0.384781 12.1362L0.380264 12.1143C-0.126755 9.61061 -0.126755 7.07161 0.380264 4.56789L0.384781 4.54597C0.795486 2.75319 2.64442 0.829422 4.34187 0.429154L4.36159 0.424942C7.10737 -0.141647 9.8921 -0.141647 12.6385 0.424942L12.6577 0.429154C14.3556 0.829422 16.2046 2.75319 16.6147 4.54597L16.6198 4.56789C17.1268 7.07167 17.1268 9.61067 16.6198 12.1143ZM15.1359 4.93105C14.862 3.76143 13.4588 2.30733 12.3427 2.03865C9.79292 1.51418 7.20717 1.51418 4.65675 2.03865C3.54133 2.30733 2.13795 3.76143 1.86366 4.93098C1.4073 7.19411 1.4073 9.48818 1.86366 11.7512C2.13795 12.9209 3.54133 14.375 4.65675 14.6436C4.65706 14.6436 4.6573 14.6437 4.65761 14.6438C4.70729 14.6543 4.74348 14.7009 4.74348 14.7556V18.0708C4.74348 18.2365 4.93056 18.3181 5.037 18.1982L6.4933 16.582C6.4933 16.582 7.65382 15.2939 7.8625 15.0623C7.88283 15.0396 7.91109 15.0274 7.94026 15.0282C9.41054 15.0723 10.8824 14.9439 12.3427 14.6436C13.4582 14.375 14.8621 12.9209 15.1359 11.7514C15.5927 9.4883 15.5927 7.19417 15.1359 4.93105ZM11.1458 7.97554C11.1459 8.0475 11.1492 8.12361 11.1705 8.19051C11.2426 8.41591 11.5557 8.38789 11.6103 8.16457C11.6253 8.1031 11.6271 8.0378 11.6305 8.01003C11.6223 7.8575 11.6173 7.74171 11.6092 7.62611C11.6059 7.57924 11.5956 7.53297 11.5891 7.48634C11.4468 6.45625 10.9593 5.68477 10.1058 5.19606C9.68605 4.95576 9.23005 4.84541 8.75795 4.81642C8.61433 4.80763 8.51802 4.91017 8.51167 5.05269C8.50502 5.20485 8.58113 5.30318 8.72389 5.32466C8.84169 5.34242 8.96022 5.35512 9.07741 5.37605C9.34566 5.42403 9.61036 5.50459 9.85512 5.63417C10.2597 5.84847 10.6049 6.20265 10.8307 6.6238C11.0504 7.03377 11.1451 7.50441 11.1458 7.97554Z" fill="#6147FC"/>
</svg>
