<svg width="25" height="22" viewBox="0 0 25 22" fill="none" xmlns="http://www.w3.org/2000/svg">
<path d="M22.6421 3.1084L22.5087 3.07147L22.498 2.93536C22.3685 1.28937 20.954 0 19.2776 0H3.23127C1.44952 0 0 1.42804 0 3.18341V18.8166C0 20.5719 1.44952 22 3.23127 22H21.7688C23.5505 22 25 20.5719 25 18.8166V6.17261C25 4.75311 24.0303 3.49304 22.6421 3.1084ZM1.20538 3.18341C1.20538 2.08282 2.1142 1.1875 3.23127 1.1875H19.2776C20.2197 1.1875 21.0514 1.84528 21.2552 2.75153L21.3087 2.98926H3.23127C2.62116 2.98926 2.02588 3.15924 1.50983 3.48077L1.20538 3.67041V3.18341ZM23.7946 14.7775H18.488C17.2378 14.7775 16.2207 13.7754 16.2207 12.5437C16.2207 11.312 17.2378 10.3099 18.488 10.3099H23.7946V14.7775ZM23.7947 9.12238H18.488C16.5732 9.12238 15.0153 10.6572 15.0153 12.5437C15.0153 14.4302 16.5732 15.965 18.488 15.965H23.7946V18.8166C23.7946 19.9172 22.8858 20.8125 21.7687 20.8125H3.23127C2.1142 20.8125 1.20538 19.9172 1.20538 18.8166V6.17261C1.20538 5.07208 2.1142 4.17676 3.23127 4.17676H21.7688C22.8859 4.17676 23.7947 5.07208 23.7947 6.17261V9.12238Z" fill="#EB0000"/>
<path d="M18.7854 11.9773C19.1358 11.9773 19.421 12.2582 19.421 12.6035C19.421 12.9487 19.1358 13.2297 18.7854 13.2297C18.4349 13.2297 18.1497 12.9487 18.1497 12.6035C18.1497 12.2582 18.4349 11.9773 18.7854 11.9773Z" fill="black"/>
<path d="M20.8178 15.9659H25.0001V9.12061H23.7948V9.12396H18.4881C16.5733 9.12396 15.0154 10.6588 15.0154 12.5452C15.0154 14.4318 16.5733 15.9666 18.4881 15.9666H20.8178V15.9659ZM16.2208 12.5452C16.2208 11.3135 17.2379 10.3115 18.4881 10.3115H23.7947V14.7791H18.4881C17.2379 14.7791 16.2208 13.7769 16.2208 12.5452Z" fill="black"/>
</svg>
