<svg width="7" height="5" viewBox="0 0 7 5" fill="none" xmlns="http://www.w3.org/2000/svg">
<path d="M3.77314 4.00078L6.88817 0.885692C6.96028 0.813644 7 0.717466 7 0.614914C7 0.512361 6.96028 0.416183 6.88817 0.344135L6.65882 0.114731C6.50938 -0.0345446 6.26649 -0.0345446 6.11727 0.114731L3.50145 2.73055L0.882732 0.111828C0.810627 0.0397801 0.714506 0 0.612011 0C0.509402 0 0.413281 0.0397801 0.341119 0.111828L0.111828 0.341233C0.0397231 0.413338 0 0.509459 0 0.612011C0 0.714564 0.0397231 0.810742 0.111828 0.88279L3.22971 4.00078C3.30204 4.073 3.39861 4.11267 3.50128 4.11244C3.60434 4.11267 3.70086 4.073 3.77314 4.00078Z" fill="#EB0000"/>
</svg>
