<svg width="43" height="43" viewBox="0 0 43 43" fill="none" xmlns="http://www.w3.org/2000/svg">
<path d="M36.7029 6.29715C32.642 2.23634 27.2429 0 21.5 0C15.7571 0 10.358 2.23634 6.29715 6.29715C2.23634 10.358 0 15.7571 0 21.5C0 26.5682 1.79701 31.4894 5.06056 35.3578C5.83372 36.2732 6.68717 37.1287 7.59698 37.9004C11.4718 41.189 16.4093 43 21.5 43V43C26.5907 43 31.5282 41.189 35.4028 37.9006C36.3128 37.1287 37.1663 36.2732 37.9399 35.3573C41.203 31.4895 43 26.5683 43 21.5C43 15.7571 40.7637 10.358 36.7029 6.29715ZM9.67364 36.1309C9.4966 35.3007 9.40625 34.4494 9.40625 33.5938C9.40625 27.019 14.7515 21.5952 21.3231 21.5008L21.5 21.5L21.677 21.5008C28.2485 21.5952 33.5938 27.019 33.5938 33.5938C33.5938 34.4493 33.5034 35.3007 33.3264 36.1309C29.9898 38.8305 25.8079 40.3125 21.5 40.3125C17.1922 40.3125 13.0104 38.8305 9.67364 36.1309ZM21.5 18.8125C18.5362 18.8125 16.125 16.4013 16.125 13.4375C16.125 10.4737 18.5362 8.0625 21.5 8.0625C24.4638 8.0625 26.875 10.4737 26.875 13.4375C26.875 16.4013 24.4638 18.8125 21.5 18.8125ZM36.2739 33.1467C36.1631 29.4017 34.6632 25.8883 32.0206 23.2107C30.459 21.6285 28.6004 20.4417 26.5695 19.7018C28.394 18.2224 29.5625 15.964 29.5625 13.4375C29.5625 8.99179 25.9457 5.375 21.5 5.375C17.0543 5.375 13.4375 8.99179 13.4375 13.4375C13.4375 15.9641 14.606 18.2225 16.4306 19.7019C14.3997 20.4418 12.541 21.6286 10.9795 23.2108C8.33683 25.8883 6.83689 29.4017 6.72612 33.1467C4.11804 29.8401 2.6875 25.729 2.6875 21.5C2.6875 11.1268 11.1268 2.6875 21.5 2.6875H21.5C31.8732 2.6875 40.3125 11.1268 40.3125 21.5C40.3125 25.7293 38.8818 29.8405 36.2739 33.1467Z" fill="#E6E6E6"/>
</svg>
