<svg width="25" height="22" viewBox="0 0 25 22" fill="none" xmlns="http://www.w3.org/2000/svg">
<path d="M24.9575 12.4854C24.5154 7.99758 20.4998 4.71501 16.0155 4.71501H9.37505V0.786599C9.37505 0.484898 9.20318 0.209909 8.93287 0.0779145C8.661 -0.0525087 8.3407 -0.0179386 8.10633 0.172196L0.293988 6.45765C0.108054 6.6085 0.000244141 6.8332 0.000244141 7.07205C0.000244141 7.3109 0.108054 7.5356 0.292426 7.68645L8.10476 13.9719C8.24695 14.085 8.42038 14.1432 8.59382 14.1432C8.70944 14.1432 8.82506 14.118 8.93287 14.0662C9.20318 13.9342 9.37505 13.6592 9.37505 13.3575V9.4291H16.1812C18.2249 9.4291 20.0873 10.9062 20.292 12.9505C20.5279 15.3013 18.6952 17.2859 16.4062 17.2859H10.1563C9.72504 17.2859 9.37505 17.6379 9.37505 18.0716V21.2143C9.37505 21.648 9.72504 22 10.1563 22H16.4062C21.4264 22 25.4622 17.6363 24.9575 12.4854Z" fill="#EB0000"/>
</svg>
