<svg width="21" height="27" viewBox="0 0 21 27" fill="none" xmlns="http://www.w3.org/2000/svg">
<path d="M20.2473 0.698318C19.7868 0.490189 19.2443 0.571121 18.8677 0.904007L17.0799 2.45772L14.6475 0.32222C14.1588 -0.107407 13.419 -0.107407 12.9303 0.32222L10.5 2.4557L8.069 0.32222C7.58017 -0.107407 6.8403 -0.107407 6.35153 0.32222L3.91849 2.45772L2.129 0.904068C1.60098 0.443436 0.792389 0.490189 0.32309 1.00838C0.112946 1.24043 -0.00216632 1.54066 3.08834e-05 1.85109V25.1489C-0.00418052 25.8433 0.56601 26.4095 1.27347 26.4136C1.58981 26.4154 1.89572 26.3023 2.13223 26.096L3.92001 24.5423L6.35239 26.6778C6.8411 27.1074 7.5809 27.1074 8.06955 26.6778L10.5 24.544L12.9307 26.6775C13.4195 27.1071 14.1594 27.1071 14.6482 26.6775L17.0812 24.5421L18.8707 26.0957C19.3987 26.5565 20.2073 26.51 20.6767 25.9918C20.887 25.7597 21.0021 25.4593 20.9999 25.1486V1.85109C21.0063 1.35371 20.7103 0.900406 20.2473 0.698318ZM17.9321 23.595C17.4434 23.1701 16.7077 23.172 16.2213 23.5995L13.789 25.7349L11.3586 23.6014C10.8698 23.1718 10.13 23.1718 9.6412 23.6014L7.21048 25.7349L4.77719 23.5995C4.29263 23.172 3.55826 23.1701 3.07132 23.5949L1.28836 25.1482V21.7781L1.28189 1.85146L3.06778 3.40474C3.55655 3.82967 4.29215 3.82777 4.7786 3.40028L7.21091 1.26485L9.64133 3.39833C10.1301 3.82796 10.87 3.82796 11.3587 3.39833L13.7894 1.26485L16.2228 3.40028C16.7073 3.82771 17.4416 3.82967 17.9286 3.4048L19.7116 1.85109V17.8663L19.718 25.1483L17.9321 23.595Z" fill="#EB0000"/>
<path d="M17.2504 13.5C17.2504 13.8492 16.962 14.1322 16.6062 14.1322H4.39368C4.0379 14.1322 3.74951 13.8492 3.74951 13.5C3.74951 13.1508 4.0379 12.8677 4.39368 12.8677H16.6062C16.9619 12.8677 17.2504 13.1508 17.2504 13.5Z" fill="black"/>
<path d="M3.74951 9.70646C3.74951 9.35727 4.0379 9.07422 4.39368 9.07422H10.8087C11.1644 9.07422 11.4529 9.35727 11.4529 9.70646C11.4529 10.0557 11.1645 10.3387 10.8087 10.3387H4.39368C4.0379 10.3387 3.74951 10.0557 3.74951 9.70646Z" fill="black"/>
<path d="M17.2504 17.2932C17.2504 17.6424 16.962 17.9254 16.6062 17.9254H4.39368C4.0379 17.9254 3.74951 17.6424 3.74951 17.2932C3.74951 16.944 4.0379 16.6609 4.39368 16.6609H16.6062C16.9619 16.6609 17.2504 16.944 17.2504 17.2932Z" fill="black"/>
</svg>
