<svg width="26" height="27" viewBox="0 0 26 27" fill="none" xmlns="http://www.w3.org/2000/svg">
<path d="M25.9992 7.01765C25.999 7.00899 25.9982 7.00044 25.9976 6.99184C25.9959 6.96663 25.9926 6.94185 25.9877 6.91737C25.9868 6.91273 25.9861 6.90804 25.9851 6.9034C25.982 6.88979 25.9782 6.87648 25.9742 6.86317C25.9723 6.85695 25.9703 6.85078 25.9683 6.84468C25.9639 6.83186 25.9594 6.81929 25.9542 6.8069C25.9515 6.80043 25.9483 6.79427 25.9454 6.78792C25.9369 6.76955 25.9275 6.75179 25.9171 6.73451C25.9112 6.72469 25.9055 6.71486 25.899 6.70546C25.8938 6.69789 25.8882 6.69069 25.8826 6.68336C25.8749 6.67317 25.8669 6.66322 25.8585 6.65358C25.8533 6.6476 25.848 6.64174 25.8425 6.636C25.8312 6.6241 25.8192 6.61275 25.8068 6.60188C25.8035 6.59895 25.8004 6.59578 25.797 6.59297C25.7799 6.57875 25.7619 6.56551 25.7429 6.5533C25.7427 6.55312 25.7424 6.55287 25.7422 6.55269C25.741 6.5519 25.7397 6.55141 25.7384 6.55061C25.7259 6.54274 25.7133 6.53493 25.6999 6.52797L13.2508 0.0590973C13.0991 -0.0196991 12.9193 -0.0196991 12.7666 0.0590973L0.300104 6.52797C0.286494 6.53505 0.273615 6.54298 0.260798 6.55104C0.259882 6.55165 0.258784 6.55208 0.257868 6.55269L0.257136 6.55324C0.237482 6.56593 0.218867 6.57973 0.201227 6.59456L0.200739 6.59505C0.183588 6.60945 0.167719 6.62502 0.152643 6.64125C0.15124 6.64278 0.149836 6.6443 0.148493 6.64583C0.0452826 6.75948 -0.00848938 6.91273 0.00109312 7.06776V19.6873C0.00109312 19.8966 0.113764 20.089 0.292536 20.1857L12.7416 26.9359C12.8196 26.9786 12.9063 27 12.9919 27C12.9948 27 12.9977 26.9994 13.0005 26.9994C13.0034 26.9994 13.0063 27 13.0092 27C13.0948 27 13.1815 26.9786 13.2595 26.9359L25.7086 20.1857C25.8873 20.089 26 19.8966 26 19.6873V7.03084C26 7.02638 25.9993 7.02205 25.9992 7.01765ZM12.4502 25.5093L1.08441 19.3465V7.94099L12.4502 13.8474V25.5093ZM13 12.8755L1.75335 7.03151L13.0092 1.19087L24.2469 7.03139L13 12.8755ZM24.9167 19.3465L13.5509 25.5093V13.8473L24.9167 7.94099V19.3465Z" fill="#EB0000"/>
<path d="M20.0933 21.9617L18.9937 22.5451L18.9976 9.8518L7.66772 3.96323L8.86003 3.34375L20.0982 9.18383L20.0933 21.9617Z" fill="black"/>
</svg>
