<svg width="31" height="22" viewBox="0 0 31 22" fill="none" xmlns="http://www.w3.org/2000/svg">
<path d="M30.0103 9.90125L27.845 8.94922L26.0197 5.34082C25.5495 4.39911 24.6108 3.81763 23.5653 3.82556H20.3374V2.81396C20.3374 1.26233 19.1073 0 17.5954 0H2.7282C1.22393 0 0.000172365 1.26233 0.000172365 2.81396V16.4868C-0.0128281 17.405 0.711232 18.1612 1.61413 18.1744H2.127V18.2934C2.127 18.3384 2.1245 18.3686 2.12249 18.3929C2.12127 18.4073 2.12011 18.42 2.12011 18.435C2.11858 18.8781 2.2069 19.2984 2.35192 19.6904C2.57287 19.3497 2.92791 19.1008 3.36394 19.0279C3.31871 18.8439 3.28759 18.6544 3.28759 18.4563C3.28759 18.1086 3.36583 17.7806 3.49871 17.4828C3.13317 17.2289 2.87139 16.778 2.82976 16.3177C2.6884 16.5113 2.55907 16.7155 2.45818 16.94L2.42687 17.0096H1.64037C1.36693 17.0096 1.16069 16.7909 1.16069 16.501V12.7336H19.1769V17.0096H8.81762L8.78624 16.9403C8.72265 16.7996 8.64794 16.6664 8.56804 16.5375C8.55333 16.5665 8.55266 16.5952 8.5357 16.6241C8.35589 16.9316 8.01976 17.1801 7.64898 17.3021C7.83916 17.6453 7.95678 18.0353 7.95678 18.4563C7.95678 18.8387 7.85881 19.1951 7.69988 19.5153C8.07476 19.8254 8.24151 20.3254 8.2033 20.8146C8.77923 20.1655 9.10729 19.3431 9.11028 18.463V18.428C9.11028 18.3807 9.11028 18.363 9.10393 18.2981L9.09111 18.1673H21.3526V18.428C21.3522 18.5277 21.3722 18.6234 21.3798 18.7216C21.5756 18.6185 21.7805 18.5322 22.0126 18.446C22.1998 18.3764 22.3711 18.3562 22.5344 18.3563C22.5527 17.9471 22.667 17.564 22.8645 17.2336C22.4845 17.0772 22.1581 16.7601 21.9933 16.4062C21.8778 16.5742 21.7761 16.7529 21.6904 16.9407L21.659 17.0096H20.3374V9.9707H27.313L29.5583 10.9751C29.7386 11.0667 29.854 11.2639 29.8461 11.4665V16.501C29.8461 16.7909 29.6399 17.0096 29.3664 17.0096H28.0506L28.0191 16.941C27.9436 16.7769 27.8469 16.6307 27.751 16.4843C27.5864 16.7532 27.3566 16.9793 27.0608 17.1053C26.98 17.1398 26.8963 17.1512 26.8139 17.1757C27.0491 17.5458 27.1893 17.9839 27.1893 18.4563C27.1893 18.5382 27.1735 18.6157 27.1655 18.6954C27.5887 18.8151 27.9555 19.1199 28.1671 19.4993C28.2699 19.1674 28.3415 18.8216 28.3428 18.4559V18.1603H29.3595C30.2639 18.1603 30.9997 17.4128 30.9997 16.4939V11.4357C31.0127 10.785 30.6152 10.1694 30.0103 9.90125ZM19.1769 11.5546H1.16069V2.82104C1.16069 1.91949 1.86388 1.1861 2.7282 1.1861H17.5954C18.0218 1.18976 18.4207 1.36182 18.7196 1.67059C19.0182 1.97882 19.1805 2.38525 19.1769 2.815V11.5546ZM20.3374 8.79175V5.01166H23.5646C24.1676 5.00378 24.7159 5.33514 24.9934 5.87616L26.4765 8.79175H20.3374Z" fill="#EB0000"/>
<path d="M5.61646 14.8914C3.68683 14.8914 2.12256 16.4811 2.12256 18.4421C2.12256 20.4032 3.68683 21.993 5.61646 21.993C7.54608 21.993 9.11035 20.4032 9.11035 18.4421C9.11035 16.4811 7.54608 14.8914 5.61646 14.8914ZM5.61646 20.8207C4.32391 20.8207 3.27606 19.7558 3.27606 18.4421C3.27606 17.1285 4.32391 16.0637 5.61646 16.0637C6.909 16.0637 7.95685 17.1285 7.95685 18.4421C7.95685 19.7558 6.909 20.8207 5.61646 20.8207Z" fill="black"/>
<path d="M24.8547 14.8914C22.9251 14.8914 21.3608 16.4811 21.3608 18.4421C21.3608 20.4032 22.9251 21.993 24.8547 21.993C26.7844 21.993 28.3486 20.4032 28.3486 18.4421C28.3486 16.4811 26.7844 14.8914 24.8547 14.8914ZM24.8547 20.8207C23.5622 20.8207 22.5143 19.7558 22.5143 18.4421C22.5143 17.1285 23.5622 16.0637 24.8547 16.0637C26.1473 16.0637 27.1951 17.1285 27.1951 18.4421C27.1951 19.7558 26.1473 20.8207 24.8547 20.8207Z" fill="black"/>
</svg>
