<svg width="31" height="25" viewBox="0 0 31 25" fill="none" xmlns="http://www.w3.org/2000/svg">
<path d="M30.4491 2.69402C30.0474 2.21092 29.4849 1.91582 28.8651 1.86314L7.03461 0.00840779C6.41473 -0.0442655 5.81207 0.15184 5.33716 0.560471C4.86426 0.967514 4.57465 1.53697 4.52124 2.16454L4.08203 6.35722H2.32831C1.04449 6.35722 0 7.41997 0 8.7263V22.6309C0 23.9372 1.04449 25 2.32831 25H24.2349C25.5188 25 26.5633 23.9372 26.5633 22.6309V20.3753L27.3406 20.4414C27.4062 20.4469 27.4714 20.4497 27.5361 20.4497C28.7329 20.4497 29.7533 19.5127 29.8546 18.2776L30.9918 4.42125C31.0435 3.79057 30.8507 3.17723 30.4491 2.69402ZM25.3523 22.6309C25.3523 23.2578 24.851 23.7679 24.2349 23.7679H2.32831C1.71222 23.7679 1.21094 23.2578 1.21094 22.6309V15.0135H25.3523V22.6309ZM25.3523 13.7814H1.21094V11.2254H25.3523V13.7814ZM25.3523 9.99327H1.21094V8.7263C1.21094 8.09935 1.71222 7.58934 2.32831 7.58934H24.2349C24.851 7.58934 25.3523 8.09935 25.3523 8.7263V9.99327ZM28.6479 18.1751C28.5966 18.7998 28.0552 19.2659 27.4414 19.2135L26.5633 19.1389V8.7263C26.5633 7.41997 25.5188 6.35722 24.2349 6.35722H5.29987L5.72607 2.28874C5.72656 2.28404 5.72699 2.2794 5.72736 2.2747C5.77863 1.64995 6.3197 1.18394 6.93384 1.23631L28.7644 3.09099C29.0619 3.11626 29.3319 3.25792 29.5246 3.48979C29.7173 3.72166 29.8098 4.01598 29.785 4.31865L28.6479 18.1751Z" fill="#EB0000"/>
<path d="M22.8184 16.8452H16.9912C16.6569 16.8452 16.3857 17.121 16.3857 17.4612V21.3294C16.3857 21.6697 16.6569 21.9456 16.9912 21.9456H22.8184C23.1527 21.9456 23.4238 21.6697 23.4238 21.3294V17.4612C23.4238 17.121 23.1527 16.8452 22.8184 16.8452ZM22.2128 20.7134H17.5966V18.0773H22.2128V20.7134Z" fill="black"/>
</svg>
