<svg width="21" height="21" viewBox="0 0 21 21" fill="none" xmlns="http://www.w3.org/2000/svg">
<path d="M9.3401 10.5L0.24052 1.40041C-0.0798512 1.08003 -0.0798512 0.560612 0.24052 0.240281C0.560892 -0.080051 1.08031 -0.0800936 1.40064 0.240281L10.5003 9.33992L19.5998 0.240281C19.9202 -0.0800936 20.4396 -0.0800936 20.76 0.240281C21.0803 0.560652 21.0803 1.08007 20.76 1.40041L11.6604 10.5L20.76 19.5996C21.0803 19.92 21.0803 20.4394 20.76 20.7598C20.5998 20.9199 20.3898 21 20.1799 21C19.9699 21 19.76 20.9199 19.5998 20.7598L10.5003 11.6602L1.40069 20.7598C1.24052 20.9199 1.03056 21 0.820604 21C0.610643 21 0.400728 20.9199 0.24052 20.7598C-0.0798512 20.4394 -0.0798512 19.92 0.24052 19.5996L9.3401 10.5Z" fill="black" fill-opacity="0.28"/>
</svg>
