<svg width="67" height="32" viewBox="0 0 67 32" fill="none" xmlns="http://www.w3.org/2000/svg">
<path d="M55.3823 5.18104H48.0562V2.08571C48.0562 0.935615 47.1205 0 45.9705 0H21.8823C20.7323 0 19.7966 0.935615 19.7966 2.08571V23.6358C19.7966 24.7859 20.7323 25.7215 21.8823 25.7215H24.7096C24.7944 28.7073 27.2479 31.1105 30.2538 31.1105C33.2597 31.1105 35.7133 28.7073 35.7981 25.7215H47.3044H50.9047C50.9895 28.7073 53.4431 31.1105 56.4489 31.1105C59.4549 31.1105 61.9085 28.7073 61.9933 25.7215H63.9158C65.0658 25.7215 66.0015 24.7859 66.0015 23.6358V15.8003C66.0015 9.94481 61.2377 5.18104 55.3823 5.18104ZM21.3001 23.6358V2.08571C21.3001 1.76464 21.5613 1.50348 21.8823 1.50348H45.9705C46.2915 1.50348 46.5527 1.76464 46.5527 2.08571V5.93276V24.218H35.6367C35.4898 23.6249 35.2463 23.064 34.9086 22.5441L34.9085 22.5439C34.9082 22.5435 34.908 22.5431 34.908 22.5431L34.9076 22.5425C34.905 22.5385 34.902 22.5338 34.8995 22.53L34.8994 22.5299C34.8994 22.5299 34.8993 22.5296 34.8992 22.5295C34.8987 22.5288 34.898 22.5277 34.8977 22.5272C34.8973 22.5267 34.897 22.5263 34.8966 22.5258C34.8579 22.4667 34.818 22.4086 34.7771 22.3511C34.7769 22.3507 34.7767 22.3503 34.7764 22.3499L34.7746 22.3473C34.7744 22.3471 34.7742 22.3467 34.774 22.3464L34.7737 22.3462L34.7561 22.3213C34.7559 22.321 34.7557 22.3208 34.7555 22.3205C34.7551 22.32 34.7548 22.3194 34.7544 22.3189C34.7134 22.2622 34.6714 22.2064 34.6285 22.1513L34.6281 22.1508L34.6026 22.1184C34.6023 22.118 34.602 22.1177 34.6017 22.1173C34.6015 22.117 34.6013 22.1167 34.6011 22.1165C34.5599 22.0647 34.5179 22.0136 34.4749 21.9632C34.4744 21.9627 34.4741 21.9621 34.4736 21.9616L34.4425 21.9256L34.4423 21.9258C34.4411 21.9243 34.4401 21.9227 34.4388 21.9213C34.3956 21.8717 34.3518 21.8228 34.3069 21.7749L34.3067 21.7747L34.3063 21.7741L34.269 21.735L34.2686 21.7347C34.2686 21.7346 34.2686 21.7346 34.2685 21.7346C34.2238 21.6876 34.1786 21.6412 34.1322 21.5959C34.1321 21.5958 34.132 21.5957 34.1319 21.5956C34.1319 21.5956 34.1315 21.5952 34.1313 21.595L34.0916 21.5571C34.0915 21.557 34.0914 21.5569 34.0914 21.5569L34.0911 21.5566C34.0442 21.5118 33.9971 21.4674 33.9488 21.4242L33.9481 21.4236L33.9104 21.3907C33.9104 21.3907 33.9101 21.3905 33.9099 21.3904C33.9098 21.3902 33.9096 21.39 33.9094 21.3899C33.861 21.3476 33.8123 21.3057 33.7624 21.2649C33.7616 21.2642 33.7609 21.2634 33.76 21.2628C33.7592 21.262 33.7581 21.2613 33.7573 21.2606C33.7573 21.2606 33.7567 21.26 33.7563 21.2598C33.7561 21.2596 33.7558 21.2594 33.7555 21.2592C33.7477 21.2528 33.7399 21.2465 33.7306 21.2394C33.7303 21.2391 33.7299 21.2389 33.7295 21.2386C33.5598 21.102 33.3799 20.974 33.1949 20.858C33.1947 20.8579 33.1946 20.8578 33.1946 20.8578L33.1875 20.8533C33.1751 20.8451 33.1625 20.8371 33.1499 20.8293C33.1496 20.8291 33.1492 20.829 33.1489 20.8288C33.1487 20.8287 33.1486 20.8285 33.1484 20.8284C33.1122 20.8062 33.0753 20.785 33.0385 20.7639L33.0164 20.7512L33.0162 20.7511C33.0161 20.7511 33.0161 20.751 33.016 20.751L32.9937 20.738C32.9711 20.7248 32.9484 20.7117 32.9253 20.699C32.9253 20.699 32.9248 20.6986 32.9245 20.6984C32.891 20.6801 32.8571 20.6625 32.8232 20.645L32.8019 20.634H32.8019C32.8019 20.634 32.8016 20.6338 32.8014 20.6337L32.7821 20.6237C32.7526 20.6084 32.7232 20.5931 32.6934 20.5785C32.6931 20.5784 32.6929 20.5783 32.6929 20.5783L32.6925 20.5781C32.657 20.5607 32.6211 20.5441 32.5851 20.5276L32.5746 20.5227L32.5746 20.5227L32.5743 20.5226L32.5737 20.5223L32.5736 20.5222C32.5347 20.5043 32.4957 20.4864 32.4563 20.4693C32.4563 20.4693 32.4561 20.4692 32.456 20.4692C32.456 20.4692 32.4557 20.469 32.4555 20.4689C32.4171 20.4523 32.3782 20.4365 32.3393 20.4207C32.3393 20.4207 32.3387 20.4204 32.3384 20.4202C32.2964 20.4033 32.2544 20.3865 32.212 20.3704C32.2118 20.3704 32.2116 20.3703 32.2116 20.3703C32.1733 20.3559 32.1349 20.3421 32.0964 20.3286C32.0964 20.3286 32.096 20.3284 32.0959 20.3283C32.0959 20.3283 32.0952 20.3281 32.0949 20.328C32.0946 20.3279 32.0944 20.3278 32.0944 20.3278C32.0944 20.3278 32.094 20.3277 32.0938 20.3276C32.0503 20.3123 32.0065 20.2975 31.9624 20.2832C31.9622 20.2831 31.9621 20.2831 31.9621 20.2831C31.9236 20.2707 31.8852 20.2587 31.8466 20.2471C31.8466 20.2471 31.8466 20.2471 31.8465 20.2471C31.8465 20.2471 31.8461 20.247 31.846 20.2469C31.7998 20.2331 31.7533 20.22 31.7067 20.2073C31.7067 20.2073 31.7064 20.2073 31.7063 20.2072C31.6685 20.197 31.6307 20.187 31.5926 20.1776C31.5926 20.1776 31.5922 20.1775 31.5921 20.1774C31.5438 20.1654 31.4951 20.1544 31.4464 20.1437L31.4462 20.1436L31.4385 20.1419C31.4036 20.1343 31.3688 20.1267 31.3338 20.1198L31.3329 20.1196C31.2817 20.1095 31.2301 20.1006 31.1785 20.0919L31.1778 20.0918L31.1775 20.0918L31.1538 20.0878C31.1256 20.0829 31.0973 20.0782 31.0689 20.074L31.0687 20.074C31.0138 20.0658 30.9583 20.0593 30.9029 20.0528C30.9028 20.0528 30.9028 20.0528 30.9028 20.0528L30.8783 20.0498C30.8529 20.0466 30.8274 20.0436 30.8018 20.041L30.8012 20.0409C30.7384 20.0348 30.6751 20.0304 30.6117 20.0264C30.6114 20.0264 30.6112 20.0264 30.6109 20.0263L30.5924 20.025C30.572 20.0234 30.5515 20.0219 30.5309 20.0208C30.5306 20.0208 30.5304 20.0208 30.5301 20.0208C30.5301 20.0208 30.5298 20.0208 30.5297 20.0208C30.3396 20.0115 30.1686 20.0115 29.9781 20.0208L29.9777 20.0208C29.9775 20.0208 29.9773 20.0208 29.9771 20.0208C29.9567 20.0219 29.9364 20.0233 29.9162 20.0249L29.8979 20.0263C29.8345 20.0303 29.7711 20.0347 29.7084 20.0408C29.708 20.0408 29.7077 20.0408 29.7077 20.0408C29.707 20.0409 29.7068 20.0409 29.7068 20.0409C29.7068 20.0409 29.7063 20.041 29.7063 20.041L29.7061 20.041C29.6807 20.0435 29.6555 20.0465 29.6304 20.0497L29.6053 20.0527C29.5497 20.0591 29.494 20.0658 29.4389 20.074H29.4388L29.4386 20.074C29.41 20.0782 29.3817 20.083 29.3534 20.0878L29.3296 20.0919L29.3294 20.0919C29.3294 20.0919 29.3293 20.0919 29.3291 20.0919C29.2776 20.1006 29.2262 20.1095 29.1751 20.1196C29.1751 20.1196 29.175 20.1196 29.175 20.1196C29.1408 20.1263 29.1069 20.1337 29.073 20.1412L29.0619 20.1435L29.0617 20.1436C29.0617 20.1436 29.0614 20.1436 29.0612 20.1437C29.0125 20.1544 28.9639 20.1654 28.9158 20.1774C28.8776 20.1868 28.8395 20.197 28.8015 20.2072C28.8011 20.2073 28.8007 20.2074 28.8004 20.2075L28.7995 20.2077C28.7536 20.2203 28.7078 20.2332 28.6623 20.2468L28.6613 20.247C28.6225 20.2587 28.5838 20.2707 28.5454 20.2832L28.5452 20.2833H28.5451C28.5008 20.2976 28.4567 20.3125 28.4128 20.3279C28.4127 20.328 28.4125 20.3281 28.4124 20.3281C28.3732 20.342 28.3343 20.3559 28.2956 20.3705L28.2953 20.3706C28.2535 20.3864 28.2119 20.403 28.1705 20.4198C28.1704 20.4198 28.1704 20.4198 28.1704 20.4198L28.1701 20.4199C28.1308 20.4359 28.0916 20.4519 28.0528 20.4687C28.0528 20.4687 28.0524 20.4688 28.0522 20.4689L28.0515 20.4692V20.4693H28.0514C28.0141 20.4855 27.9771 20.5024 27.9402 20.5194L27.9403 20.5197C27.9383 20.5206 27.9362 20.5212 27.9342 20.5222L27.9213 20.5281C27.886 20.5444 27.8508 20.5607 27.8158 20.5778C27.8158 20.5778 27.8157 20.5779 27.8156 20.5779L27.8153 20.5781C27.8148 20.5783 27.8144 20.5785 27.8139 20.5787C27.8135 20.5789 27.8132 20.5791 27.8128 20.5793C27.7845 20.5932 27.7565 20.6076 27.7286 20.6221L27.7072 20.6332C27.7069 20.6334 27.7067 20.6335 27.7065 20.6336C27.7065 20.6336 27.7063 20.6337 27.7061 20.6338L27.6848 20.6448C27.6511 20.6622 27.6174 20.6797 27.5842 20.698C27.584 20.6981 27.5838 20.6982 27.5838 20.6982C27.56 20.7113 27.5368 20.7247 27.5137 20.7382L27.4919 20.7509L27.4918 20.7509L27.4705 20.7631C27.4335 20.7843 27.3964 20.8057 27.36 20.828C27.3599 20.8281 27.3597 20.8282 27.3597 20.8282C27.3594 20.8284 27.3592 20.8285 27.3592 20.8285C27.3589 20.8287 27.3587 20.8288 27.3587 20.8288C27.3584 20.829 27.3583 20.829 27.3583 20.829C27.3456 20.8369 27.333 20.8449 27.3156 20.8563C27.2859 20.8749 27.2567 20.8942 27.2273 20.9134C27.2101 20.9246 27.1928 20.9354 27.1757 20.9468C27.1486 20.9648 27.1221 20.9836 27.0955 21.0021C27.0766 21.0151 27.0575 21.0278 27.0389 21.0411C26.9627 21.0953 26.8886 21.1516 26.816 21.209C26.803 21.2193 26.7897 21.2292 26.7768 21.2396C26.7766 21.2398 26.7764 21.2399 26.7764 21.2399C26.7673 21.247 26.7583 21.254 26.7496 21.2612C26.7489 21.2617 26.7484 21.2623 26.7478 21.2628C26.697 21.3042 26.6476 21.3469 26.5983 21.3899C26.5983 21.3899 26.598 21.3902 26.5978 21.3904C26.5978 21.3904 26.5975 21.3906 26.5973 21.3907L26.5596 21.4236C26.5594 21.4237 26.5593 21.4239 26.5593 21.4239C26.5593 21.4239 26.559 21.4242 26.5589 21.4242C26.5106 21.4674 26.4635 21.5117 26.4167 21.5565C26.4167 21.5565 26.4166 21.5566 26.4166 21.5566L26.3753 21.5961C26.3753 21.5961 26.3749 21.5965 26.3748 21.5967C26.3288 21.6416 26.284 21.6875 26.2396 21.734L26.2395 21.7342L26.2023 21.7732C26.2019 21.7736 26.2016 21.774 26.2012 21.7744C26.2008 21.7749 26.2003 21.7752 26.1999 21.7757C26.1561 21.8227 26.1131 21.8707 26.0709 21.9192C26.0709 21.9192 26.0705 21.9195 26.0703 21.9197L26.0693 21.9209C26.0693 21.9209 26.0691 21.9211 26.0691 21.9212L26.069 21.9213L26.0346 21.9609C26.0342 21.9614 26.0339 21.9619 26.0336 21.9623C25.9904 22.0129 25.9482 22.0642 25.9068 22.1162L25.9066 22.1165C25.9065 22.1167 25.9063 22.1168 25.9063 22.1168L25.8789 22.1517L25.8786 22.152C25.8358 22.207 25.7938 22.2627 25.753 22.3193C25.753 22.3193 25.7529 22.3196 25.7528 22.3197L25.7524 22.3201L25.7339 22.3462L25.7337 22.3464C25.7336 22.3466 25.7334 22.3468 25.7334 22.3468L25.7327 22.3479C25.7327 22.3479 25.7325 22.3482 25.7324 22.3484C25.6916 22.4056 25.6519 22.4636 25.6133 22.5225C25.6129 22.523 25.6124 22.5235 25.6121 22.5241C25.6116 22.5248 25.6105 22.5264 25.6098 22.5275C25.6094 22.5282 25.6089 22.5288 25.6085 22.5295C25.6083 22.5297 25.6082 22.53 25.608 22.5302C25.6054 22.5343 25.6025 22.5389 25.6004 22.5421L25.6003 22.5422C25.6003 22.5422 25.5998 22.5428 25.5996 22.5432C25.2616 23.0634 25.0179 23.6247 24.8709 24.218H21.8823C21.5613 24.218 21.3001 23.9568 21.3001 23.6358ZM27.7005 22.4256L27.7004 22.4257L27.7005 22.4257L27.7005 22.4256ZM30.2538 29.6071C28.0235 29.6071 26.209 27.7925 26.209 25.5622C26.209 25.3999 26.2195 25.2359 26.2412 25.0607V25.0605C26.3108 24.4976 26.4949 23.9683 26.7862 23.4838C26.8106 23.4432 26.8344 23.4023 26.8604 23.3624C26.8604 23.3624 26.8606 23.3618 26.8608 23.3616C26.8627 23.3586 26.8648 23.3554 26.8665 23.3529L26.8665 23.3528L26.8666 23.3527C26.8961 23.3076 26.9265 23.2632 26.9578 23.2195C26.958 23.2192 26.9581 23.2188 26.9581 23.2188C26.9585 23.2183 26.9587 23.2182 26.9587 23.2182L26.9725 23.1987C27.0023 23.1573 27.0331 23.1166 27.0644 23.0764L27.0646 23.0761L27.0647 23.076L27.0851 23.0501C27.1153 23.0121 27.146 22.9746 27.1777 22.9376V22.9376C27.1777 22.9376 27.1781 22.9372 27.1782 22.937L27.202 22.9095L27.2026 22.9087C27.2028 22.9085 27.203 22.9083 27.2033 22.9081C27.2346 22.8721 27.2664 22.8366 27.299 22.8017L27.3267 22.7726L27.3268 22.7724C27.3268 22.7724 27.3271 22.7722 27.3272 22.7721C27.3598 22.738 27.3927 22.7041 27.4264 22.6711L27.4266 22.6709L27.4566 22.6423V22.6423L27.457 22.642C27.4908 22.6095 27.5249 22.5773 27.5599 22.546L27.56 22.546L27.5888 22.521C27.5888 22.521 27.589 22.5209 27.5891 22.5208C27.6252 22.4891 27.6616 22.4575 27.6989 22.4271L27.7173 22.4125L27.7175 22.4124C27.7177 22.4122 27.7179 22.4121 27.7179 22.4121C27.7805 22.3616 27.845 22.3128 27.9109 22.2659C27.9768 22.219 28.0444 22.1738 28.1134 22.1306C28.1138 22.1303 28.1141 22.1301 28.1145 22.1298L28.1436 22.1111C28.1437 22.111 28.1439 22.1108 28.1441 22.1107C28.1441 22.1107 28.1444 22.1106 28.1446 22.1105C28.1687 22.0957 28.1934 22.0817 28.218 22.0676L28.2417 22.054H28.2417L28.2714 22.0367C28.2835 22.0297 28.2955 22.0226 28.3078 22.0158L28.3081 22.0156C28.33 22.0037 28.3522 21.9923 28.3743 21.9809L28.397 21.9691C28.397 21.9691 28.3971 21.9691 28.3971 21.9691L28.4224 21.956C28.4399 21.9468 28.4575 21.9376 28.4752 21.9289C28.4755 21.9288 28.4757 21.9286 28.476 21.9285C28.4763 21.9283 28.4766 21.9282 28.4769 21.9281C28.5009 21.9163 28.5253 21.9051 28.5496 21.894L28.5633 21.8877C28.5655 21.8867 28.5675 21.8854 28.5696 21.8844L28.5698 21.8847C28.596 21.8726 28.6222 21.8605 28.6489 21.8489L28.6494 21.8487C28.6494 21.8487 28.6495 21.8486 28.6495 21.8486C28.6778 21.8364 28.7062 21.8249 28.7348 21.8133C28.7651 21.801 28.7957 21.7888 28.8264 21.7772L28.8265 21.7771C28.8547 21.7665 28.883 21.7564 28.9114 21.7464C28.9114 21.7464 28.9116 21.7463 28.9118 21.7463C28.9435 21.7351 28.9755 21.7242 29.0076 21.7138C29.0359 21.7047 29.0643 21.6958 29.0929 21.6873C29.0929 21.6873 29.0932 21.6871 29.0934 21.6871C29.1265 21.6772 29.1598 21.6679 29.1932 21.6587C29.2212 21.6512 29.2492 21.6437 29.2774 21.6367C29.3128 21.6279 29.3484 21.6199 29.3842 21.6121L29.3845 21.612L29.3951 21.6097C29.4186 21.6045 29.4421 21.5993 29.4658 21.5947L29.4658 21.5946C29.4659 21.5946 29.466 21.5946 29.466 21.5946C29.5032 21.5873 29.5407 21.5809 29.5783 21.5746L29.6067 21.5698C29.6239 21.5669 29.6411 21.5639 29.6584 21.5613C29.6983 21.5554 29.7386 21.5508 29.7789 21.5461L29.8154 21.5417C29.8278 21.5401 29.8403 21.5385 29.8528 21.5373C29.853 21.5373 29.8532 21.5372 29.8532 21.5372C29.8535 21.5372 29.8537 21.5372 29.8537 21.5372C29.8998 21.5326 29.9461 21.5297 29.9926 21.5268L30.0527 21.5224C30.191 21.5156 30.3164 21.5156 30.4548 21.5224H30.4548L30.513 21.5267C30.5134 21.5267 30.5138 21.5267 30.5142 21.5267C30.5144 21.5267 30.5146 21.5268 30.5148 21.5268C30.5615 21.5297 30.6081 21.5326 30.6542 21.5372H30.6546H30.6548C30.6676 21.5385 30.6803 21.5402 30.6931 21.5418L30.7278 21.546L30.728 21.546H30.7281C30.7687 21.5508 30.8093 21.5554 30.8495 21.5613H30.8495L30.8497 21.5614C30.867 21.5639 30.884 21.5669 30.9011 21.5698L30.9286 21.5744C30.9286 21.5744 30.9288 21.5745 30.9288 21.5745C30.9667 21.5809 31.0043 21.5873 31.0417 21.5946H31.0419L31.0422 21.5947C31.0667 21.5995 31.0909 21.6049 31.1152 21.6103L31.1232 21.612L31.1235 21.6121L31.1237 21.6122C31.1594 21.6199 31.195 21.628 31.2305 21.6367L31.2308 21.6368H31.2308C31.2587 21.6437 31.2863 21.6511 31.3138 21.6586C31.314 21.6586 31.3141 21.6586 31.3141 21.6586C31.3481 21.6679 31.3819 21.6774 31.4156 21.6875H31.4158C31.4437 21.6959 31.4716 21.7046 31.4993 21.7135C31.4994 21.7136 31.4995 21.7136 31.4995 21.7136C31.5318 21.724 31.5637 21.7349 31.5954 21.7461C31.5957 21.7462 31.596 21.7463 31.5964 21.7464L31.5971 21.7467C31.6251 21.7565 31.6531 21.7665 31.6809 21.777C31.681 21.7771 31.6811 21.7771 31.6811 21.7771C31.7119 21.7887 31.7422 21.8008 31.7723 21.8131C31.7723 21.8131 31.7728 21.8133 31.7731 21.8134C31.8016 21.8249 31.83 21.8364 31.8581 21.8486L31.8584 21.8487C31.8584 21.8487 31.8585 21.8487 31.8585 21.8488C31.8873 21.8612 31.9155 21.8744 31.9439 21.8875L31.9443 21.8876C31.9445 21.8877 31.9446 21.8878 31.9446 21.8878L31.9568 21.8934C31.9816 21.9048 32.0064 21.9162 32.0309 21.9281L32.0311 21.9282C32.0504 21.9377 32.0694 21.9476 32.0885 21.9576L32.1104 21.9689C32.1105 21.969 32.1106 21.969 32.1106 21.969L32.1336 21.981C32.1556 21.9923 32.1778 22.0037 32.1994 22.0156L32.1999 22.0158L32.2 22.0159C32.2122 22.0226 32.224 22.0296 32.236 22.0366L32.2668 22.0544L32.2668 22.0545L32.2908 22.0682C32.3146 22.0819 32.3384 22.0954 32.3619 22.1097L32.3957 22.1315C32.3958 22.1315 32.3959 22.1316 32.3959 22.1316C32.5324 22.217 32.6649 22.3113 32.7897 22.412C32.7901 22.4123 32.7904 22.4125 32.7908 22.4128L32.8081 22.4265C32.8457 22.4571 32.8823 22.4889 32.9187 22.5208C32.9187 22.5208 32.9188 22.5209 32.9189 22.521L32.9477 22.5459C32.9477 22.5459 32.9479 22.546 32.948 22.5461C32.9829 22.5774 33.0169 22.6096 33.0508 22.642L33.0816 22.6714C33.1152 22.7042 33.1478 22.7378 33.1802 22.7718L33.1803 22.7718L33.2092 22.8022C33.2418 22.8371 33.2737 22.8726 33.305 22.9086C33.306 22.9098 33.3072 22.9108 33.3082 22.912L33.308 22.9122L33.3284 22.9358C33.3287 22.9361 33.3291 22.9364 33.3294 22.9368C33.3296 22.937 33.3298 22.9373 33.33 22.9375C33.3615 22.9744 33.3923 23.0119 33.4225 23.0499L33.4428 23.0757L33.443 23.0759L33.4435 23.0767C33.4751 23.1171 33.506 23.1581 33.536 23.1997L33.5362 23.2L33.5472 23.2155C33.5475 23.216 33.548 23.2164 33.5483 23.2169C33.5487 23.2176 33.5491 23.2183 33.5496 23.219C33.5807 23.2625 33.6109 23.3066 33.6403 23.3513C33.6422 23.3544 33.6444 23.3577 33.6466 23.3611C33.6468 23.3614 33.6469 23.3617 33.6469 23.3617C33.6721 23.4005 33.6949 23.4398 33.7185 23.4788C33.9707 23.8968 34.1431 24.3483 34.2304 24.8263C34.2446 24.9039 34.2568 24.9822 34.2665 25.0613V25.0613C34.2882 25.2366 34.2987 25.4004 34.2987 25.5622C34.2987 27.7925 32.4842 29.6071 30.2538 29.6071ZM56.4489 29.6071C54.2186 29.6071 52.4041 27.7925 52.4041 25.5622C52.4041 25.4008 52.4146 25.2371 52.4362 25.0619L52.4362 25.0617C52.5115 24.451 52.7199 23.8792 53.0556 23.3622C53.0561 23.3615 53.0564 23.3608 53.0568 23.3601C53.0571 23.3596 53.0576 23.3592 53.0579 23.3586L53.0577 23.3585C53.0583 23.3577 53.0587 23.3568 53.0593 23.3559C53.06 23.3547 53.0609 23.3538 53.0617 23.3527C53.0912 23.3076 53.1216 23.2632 53.1529 23.2195C53.1531 23.2192 53.1533 23.2188 53.1535 23.2185C53.1537 23.2183 53.1538 23.2182 53.1538 23.2182L53.1678 23.1985C53.1975 23.1574 53.2279 23.1169 53.259 23.077V23.077C53.259 23.077 53.2592 23.0768 53.2593 23.0768L53.28 23.0504L53.2801 23.0503C53.3103 23.0121 53.3412 22.9745 53.3728 22.9376C53.3728 22.9376 53.3729 22.9374 53.373 22.9373C53.3733 22.937 53.3735 22.9368 53.3737 22.9365L53.3947 22.9124C53.3947 22.9124 53.3978 22.9087 53.3979 22.9087C53.398 22.9085 53.3981 22.9083 53.3981 22.9083C53.3984 22.9081 53.3985 22.908 53.3985 22.908C53.4298 22.8719 53.4616 22.8363 53.4942 22.8015L53.5211 22.7734C53.5211 22.7734 53.5216 22.7727 53.522 22.7724C53.5223 22.7721 53.5227 22.7718 53.5231 22.7714C53.5555 22.7374 53.5882 22.7037 53.6218 22.6709L53.652 22.6421L53.6521 22.642C53.6863 22.6093 53.7206 22.5768 53.7559 22.5453L53.7559 22.5452C53.7559 22.5452 53.7561 22.5451 53.7561 22.5451L53.7848 22.5203L53.7849 22.5202C53.8214 22.4883 53.858 22.4564 53.8956 22.4258L53.9144 22.411C53.9763 22.3611 54.0401 22.3127 54.1054 22.2663C54.1707 22.2198 54.2376 22.1751 54.3056 22.1324L54.3407 22.1099C54.3636 22.0958 54.3872 22.0824 54.4107 22.069L54.4363 22.0543C54.4364 22.0542 54.4366 22.0541 54.4366 22.0541L54.4671 22.0364C54.4789 22.0295 54.4907 22.0226 54.5027 22.0159C54.5029 22.0159 54.503 22.0158 54.503 22.0158C54.5032 22.0156 54.5033 22.0156 54.5033 22.0156C54.5255 22.0034 54.548 21.9919 54.5704 21.9803L54.5923 21.969C54.5924 21.969 54.5926 21.9689 54.5926 21.9689C54.5926 21.9689 54.5928 21.9687 54.593 21.9687L54.611 21.9593C54.6311 21.9489 54.6513 21.9383 54.6718 21.9282C54.6957 21.9165 54.7199 21.9054 54.7442 21.8943L54.7581 21.8878L54.7582 21.8877C54.787 21.8745 54.8157 21.8611 54.8449 21.8485C54.873 21.8364 54.9013 21.8249 54.9296 21.8134C54.9299 21.8133 54.9302 21.8133 54.9302 21.8133C54.9605 21.8009 54.9907 21.7888 55.0211 21.7774C55.0211 21.7774 55.0214 21.7773 55.0215 21.7772L55.0216 21.7772C55.0496 21.7666 55.0779 21.7565 55.1062 21.7465C55.1064 21.7465 55.1065 21.7464 55.1065 21.7464C55.1068 21.7463 55.1069 21.7463 55.1069 21.7463C55.1388 21.7351 55.1704 21.7242 55.2025 21.7139L55.2028 21.7138C55.2032 21.7137 55.2035 21.7136 55.2035 21.7136C55.2316 21.7045 55.2595 21.6958 55.2874 21.6874L55.2876 21.6873C55.3214 21.6772 55.3554 21.6677 55.3896 21.6584L55.3898 21.6583C55.4172 21.651 55.4445 21.6436 55.4721 21.6368C55.4722 21.6368 55.4722 21.6367 55.4722 21.6367C55.4725 21.6367 55.4726 21.6367 55.4726 21.6367C55.5078 21.628 55.5431 21.62 55.5784 21.6123L55.5947 21.6087C55.6167 21.6039 55.6388 21.599 55.6611 21.5946L55.6613 21.5945C55.6984 21.5872 55.736 21.5809 55.7734 21.5746L55.7739 21.5745L55.8003 21.5701C55.8178 21.5671 55.8355 21.564 55.8531 21.5614H55.8533L55.8536 21.5613C55.8937 21.5554 55.9342 21.5507 55.9747 21.546C55.9749 21.546 55.975 21.546 55.9752 21.5459L56.01 21.5417C56.0226 21.5402 56.0352 21.5385 56.0479 21.5373C56.0481 21.5373 56.0483 21.5372 56.0485 21.5372H56.0489C56.0948 21.5326 56.1412 21.5297 56.1877 21.5267H56.1881L56.2479 21.5224H56.2479C56.3864 21.5156 56.5117 21.5156 56.6501 21.5224H56.6501L56.7097 21.5267H56.7098C56.7099 21.5267 56.71 21.5268 56.71 21.5268C56.7567 21.5297 56.8031 21.5326 56.8492 21.5372H56.8498H56.8499C56.8627 21.5385 56.8755 21.5402 56.8883 21.5418L56.9233 21.546C56.9233 21.546 56.9234 21.546 56.9234 21.546C56.964 21.5508 57.0045 21.5554 57.0447 21.5613H57.0447L57.0448 21.5614C57.0621 21.5639 57.0791 21.5669 57.0962 21.5698L57.1237 21.5744L57.124 21.5745C57.1617 21.5808 57.1993 21.5872 57.2366 21.5945C57.2366 21.5945 57.237 21.5947 57.2371 21.5947C57.2616 21.5995 57.2859 21.6049 57.3102 21.6102L57.3183 21.612C57.3184 21.6121 57.3185 21.6121 57.3185 21.6121L57.3188 21.6122C57.3546 21.6199 57.3903 21.628 57.4256 21.6367C57.4535 21.6436 57.4813 21.6511 57.5089 21.6586L57.5093 21.6587C57.5432 21.6678 57.577 21.6773 57.6104 21.6873C57.6386 21.6959 57.6669 21.7046 57.6948 21.7137C57.7271 21.7241 57.7591 21.735 57.791 21.7462L57.7914 21.7463C57.7914 21.7463 57.7917 21.7465 57.7918 21.7465C57.8201 21.7565 57.8484 21.7666 57.8765 21.7772L57.8769 21.7774C57.9075 21.7889 57.9378 21.801 57.968 21.8133C57.9682 21.8134 57.9683 21.8134 57.9683 21.8134C57.9968 21.825 58.0252 21.8364 58.0532 21.8486L58.0535 21.8487C58.0535 21.8487 58.0536 21.8487 58.0536 21.8487C58.0823 21.8612 58.1106 21.8744 58.139 21.8875C58.139 21.8875 58.1396 21.8877 58.1398 21.8878C58.14 21.8879 58.1402 21.888 58.1404 21.8881L58.1496 21.8923C58.1753 21.9041 58.201 21.9159 58.2263 21.9283C58.2457 21.9378 58.2647 21.9477 58.2838 21.9577L58.3056 21.969H58.3057L58.3061 21.9693L58.3233 21.9781C58.3473 21.9905 58.3713 22.0028 58.3949 22.0158C58.4071 22.0225 58.4189 22.0294 58.4309 22.0364L58.4622 22.0546C58.4622 22.0546 58.4625 22.0547 58.4626 22.0548L58.4841 22.0671C58.5087 22.0812 58.5333 22.0952 58.5574 22.11L58.5886 22.1301C58.589 22.1304 58.5895 22.1305 58.5899 22.1308C58.5905 22.1312 58.591 22.1316 58.5915 22.1319C58.7274 22.217 58.8596 22.3111 58.9845 22.4117C58.9849 22.412 58.9853 22.4123 58.9857 22.4126L59.0028 22.4261C59.0403 22.4566 59.0767 22.4883 59.113 22.5201C59.113 22.5201 59.1137 22.5207 59.114 22.5209C59.114 22.5209 59.1143 22.5213 59.1145 22.5215L59.1431 22.5461C59.1779 22.5772 59.2119 22.6094 59.2456 22.6417C59.2459 22.642 59.2462 22.6422 59.2465 22.6425C59.2468 22.6428 59.2471 22.6431 59.2474 22.6434L59.2754 22.67L59.2755 22.6701C59.2758 22.6704 59.2759 22.6706 59.2762 22.6708C59.31 22.7039 59.343 22.7378 59.3757 22.7721L59.3761 22.7725C59.3761 22.7726 59.3762 22.7726 59.3762 22.7726L59.4032 22.8009C59.4033 22.801 59.4034 22.8012 59.4034 22.8012C59.4365 22.8365 59.4686 22.8725 59.5004 22.9088V22.9089C59.5004 22.9089 59.5005 22.909 59.5005 22.909L59.5245 22.9368L59.5247 22.937C59.5566 22.9743 59.5879 23.0123 59.6184 23.0509C59.6184 23.0509 59.6187 23.0512 59.6188 23.0514L59.638 23.0758C59.6382 23.076 59.6384 23.0763 59.6385 23.0765C59.6701 23.1169 59.7009 23.1578 59.731 23.1995V23.1995L59.7311 23.1996L59.7441 23.2179C59.7442 23.2181 59.7443 23.2183 59.7445 23.2185C59.7758 23.2625 59.8065 23.3071 59.8361 23.3525C59.8363 23.3528 59.8365 23.3531 59.8367 23.3534C59.8374 23.3545 59.8384 23.3556 59.8392 23.3568C59.8402 23.3583 59.8409 23.3599 59.8419 23.3614C60.1779 23.8787 60.3864 24.4508 60.4618 25.0618C60.4618 25.0618 60.4618 25.0619 60.4618 25.062C60.4834 25.2372 60.4939 25.4008 60.4939 25.5622C60.4939 27.7925 58.6793 29.6071 56.4489 29.6071ZM64.498 23.6358C64.498 23.9568 64.2368 24.218 63.9158 24.218H61.8319C61.6855 23.6273 61.4433 23.0685 61.1076 22.5502C61.1074 22.5499 61.1072 22.5496 61.107 22.5493L61.1039 22.5444C61.1034 22.5437 61.1031 22.543 61.1026 22.5424L61.1026 22.5423L61.1025 22.5422L61.1023 22.5419L61.095 22.5307C61.0949 22.5305 61.0949 22.5302 61.0947 22.53C61.0945 22.5297 61.0943 22.5295 61.0943 22.5295L61.0931 22.5276C61.0928 22.5271 61.0924 22.5267 61.0921 22.5263C61.0523 22.4653 61.0112 22.4053 60.969 22.3461C60.9686 22.3456 60.9682 22.3452 60.9679 22.3447C60.9676 22.3444 60.9674 22.344 60.9672 22.3436L60.95 22.3196L60.9499 22.3194C60.9088 22.2625 60.8667 22.2065 60.8237 22.1513C60.8235 22.151 60.8232 22.1508 60.8232 22.1508L60.797 22.1174L60.7965 22.1168C60.7545 22.0639 60.7116 22.0117 60.6678 21.9604C60.6676 21.9602 60.6674 21.96 60.6673 21.9598C60.6673 21.9598 60.6672 21.9596 60.667 21.9595L60.6335 21.9209C60.6335 21.9209 60.6333 21.9207 60.6333 21.9206C60.5904 21.8714 60.5469 21.8228 60.5025 21.7752C60.5025 21.7752 60.5021 21.7748 60.5019 21.7746L60.4638 21.7347C60.4638 21.7347 60.4637 21.7345 60.4636 21.7344C60.4189 21.6875 60.3737 21.6412 60.3274 21.5959C60.3271 21.5956 60.3268 21.5954 60.3265 21.5951C60.316 21.5848 60.3052 21.5745 60.2943 21.5643L60.285 21.5554C60.285 21.5554 60.2845 21.555 60.2842 21.5547C60.2382 21.5106 60.1917 21.4668 60.144 21.4243C60.1438 21.4241 60.1436 21.4239 60.1433 21.4237L60.1425 21.4229C60.1325 21.4139 60.1223 21.4052 60.1121 21.3965L60.1051 21.3904C60.1049 21.3903 60.1048 21.3902 60.1048 21.3902L60.1035 21.3891L60.1034 21.389C60.0536 21.3454 60.0035 21.3021 59.9523 21.2603C59.9516 21.2598 59.9508 21.2593 59.9502 21.2587C59.9496 21.2583 59.9492 21.2578 59.9486 21.2574L59.926 21.2395C59.9259 21.2395 59.9257 21.2394 59.9257 21.2394C59.7565 21.1032 59.5776 20.9758 59.3936 20.8604C59.3931 20.8601 59.3926 20.8597 59.3921 20.8593L59.3852 20.8549C59.3716 20.8461 59.358 20.8373 59.3443 20.8289C59.3443 20.8289 59.3441 20.8288 59.3441 20.8287C59.3441 20.8287 59.3439 20.8287 59.3439 20.8286C59.3439 20.8286 59.3434 20.8283 59.3432 20.8282C59.3432 20.8282 59.3427 20.8279 59.3424 20.8278C59.3058 20.8053 59.2686 20.7839 59.2313 20.7625L59.2118 20.7514C59.2116 20.7513 59.2115 20.7511 59.2115 20.7511L59.1885 20.7378C59.1657 20.7245 59.1429 20.7113 59.1197 20.6984C59.1197 20.6984 59.1195 20.6984 59.1194 20.6983L59.1191 20.6981C59.0837 20.6787 59.0479 20.6602 59.0121 20.6417L58.9962 20.6335L58.9958 20.6333L58.9774 20.6238C58.9479 20.6084 58.9184 20.5931 58.8885 20.5785L58.8884 20.5784C58.8884 20.5784 58.8883 20.5784 58.8882 20.5784C58.8516 20.5604 58.8143 20.5432 58.7771 20.5261L58.7699 20.5228C58.7699 20.5228 58.7698 20.5227 58.7697 20.5227C58.7305 20.5046 58.6912 20.4865 58.6514 20.4693C58.6514 20.4693 58.6512 20.4692 58.6511 20.4692C58.6509 20.469 58.6508 20.469 58.6508 20.469L58.6506 20.4689C58.6119 20.4521 58.5728 20.4362 58.5335 20.4203C58.5334 20.4202 58.5332 20.4201 58.5332 20.4201C58.491 20.403 58.4491 20.3863 58.4066 20.3703C58.4066 20.3703 58.4063 20.3702 58.4061 20.3701C58.3675 20.3556 58.3287 20.3416 58.2898 20.3279C58.2898 20.3279 58.2895 20.3278 58.2894 20.3278C58.2458 20.3124 58.202 20.2976 58.158 20.2833L58.1578 20.2833C58.1577 20.2833 58.1576 20.2832 58.1576 20.2832C58.1192 20.2708 58.0808 20.2588 58.0421 20.2472C58.042 20.2472 58.0419 20.2472 58.0419 20.2472C58.0419 20.2472 58.0416 20.247 58.0415 20.247C57.9952 20.2332 57.9486 20.22 57.9018 20.2073C57.9018 20.2073 57.9016 20.2073 57.9015 20.2072C57.8635 20.197 57.8255 20.1868 57.7872 20.1774C57.739 20.1654 57.6902 20.1544 57.6415 20.1437L57.6413 20.1436L57.6335 20.1419C57.5985 20.1342 57.5635 20.1266 57.5283 20.1196L57.528 20.1196C57.4769 20.1095 57.4252 20.1006 57.3736 20.0919L57.3729 20.0918C57.3729 20.0918 57.3727 20.0918 57.3727 20.0918L57.3489 20.0878C57.3207 20.0829 57.2924 20.0782 57.2641 20.074L57.2638 20.074C57.2089 20.0658 57.1536 20.0593 57.0982 20.0528L57.0977 20.0527L57.0731 20.0497C57.048 20.0466 57.0228 20.0436 56.9975 20.0411C56.9975 20.0411 56.9968 20.041 56.9965 20.0409C56.9328 20.0347 56.8687 20.0303 56.8045 20.0262H56.8044L56.7866 20.0249C56.7664 20.0233 56.7463 20.0219 56.7259 20.0208C56.7257 20.0208 56.7254 20.0208 56.7252 20.0208L56.7248 20.0208C56.5359 20.0115 56.3622 20.0115 56.1732 20.0208C56.1731 20.0208 56.1729 20.0208 56.1729 20.0208C56.1726 20.0208 56.1724 20.0208 56.1724 20.0208C56.1519 20.0219 56.1318 20.0233 56.1116 20.0249L56.0931 20.0263L56.0926 20.0263C56.0294 20.0303 55.9662 20.0347 55.9037 20.0408C55.9032 20.0408 55.9028 20.0408 55.9024 20.0409C55.8765 20.0434 55.8508 20.0465 55.8251 20.0497L55.8007 20.0527C55.8005 20.0527 55.8004 20.0527 55.8004 20.0527C55.7445 20.0593 55.6887 20.0659 55.6336 20.074C55.6334 20.0741 55.6332 20.0741 55.6332 20.0741C55.6043 20.0784 55.5758 20.0832 55.5472 20.088L55.5247 20.0919L55.5243 20.0919C55.4729 20.1005 55.4215 20.1095 55.3706 20.1195C55.3704 20.1195 55.3703 20.1195 55.3703 20.1195C55.3375 20.126 55.3051 20.133 55.2728 20.1401L55.2577 20.1434C55.2576 20.1434 55.2574 20.1435 55.2572 20.1435C55.2572 20.1435 55.2569 20.1436 55.2568 20.1436C55.2079 20.1544 55.1589 20.1654 55.1105 20.1775L55.1099 20.1777C55.072 20.1871 55.0341 20.1971 54.9964 20.2073C54.9963 20.2073 54.9961 20.2073 54.996 20.2074L54.995 20.2076C54.9488 20.2202 54.9025 20.2333 54.8566 20.247L54.8561 20.2472C54.8172 20.2588 54.7783 20.2709 54.7397 20.2835C54.7394 20.2836 54.7391 20.2837 54.7391 20.2837C54.6951 20.2979 54.6519 20.3126 54.6087 20.3278L54.6082 20.3279C54.5694 20.3416 54.5305 20.3556 54.4919 20.3701L54.4914 20.3703C54.4487 20.3864 54.4065 20.4032 54.3645 20.4202C54.3641 20.4204 54.3638 20.4206 54.3634 20.4207C54.3246 20.4364 54.2858 20.4522 54.2476 20.4688C54.2476 20.4688 54.2473 20.4689 54.2472 20.469C54.2472 20.469 54.2468 20.4691 54.2466 20.4692C54.207 20.4864 54.1678 20.5044 54.1287 20.5225C54.1286 20.5225 54.1286 20.5225 54.1286 20.5225L54.1285 20.5226L54.1149 20.5288C54.0797 20.545 54.0445 20.5613 54.0098 20.5783C54.0098 20.5783 54.0097 20.5784 54.0097 20.5784L54.0096 20.5784C53.9785 20.5937 53.9477 20.6097 53.9169 20.6256L53.9006 20.6341L53.9004 20.6342L53.8815 20.644C53.8473 20.6616 53.8131 20.6794 53.7795 20.6979C53.7794 20.6979 53.7793 20.698 53.7793 20.698C53.779 20.6981 53.7789 20.6982 53.7789 20.6982C53.7789 20.6982 53.7785 20.6984 53.7784 20.6984L53.7781 20.6986C53.7549 20.7114 53.732 20.7246 53.7092 20.7379L53.6867 20.7511L53.6864 20.7512C53.6864 20.7512 53.686 20.7514 53.6859 20.7515L53.6631 20.7646C53.6271 20.7852 53.5912 20.8059 53.556 20.8275L53.555 20.828C53.5548 20.8282 53.5545 20.8283 53.5545 20.8283L53.5542 20.8285C53.5405 20.837 53.5269 20.8457 53.5135 20.8545L53.5082 20.8579L53.508 20.858H53.508C53.3684 20.9455 53.2318 21.0398 53.1003 21.1394C53.0853 21.1507 53.0707 21.1626 53.0558 21.1741C53.0282 21.1955 53.0003 21.2168 52.9731 21.2387C52.9728 21.239 52.9724 21.2392 52.9721 21.2395C52.9634 21.2462 52.9547 21.2531 52.9461 21.26C52.946 21.2602 52.9458 21.2602 52.9458 21.2602C52.8944 21.3022 52.8442 21.3455 52.7944 21.3891C52.7943 21.3892 52.7943 21.3892 52.7943 21.3892L52.7862 21.3962C52.7755 21.4054 52.7647 21.4147 52.7541 21.4241L52.7537 21.4245L52.7532 21.425L52.7529 21.4252C52.7528 21.4253 52.7527 21.4254 52.7527 21.4254C52.705 21.4681 52.6586 21.5118 52.6124 21.5559C52.6122 21.5562 52.6119 21.5565 52.6116 21.5568C52.6113 21.557 52.611 21.5573 52.6107 21.5576L52.5702 21.5963L52.5702 21.5963C52.5249 21.6407 52.4806 21.686 52.437 21.7318L52.4364 21.7324L52.4351 21.7337L52.4345 21.7343L52.4343 21.7346L52.3967 21.774C52.3967 21.774 52.3963 21.7745 52.3961 21.7747C52.3959 21.775 52.3955 21.7753 52.3952 21.7756C52.3507 21.8232 52.3071 21.8718 52.2643 21.9211C52.2638 21.9216 52.2635 21.9221 52.263 21.9226C52.2627 21.9229 52.2623 21.9233 52.262 21.9237L52.2291 21.9617C52.2287 21.9621 52.2284 21.9626 52.228 21.9631C52.1852 22.0133 52.1432 22.0643 52.1022 22.116C52.1021 22.1162 52.102 22.1162 52.102 22.1162L52.0741 22.1516L52.0741 22.1516C52.0311 22.2067 51.9892 22.2625 51.9483 22.3191C51.9482 22.3192 51.9481 22.3194 51.9481 22.3194C51.9479 22.3197 51.9477 22.3199 51.9477 22.3199L51.929 22.3462C51.929 22.3463 51.9289 22.3463 51.9289 22.3463C51.9287 22.3466 51.9286 22.3468 51.9284 22.347L51.9278 22.3479L51.9275 22.3484C51.8851 22.4079 51.8437 22.4682 51.8036 22.5295C51.8033 22.53 51.803 22.5305 51.8027 22.531C51.8024 22.5315 51.802 22.5319 51.8017 22.5324L51.7924 22.5469C51.7922 22.5472 51.7921 22.5476 51.7921 22.5476C51.7914 22.5487 51.7909 22.5495 51.7904 22.5502C51.4546 23.0685 51.2124 23.6273 51.0661 24.218H48.0562V6.68447H55.3823C60.4087 6.68447 64.498 10.7738 64.498 15.8003V23.6358Z" fill="#E91D25"/>
<path d="M16.7585 23.7686H8.7551H0.751704C0.336565 23.7686 0 24.1051 0 24.5203C0 24.9355 0.336565 25.272 0.751704 25.272H8.7551H16.7585C17.1736 25.272 17.5102 24.9355 17.5102 24.5203C17.5102 24.1051 17.1736 23.7686 16.7585 23.7686Z" fill="white"/>
<path d="M16.7585 17.7139H12.7569H8.75514H4.75347C4.33833 17.7139 4.00171 18.0504 4.00171 18.4656C4.00171 18.8808 4.33833 19.2173 4.75347 19.2173H8.75514H12.7569H16.7585C17.1737 19.2173 17.5103 18.8808 17.5103 18.4656C17.5103 18.0504 17.1737 17.7139 16.7585 17.7139Z" fill="white"/>
<path d="M16.7585 11.6597H8.75512C8.34 11.6597 8.00342 11.9962 8.00342 12.4114C8.00342 12.8266 8.34 13.1631 8.75512 13.1631H16.7585C17.1737 13.1631 17.5102 12.8266 17.5102 12.4114C17.5102 11.9962 17.1737 11.6597 16.7585 11.6597Z" fill="white"/>
</svg>
