<svg width="26" height="22" viewBox="0 0 26 22" fill="none" xmlns="http://www.w3.org/2000/svg">
<path d="M19.0938 4.476e-08C17.6829 4.476e-08 16.3894 0.428513 15.2493 1.27366C14.1562 2.08392 13.4284 3.11592 13 3.86635C12.5716 3.11587 11.8438 2.08392 10.7507 1.27366C9.61061 0.428513 8.31711 0 6.90625 0C2.96908 0 0 3.08667 0 7.17989C0 11.602 3.70414 14.6275 9.31171 19.2078C10.264 19.9856 11.3433 20.8672 12.4652 21.8076C12.6131 21.9317 12.803 22 13 22C13.197 22 13.387 21.9317 13.5348 21.8076C14.6568 20.8671 15.7361 19.9855 16.6889 19.2073C22.2959 14.6275 26 11.602 26 7.17989C26 3.08667 23.0309 4.476e-08 19.0938 4.476e-08Z" fill="#BEBEBE"/>
</svg>
