<svg width="20" height="24" viewBox="0 0 20 24" fill="none" xmlns="http://www.w3.org/2000/svg">
<path d="M4.20035 6.2313C4.20035 2.80271 6.80959 0 10.0015 0C13.1934 0 15.8027 2.80271 15.8027 6.2313C15.8027 9.65989 13.1934 12.4626 10.0015 12.4626C6.80959 12.4626 4.20035 9.65989 4.20035 6.2313ZM19.9573 17.4422C19.8052 17.034 19.6026 16.6531 19.3746 16.2993C18.2093 14.449 16.4107 13.2245 14.3841 12.9252C14.1308 12.898 13.8522 12.9523 13.6495 13.1156C12.5855 13.9592 11.3189 14.3945 10.0016 14.3945C8.68424 14.3945 7.41763 13.9592 6.35366 13.1156C6.15098 12.9523 5.87232 12.8707 5.61901 12.9252C3.5924 13.2245 1.76847 14.449 0.628515 16.2993C0.400523 16.6531 0.197845 17.0613 0.0458833 17.4422C-0.0300988 17.6055 -0.00478569 17.7959 0.0711935 17.9592C0.273872 18.3402 0.527174 18.7211 0.755166 19.0477C1.10981 19.5647 1.48981 20.0272 1.92048 20.4626C2.27512 20.8435 2.68044 21.1973 3.0858 21.551C5.08705 23.1565 7.49366 24 9.97626 24C12.4589 24 14.8655 23.1565 16.8667 21.551C17.272 21.2245 17.6773 20.8435 18.032 20.4626C18.4373 20.0272 18.8427 19.5646 19.1973 19.0477C19.4507 18.6939 19.6787 18.3402 19.8813 17.9592C20.0079 17.7959 20.0332 17.6054 19.9573 17.4422Z" fill="#BEBEBE"/>
</svg>
