<svg width="38" height="24" viewBox="0 0 38 24" fill="none" xmlns="http://www.w3.org/2000/svg">
<path d="M26.8793 22.8257L37.7938 11.9657C37.9286 11.8303 37.9915 11.6756 37.9915 11.5054C37.9915 11.3327 37.9273 11.1774 37.8066 11.0561L26.8793 0.185847C26.6302 -0.0625894 26.2296 -0.0619474 25.9818 0.187773C25.8637 0.307177 25.7982 0.466381 25.7982 0.636499C25.7982 0.806617 25.865 0.96518 25.9844 1.08394L35.8217 10.8712H0.634251C0.284386 10.8712 0 11.1556 0 11.5054C0 11.8553 0.284386 12.1397 0.634251 12.1397H35.8217L25.9844 21.9256C25.865 22.045 25.7982 22.2043 25.7982 22.375C25.7982 22.5445 25.8637 22.7037 25.9818 22.8231C26.2309 23.0709 26.6315 23.0735 26.8793 22.8257Z" fill="#EB0000"/>
</svg>
