<svg width="44" height="44" viewBox="0 0 44 44" fill="none" xmlns="http://www.w3.org/2000/svg">
<path d="M33.6875 0H10.3125C4.62619 0 0 4.62618 0 10.3125V33.6875C0 39.3738 4.62619 44 10.3125 44H33.6875C39.3738 44 44 39.3738 44 33.6875V10.3125C44 4.62618 39.3738 0 33.6875 0ZM40.5625 33.6875C40.5625 37.4784 37.4784 40.5625 33.6875 40.5625H10.3125C6.52163 40.5625 3.4375 37.4784 3.4375 33.6875V10.3125C3.4375 6.52163 6.52163 3.4375 10.3125 3.4375H33.6875C37.4784 3.4375 40.5625 6.52163 40.5625 10.3125V33.6875ZM23.7188 18.8203V31.9688C23.7188 32.918 22.9493 33.6875 22 33.6875C21.0507 33.6875 20.2812 32.918 20.2812 31.9688V18.8203C20.2812 17.871 21.0507 17.1016 22 17.1016C22.9493 17.1016 23.7188 17.871 23.7188 18.8203ZM24.1484 12.4609C24.1484 13.6475 23.1865 14.6094 22 14.6094C20.8135 14.6094 19.8516 13.6475 19.8516 12.4609C19.8516 11.2744 20.8135 10.3125 22 10.3125C23.1865 10.3125 24.1484 11.2744 24.1484 12.4609Z" fill="#D6D6D6"/>
</svg>
