<svg width="21" height="28" viewBox="0 0 21 28" fill="none" xmlns="http://www.w3.org/2000/svg">
<path d="M17.8775 16.1246L12.7302 15.0849V14.0024L12.873 13.9336C14.7959 13.0087 16.0382 11.0255 16.0382 8.88092V5.63525C15.7512 5.81219 15.4454 5.95502 15.1313 6.07611C14.9028 6.93335 14.4607 7.71497 13.8456 8.38495C13.8326 8.39917 13.8154 8.40778 13.8021 8.42175C14.0547 8.42511 14.3066 8.38385 14.5505 8.29578L14.8855 8.17468V8.88092C14.8855 11.323 12.9182 13.3098 10.5 13.3098C8.08179 13.3098 6.11444 11.323 6.11444 8.88092V8.1759L6.4494 8.29675C6.5556 8.33508 6.66376 8.36139 6.77246 8.38232C6.09296 7.70178 5.60986 6.77423 5.41113 5.81207C5.25964 5.76984 5.10852 5.72589 4.96179 5.66803V8.88092C4.96179 11.0255 6.20416 13.0087 8.12683 13.9336L8.26978 14.0024V15.0849L3.1225 16.1246C1.31317 16.49 0 18.1075 0 19.9709V27.9475H21V19.9709C21 18.1075 19.6868 16.49 17.8775 16.1246ZM9.42242 16.0392V14.375L9.70868 14.4164C10.2338 14.4927 10.7662 14.4927 11.2913 14.4164L11.5776 14.375V16.0392L13.1356 16.3539L13.0168 16.6395C12.5915 17.6608 11.6036 18.3206 10.5 18.3206C9.39642 18.3206 8.40851 17.6608 7.98315 16.6395L7.86438 16.3539L9.42242 16.0392ZM7.76843 18.3961L8.16962 18.7002C8.84601 19.2134 9.65192 19.4847 10.5 19.4847C11.3481 19.4847 12.154 19.2134 12.8304 18.7002L13.2316 18.3961V21.6613H7.76843V18.3961ZM3.30798 26.7835H1.15265V19.9709C1.15265 18.8056 1.8844 17.7606 2.97357 17.3708L3.30798 17.251V26.7835ZM16.5395 26.7835H4.46051V17.0414L6.61578 16.606V22.8253H14.3842V16.606L16.5395 17.0414V26.7835ZM19.8474 26.7835H17.6922V17.2512L18.0265 17.3708C19.1156 17.7605 19.8474 18.8054 19.8474 19.9709V26.7835Z" fill="#EB0000"/>
<path d="M12.1796 0H10.4988H8.81793C6.69028 0 4.95923 1.75964 4.95923 3.92255V5.19934V6.57184C5.05194 7.91211 6.10431 8.22833 6.10431 8.22833L6.43707 8.34924C6.91299 8.52203 7.41995 8.51825 7.90308 8.33777C8.77913 8.0108 9.63965 7.84515 10.4611 7.84515C10.4735 7.84515 10.4863 7.84698 10.4988 7.84705C10.5112 7.84698 10.5241 7.84515 10.5365 7.84515C11.3579 7.84515 12.2184 8.0108 13.0945 8.33777C13.5776 8.51825 14.0846 8.52203 14.5605 8.34924L14.8932 8.22833C14.8932 8.22833 15.9456 7.91211 16.0383 6.57184V5.19934V3.92255C16.0383 1.75964 14.3073 0 12.1796 0ZM14.8932 6.21558C14.8932 6.58044 14.7248 6.90924 14.431 7.11774C14.2525 7.24451 14.0487 7.30945 13.8423 7.30945C13.724 7.30945 13.6048 7.28809 13.489 7.24493C12.4861 6.87085 11.4928 6.68115 10.5365 6.68115C10.5241 6.68115 10.5113 6.68292 10.4988 6.68298C10.4863 6.68292 10.4735 6.68115 10.4611 6.68115C9.5048 6.68115 8.51149 6.87085 7.5086 7.24493C7.39278 7.28809 7.27357 7.30945 7.15528 7.30945C6.94882 7.30945 6.74509 7.24451 6.56658 7.11774C6.27275 6.90924 6.10431 6.58044 6.10431 6.21558V5.90063L6.22285 5.82642C6.85872 5.42896 8.54453 4.50452 10.4611 4.50452C10.4739 4.50452 10.486 4.50659 10.4988 4.50665C10.5116 4.50659 10.5237 4.50452 10.5365 4.50452C12.453 4.50452 14.1388 5.42896 14.7747 5.82642L14.8932 5.90063V6.21558ZM14.8932 4.54144L14.5337 4.36078C13.6084 3.89526 12.1639 3.34052 10.5365 3.34052C10.5235 3.34052 10.5117 3.34344 10.4988 3.34351C10.4858 3.34344 10.474 3.34052 10.4611 3.34052C8.83369 3.34052 7.38914 3.89526 6.46381 4.36078L6.10431 4.54144V3.92255C6.10431 2.40149 7.32166 1.164 8.81793 1.164H10.4988H12.1796C13.6759 1.164 14.8932 2.40149 14.8932 3.92255V4.54144Z" fill="black"/>
</svg>
