<svg width="19" height="19" viewBox="0 0 19 19" fill="none" xmlns="http://www.w3.org/2000/svg">
<path d="M18.3542 12.8862C16.8648 12.211 15.701 11.8353 13.7416 11.398C13.6732 11.383 13.5947 11.3754 13.5037 11.3754C13.2474 11.3754 12.5278 11.4589 12.279 11.8446L11.3156 13.3636C11.1678 13.6007 10.6009 13.5723 10.1894 13.2701C9.37621 12.6792 8.56641 11.9897 7.78839 11.2253C7.02111 10.4449 6.32897 9.63357 5.72966 8.81394C5.52752 8.53684 5.4324 8.20376 5.48333 7.94668C5.50002 7.86155 5.54009 7.7472 5.64278 7.68377L7.15547 6.72397C7.59303 6.44848 7.68153 5.55123 7.60133 5.24491C7.17723 3.64488 6.59205 1.96472 6.12871 0.678938C5.96915 0.24205 5.22374 0 4.76875 0C4.61848 0 4.48235 0.0233181 4.36552 0.0688067C3.05309 0.576746 1.88431 1.3379 0.889221 2.33197C0.618731 2.60328 0.359042 2.89786 0.0952828 3.23256L0.00673693 3.34446L0.00339751 3.48718C-0.0867136 7.26728 1.61882 11.1927 4.7437 14.3176C7.71988 17.2932 11.5451 19 15.2393 19L15.6584 18.9933L15.7695 18.9057C16.09 18.6561 16.3931 18.389 16.6744 18.1111C17.6663 17.1162 18.4268 15.9469 18.9335 14.6381C19.1472 14.0939 18.8167 13.0949 18.3542 12.8862ZM18.1363 14.3277C17.6721 15.5271 16.9766 16.597 16.0709 17.5051C15.8479 17.7263 15.6076 17.94 15.3554 18.1436L15.2393 18.1453C11.7705 18.1453 8.16485 16.5294 5.35142 13.7166L5.28802 13.6533C2.42696 10.792 0.816538 7.15376 0.855776 3.64994C1.06777 3.38702 1.27816 3.15249 1.49448 2.93542C2.40353 2.02732 3.47385 1.33039 4.67525 0.865536C4.67608 0.865118 4.70363 0.854685 4.76875 0.854685C5.00162 0.854685 5.28213 0.994855 5.32465 0.970233C5.7822 2.23849 6.35908 3.89528 6.77321 5.45775C6.79492 5.57382 6.7273 5.94106 6.69803 6.00194L5.18868 6.96012C4.90733 7.13378 4.7136 7.42591 4.64425 7.78309C4.54663 8.2806 4.69106 8.8406 5.04002 9.31802C5.66277 10.1711 6.3824 11.014 7.18385 11.8295C7.99705 12.6283 8.83946 13.3461 9.6851 13.9604C10.5033 14.5596 11.632 14.4812 12.0402 13.8177L12.9611 12.3504C13.0254 12.3027 13.2891 12.2227 13.5555 12.2327C15.4506 12.655 16.5726 13.0164 17.951 13.6324C18.0586 13.7401 18.1922 14.1866 18.1363 14.3277Z" fill="#BEBEBE"/>
</svg>
