<svg width="30" height="30" viewBox="0 0 30 30" fill="none" xmlns="http://www.w3.org/2000/svg">
<path d="M15 0C6.7289 0 0 6.7289 0 15C0 23.2711 6.7289 30 15 30C23.2711 30 30 23.2711 30 15C30 6.7289 23.2711 0 15 0ZM15 27.8572C7.91061 27.8572 2.14279 22.0894 2.14279 15C2.14279 7.91061 7.91061 2.14279 15 2.14279C22.0894 2.14279 27.8572 7.91061 27.8572 15C27.8572 22.0894 22.0894 27.8572 15 27.8572ZM21.1146 19.5996C21.5332 20.0182 21.5332 20.6962 21.1146 21.1146C20.9054 21.324 20.6314 21.4286 20.3572 21.4286C20.083 21.4286 19.8088 21.324 19.5996 21.1146L15 16.515L10.4004 21.1146C10.1912 21.324 9.91699 21.4286 9.64279 21.4286C9.36859 21.4286 9.09462 21.324 8.88542 21.1146C8.4668 20.6962 8.4668 20.018 8.88542 19.5996L13.485 15L8.88542 10.4004C8.4668 9.98177 8.4668 9.30382 8.88542 8.88542C9.30382 8.46703 9.98199 8.4668 10.4004 8.88542L15 13.485L19.5996 8.88542C20.0182 8.4668 20.6962 8.4668 21.1146 8.88542C21.533 9.30382 21.5332 9.98199 21.1146 10.4004L16.515 15L21.1146 19.5996Z" fill="#C8C8C8"/>
</svg>
