<svg width="44" height="38" viewBox="0 0 44 38" fill="none" xmlns="http://www.w3.org/2000/svg">
<path d="M38.1306 19.3816V15.4211C40.2473 13.6971 41.024 10.8703 40.0127 8.4058C39.3958 6.90213 38.2048 5.74116 36.6592 5.13684C35.3392 4.62075 33.8958 4.56444 32.528 4.96566L30.9435 1.10389C30.5711 0.196358 29.5297 -0.239328 28.6221 0.133262L2.73413 10.7558C2.29555 10.9358 1.95289 11.2767 1.76928 11.716C1.58558 12.1551 1.58359 12.6386 1.7636 13.0771L3.34833 16.9393C0.555505 18.4452 -0.746019 21.7619 0.436845 24.6448C0.581937 24.9983 0.763888 25.3388 0.977973 25.6606C1.1085 28.6596 3.5233 31.1044 6.58971 31.4286V35.6033C6.58971 36.5843 7.38786 37.3824 8.36882 37.3824H36.3514C37.3324 37.3824 38.1306 36.5843 38.1306 35.6033V31.4287C41.2861 31.0956 43.7491 28.5213 43.7491 25.4051C43.7491 22.289 41.2861 19.7147 38.1306 19.3816ZM4.54396 18.0343L4.55229 18.0312C4.56666 18.0259 4.58096 18.0205 4.59523 18.0148C4.78138 17.9403 4.92997 17.7945 5.00817 17.6099C5.08628 17.4252 5.08738 17.217 5.01122 17.0316L3.15445 12.5064C3.11739 12.4159 3.13969 12.3357 3.15634 12.2959C3.17296 12.2561 3.21435 12.1839 3.30479 12.1468L29.1928 1.52421C29.3308 1.4675 29.4958 1.53629 29.5526 1.6746L31.4093 6.19974C31.4854 6.38524 31.6325 6.53263 31.8178 6.60919C32.0031 6.68571 32.2113 6.68511 32.3961 6.60735C32.4102 6.60141 32.4241 6.59528 32.4379 6.58904L32.4423 6.58695C33.637 6.09675 34.9401 6.07899 36.1117 6.53707C37.2709 6.99031 38.1623 7.85665 38.6219 8.97651C39.3155 10.667 38.8755 12.5935 37.5644 13.9098C37.5611 13.9067 37.5579 13.9034 37.5546 13.9003C37.5515 13.8975 37.5486 13.8944 37.5455 13.8916C37.5447 13.8909 37.5441 13.8901 37.5433 13.8894C37.5431 13.8892 37.5429 13.889 37.5426 13.8887C37.5426 13.8887 37.5426 13.8887 37.5425 13.8886C37.5327 13.8796 37.5227 13.8706 37.5126 13.8618C37.5125 13.8617 37.5123 13.8615 37.5122 13.8614C37.5122 13.8614 37.512 13.8613 37.5119 13.8612C37.5115 13.8608 37.5111 13.8604 37.5107 13.8601C37.5095 13.859 37.5082 13.8582 37.507 13.8572C37.4829 13.8365 37.458 13.8166 37.4327 13.7972C37.4319 13.7966 37.4312 13.7959 37.4304 13.7952C37.4299 13.7948 37.4293 13.7944 37.4287 13.794L37.4285 13.7938C37.4283 13.7936 37.4282 13.7935 37.428 13.7934C37.4279 13.7933 37.4278 13.7932 37.4278 13.7932C37.4278 13.7932 37.4274 13.7929 37.4273 13.7929L37.427 13.7926C37.4174 13.7853 37.4076 13.7781 37.3979 13.7709C37.3931 13.7674 37.3884 13.7638 37.3836 13.7603L37.3834 13.7601C37.3829 13.7598 37.3825 13.7595 37.3825 13.7595C37.3818 13.759 37.3815 13.7588 37.3815 13.7588L37.3806 13.7581C37.3547 13.7396 37.3281 13.722 37.3011 13.7049L37.3011 13.7048L37.3004 13.7044C37.2823 13.6929 37.264 13.6819 37.2455 13.6711C37.2445 13.6705 37.2436 13.6697 37.2425 13.6691C37.2421 13.6689 37.2417 13.6687 37.2414 13.6685L37.2412 13.6684C37.2407 13.6681 37.2401 13.6679 37.2396 13.6676C37.2389 13.6672 37.2383 13.6667 37.2376 13.6663C37.2366 13.6658 37.2356 13.6654 37.2347 13.6648C37.2115 13.6515 37.1882 13.6385 37.1643 13.6263C37.1638 13.626 37.1634 13.6257 37.1629 13.6254C37.1627 13.6253 37.1624 13.6252 37.1624 13.6252L37.162 13.625C37.162 13.625 37.1617 13.6249 37.1616 13.6248C37.1616 13.6248 37.1615 13.6247 37.1615 13.6247C37.1388 13.6131 37.116 13.6022 37.0928 13.5915C37.0925 13.5913 37.0922 13.5911 37.0922 13.5911C37.0916 13.5908 37.0914 13.5907 37.0911 13.5906L37.0905 13.5903L37.09 13.5901C37.09 13.5901 37.0898 13.59 37.0897 13.5899L37.0894 13.5898C37.0653 13.5788 37.041 13.568 37.0164 13.5581C37.0159 13.5579 37.0154 13.5576 37.0149 13.5574C37.0149 13.5574 37.0144 13.5572 37.0142 13.5572C37.0142 13.5572 37.014 13.557 37.0139 13.557C37.0136 13.5569 37.0133 13.5568 37.0133 13.5568C36.9858 13.5457 36.9583 13.5358 36.9305 13.5261C36.9302 13.526 36.9299 13.5259 36.9299 13.5259C36.9295 13.5258 36.9292 13.5257 36.929 13.5256C36.929 13.5256 36.9288 13.5255 36.9287 13.5255C36.9286 13.5254 36.9284 13.5254 36.9284 13.5254C36.9064 13.5177 36.8844 13.5104 36.8622 13.5037C36.8611 13.5034 36.86 13.5029 36.8589 13.5026C36.8584 13.5024 36.8579 13.5023 36.8575 13.5022C36.857 13.5021 36.8565 13.5019 36.8561 13.5017C36.8548 13.5014 36.8534 13.5012 36.8521 13.5008C36.8235 13.4924 36.7945 13.4848 36.7652 13.4778V13.4779C36.7647 13.4777 36.7641 13.4776 36.7635 13.4774L36.7634 13.4777C36.7611 13.4771 36.7589 13.4763 36.7565 13.4757C36.7363 13.4707 36.7161 13.466 36.6955 13.4619C36.6955 13.4619 36.6953 13.4618 36.6952 13.4618L36.6948 13.4617C36.661 13.4551 36.6265 13.4501 36.5919 13.4455C36.5902 13.4453 36.5887 13.4448 36.587 13.4446C36.5851 13.4443 36.5832 13.4441 36.5813 13.4438C36.5809 13.4438 36.5805 13.4437 36.5801 13.4436C36.5799 13.4436 36.5797 13.4436 36.5795 13.4436C36.5626 13.4411 36.5458 13.4388 36.5288 13.4371C36.5278 13.437 36.5268 13.4367 36.5258 13.4366C36.5254 13.4366 36.525 13.4366 36.525 13.4366C36.5245 13.4365 36.5243 13.4365 36.5243 13.4365C36.5238 13.4364 36.5235 13.4365 36.5235 13.4365C36.4649 13.4307 36.407 13.4278 36.3514 13.4278H8.36882C7.38786 13.4278 6.58971 14.2259 6.58971 15.2069V15.207V19.3816C5.58038 19.4877 4.61588 19.8246 3.76745 20.3717C3.7671 20.3719 3.76681 20.3721 3.76651 20.3723C2.77348 21.0129 2.00785 21.8956 1.53092 22.9087C1.30837 20.9067 2.49596 18.8747 4.54396 18.0343ZM37.4396 29.9616L37.43 29.9613C37.4159 29.9609 37.4017 29.9604 37.3876 29.9604C37.1879 29.9572 36.9932 30.0362 36.8503 30.1773C36.7075 30.3186 36.6271 30.5111 36.6271 30.712V35.6033C36.6271 35.7527 36.5008 35.8789 36.3514 35.8789H8.36882C8.21943 35.8789 8.09319 35.7527 8.09319 35.6033V30.712C8.09319 30.5111 8.01278 30.3186 7.86994 30.1774C7.72913 30.0382 7.53919 29.9603 7.34143 29.9603C7.33858 29.9603 7.33564 29.9603 7.3328 29.9604C7.31853 29.9604 7.30437 29.9609 7.2902 29.9613L7.28441 29.9616C4.63823 29.9616 2.4807 27.9221 2.47491 25.4153L2.47487 25.4148C2.47487 25.4109 2.47477 25.4069 2.47471 25.403C2.47471 25.403 2.47477 25.4021 2.47477 25.4017L2.47466 25.3991C2.47461 25.3977 2.47461 25.3964 2.47461 25.395C2.47821 23.8894 3.26533 22.4846 4.58192 21.6354C4.58192 21.6354 4.58217 21.6353 4.58231 21.6352C4.73185 21.5387 4.88627 21.4508 5.04474 21.3716C5.73166 21.0283 6.49604 20.8488 7.28387 20.8488C7.28416 20.8488 7.28447 20.8488 7.28471 20.8488C7.28471 20.8488 7.28541 20.8487 7.28571 20.8488C7.28606 20.8488 7.28641 20.8488 7.28676 20.8488C7.28756 20.8489 7.28836 20.8489 7.28916 20.8489C7.28916 20.8489 7.28955 20.849 7.28975 20.849C7.29674 20.8492 7.30381 20.8493 7.31085 20.8494C7.31808 20.8496 7.32537 20.8499 7.33264 20.85C7.33559 20.85 7.33853 20.85 7.34143 20.85C7.53914 20.85 7.72907 20.7721 7.86984 20.6329C8.01278 20.4917 8.09319 20.2992 8.09319 20.0983V20.0982V15.207C8.09319 15.0576 8.21943 14.9313 8.36882 14.9313H36.3514C36.3582 14.9313 36.3649 14.9319 36.3716 14.9324L36.3851 14.9344C36.3851 14.9344 36.3857 14.9344 36.386 14.9345C36.386 14.9345 36.3866 14.9346 36.3869 14.9346L36.4016 14.9367L36.4144 14.9397V14.9398L36.4277 14.943L36.4372 14.9463C36.4375 14.9464 36.4378 14.9465 36.4382 14.9466C36.4386 14.9468 36.439 14.947 36.4395 14.9472L36.4516 14.9514L36.4628 14.9565L36.4632 14.9567C36.4633 14.9567 36.4634 14.9568 36.4634 14.9568L36.4744 14.962L36.485 14.9678C36.4853 14.968 36.4858 14.9682 36.4858 14.9682C36.4868 14.9688 36.4874 14.9692 36.488 14.9696L36.4932 14.9728L36.4956 14.9743L36.4958 14.9744C36.4995 14.9768 36.5032 14.9791 36.5068 14.9816L36.5128 14.9862L36.5129 14.9863L36.5143 14.9874C36.5146 14.9875 36.5148 14.9877 36.5148 14.9877C36.5153 14.9881 36.5156 14.9883 36.5159 14.9886L36.5267 14.997C36.5285 14.9987 36.5303 15.0003 36.5309 15.0008C36.531 15.0009 36.5311 15.001 36.5312 15.0011L36.5328 15.0026C36.5328 15.0026 36.5332 15.0029 36.5334 15.0031C36.5334 15.0031 36.5336 15.0033 36.5336 15.0033C36.534 15.0036 36.5342 15.0038 36.5345 15.0041L36.5348 15.0044C36.5394 15.0085 36.5438 15.0125 36.548 15.0167C36.5482 15.017 36.5485 15.0173 36.5488 15.0176L36.5489 15.0177C36.5771 15.0473 36.6128 15.0975 36.623 15.168L36.623 15.1683C36.623 15.1683 36.623 15.1685 36.623 15.1685C36.6269 15.1948 36.6271 15.2052 36.6271 15.207V20.0983C36.6271 20.2989 36.7072 20.4912 36.8498 20.6324C36.9924 20.7735 37.184 20.8516 37.3861 20.85C37.401 20.8498 37.416 20.8494 37.4309 20.8489L37.4358 20.8486C40.088 20.8486 42.2457 22.8927 42.2457 25.4051C42.2457 27.9176 40.088 29.9616 37.4396 29.9616Z" fill="#E91D25"/>
<path d="M27.8453 17.9364C27.5108 17.6907 27.0402 17.7627 26.7945 18.0973L16.7141 31.8228C16.4683 32.1574 16.5403 32.6279 16.875 32.8736C17.009 32.972 17.1648 33.0195 17.3193 33.0195C17.5504 33.0195 17.7785 32.9132 17.9258 32.7127L28.0062 18.9873C28.252 18.6527 28.1799 18.1822 27.8453 17.9364Z" fill="white"/>
<path d="M27.218 25.7876C25.3022 25.7876 23.7437 27.4165 23.7437 29.4188C23.7437 31.4211 25.3022 33.05 27.218 33.05C29.1338 33.05 30.6924 31.4211 30.6924 29.4188C30.6924 27.4165 29.1338 25.7876 27.218 25.7876ZM27.218 31.5465C26.1313 31.5465 25.2471 30.5921 25.2471 29.4188C25.2471 28.2455 26.1313 27.2911 27.218 27.2911C28.3048 27.2911 29.1889 28.2455 29.1889 29.4188C29.1889 30.5921 28.3048 31.5465 27.218 31.5465Z" fill="white"/>
<path d="M20.9766 21.3915C20.9766 19.3892 19.418 17.7603 17.5022 17.7603C15.5864 17.7603 14.0278 19.3892 14.0278 21.3915C14.0278 23.3938 15.5864 25.0228 17.5022 25.0228C19.418 25.0228 20.9766 23.3938 20.9766 21.3915ZM15.5313 21.3915C15.5313 20.2182 16.4154 19.2637 17.5022 19.2637C18.589 19.2637 19.4731 20.2182 19.4731 21.3915C19.4731 22.5648 18.589 23.5193 17.5022 23.5193C16.4154 23.5193 15.5313 22.5648 15.5313 21.3915Z" fill="white"/>
</svg>
