<svg width="71" height="71" viewBox="0 0 71 71" fill="none" xmlns="http://www.w3.org/2000/svg">
<circle cx="35.5" cy="35.5" r="34.5" fill="white" stroke="#D9D9D9" stroke-width="2"/>
<path d="M30.7458 39.6481L28.4976 26.5561L48.7186 30.1326V39.9515L30.7458 39.6481ZM47.4676 42.1835H28.7616L24.7107 22H19.5329C18.6861 22 18 22.7076 18 23.5808C18 24.4533 18.6861 25.16 19.5329 25.16H22.2159L26.2668 45.3435H47.4676C48.314 45.3435 49 44.6359 49 43.7635C49 42.8911 48.314 42.1835 47.4676 42.1835ZM30.6832 46.7859C29.555 46.7859 28.6406 47.7299 28.6406 48.8934C28.6406 50.057 29.555 51 30.6832 51C31.8119 51 32.7262 50.057 32.7262 48.8934C32.7262 47.7299 31.8119 46.7859 30.6832 46.7859ZM43.1448 46.7859C42.0166 46.7859 41.1022 47.7299 41.1022 48.8934C41.1022 50.057 42.0166 51 43.1448 51C44.2734 51 45.1889 50.057 45.1889 48.8934C45.1889 47.7299 44.2734 46.7859 43.1448 46.7859Z" fill="#D9D9D9"/>
<path d="M48.7125 25L39.0816 34.4685L35.2875 30.7383L34 32.0041L39.0816 37L50 26.2658L48.7125 25Z" fill="#EB0000"/>
</svg>
