<svg width="19" height="19" viewBox="0 0 19 19" fill="none" xmlns="http://www.w3.org/2000/svg">
<path d="M9.50166 0C4.26229 0 0 4.26169 0 9.50042C0 14.7383 4.26229 19 9.50166 19C14.7394 19 19 14.7383 19 9.50042C19 4.26169 14.7394 0 9.50166 0ZM9.50166 18.1492C4.73172 18.1492 0.850796 14.2694 0.850796 9.50042C0.850796 4.73105 4.73172 0.850759 9.50166 0.850759C14.2699 0.850759 18.1492 4.73105 18.1492 9.50042C18.1492 14.2694 14.2699 18.1492 9.50166 18.1492ZM9.92706 3.62813V9.50042C9.92706 9.64534 9.85 9.7669 9.7396 9.84365C9.72599 9.86276 9.7182 9.88457 9.70107 9.9017L7.23176 12.3709C7.14868 12.454 7.03984 12.4955 6.93099 12.4955C6.82215 12.4955 6.71331 12.454 6.63023 12.3709C6.46405 12.2047 6.46405 11.9355 6.63023 11.7694L9.07626 9.32345V3.62813C9.07626 3.39306 9.26653 3.20276 9.50166 3.20276C9.73679 3.20276 9.92706 3.39306 9.92706 3.62813ZM12.6872 3.20364L12.9148 2.80905C13.0212 2.62331 13.2596 2.56105 13.4441 2.66698C13.6294 2.77405 13.6933 3.01094 13.5861 3.19611L13.3585 3.5908C13.287 3.71501 13.1566 3.78474 13.0228 3.78474C12.9572 3.78474 12.8899 3.76776 12.8292 3.73287C12.644 3.62569 12.58 3.38891 12.6872 3.20364ZM6.31035 15.7959L6.08435 16.1914C6.0129 16.3165 5.88162 16.3867 5.74786 16.3867C5.68222 16.3867 5.61658 16.37 5.55593 16.3356C5.36982 16.2293 5.30501 15.9924 5.41136 15.8067L5.63735 15.4112C5.74453 15.2252 5.98133 15.1625 6.16578 15.2671C6.35189 15.3735 6.4167 15.6103 6.31035 15.7959ZM16.333 13.4443C16.2615 13.5685 16.1311 13.6384 15.9973 13.6384C15.9317 13.6384 15.8652 13.6212 15.8037 13.5863L15.4115 13.3604C15.2263 13.2536 15.1623 13.0169 15.2695 12.8312C15.3766 12.6459 15.6118 12.5827 15.7987 12.689L16.1909 12.9151C16.3762 13.0218 16.4401 13.2587 16.333 13.4443ZM2.66705 5.55647C2.7734 5.37041 3.01102 5.30727 3.19547 5.4132L3.59096 5.64001C3.77624 5.74636 3.84104 5.98314 3.73386 6.16883C3.66241 6.29351 3.53197 6.36366 3.3982 6.36366C3.33256 6.36366 3.26609 6.34699 3.20544 6.31215L2.80995 6.08533C2.62467 5.97899 2.55987 5.74221 2.66705 5.55647ZM6.31284 3.20364C6.42002 3.38891 6.35604 3.62569 6.17076 3.73287C6.11011 3.76776 6.04281 3.78474 5.97717 3.78474C5.84341 3.78474 5.71296 3.71501 5.64151 3.5908L5.41385 3.19611C5.30667 3.01094 5.37065 2.77405 5.55593 2.66698C5.73955 2.56064 5.978 2.62331 6.08518 2.80905L6.31284 3.20364ZM13.5903 15.8039C13.6975 15.9883 13.6352 16.2255 13.4507 16.3334C13.3892 16.3696 13.3219 16.3867 13.2555 16.3867C13.1225 16.3867 12.9929 16.3177 12.9206 16.1944L12.6897 15.7989C12.5825 15.6144 12.6448 15.3772 12.8292 15.2693C13.0129 15.1599 13.2505 15.2235 13.3593 15.4084L13.5903 15.8039ZM3.73469 12.8324C3.84104 13.0185 3.77624 13.2549 3.59013 13.3612L3.19464 13.5872C3.13399 13.6217 3.06835 13.6384 3.00271 13.6384C2.86894 13.6384 2.73767 13.5681 2.66621 13.4431C2.55987 13.257 2.62467 13.0206 2.81078 12.9143L3.20627 12.6883C3.38906 12.5836 3.62751 12.6455 3.73469 12.8324ZM15.2695 6.17003C15.1631 5.9848 15.2263 5.74797 15.4115 5.6409L15.8037 5.41408C15.9857 5.30686 16.2241 5.36912 16.333 5.55527C16.4393 5.7406 16.3762 5.97733 16.1909 6.08456L15.7987 6.31137C15.7381 6.34668 15.6716 6.36366 15.6051 6.36366C15.4714 6.36366 15.3417 6.29423 15.2695 6.17003ZM2.45268 9.88675H2.45185L1.99655 9.88592C1.78302 9.8855 1.60937 9.71186 1.6102 9.49798C1.6102 9.2844 1.78385 9.11164 1.99738 9.11164H1.99821L2.45352 9.11237C2.66705 9.11284 2.84069 9.28648 2.83986 9.50042C2.83986 9.71399 2.66621 9.88675 2.45268 9.88675ZM17.3931 9.49668C17.394 9.71066 17.2211 9.88462 17.0076 9.88503L16.549 9.88675C16.5481 9.88675 16.5481 9.88675 16.5473 9.88675C16.3338 9.88675 16.161 9.7144 16.1601 9.50083C16.1593 9.28689 16.3321 9.11284 16.5457 9.11237L17.0043 9.11076C17.0051 9.11076 17.0051 9.11076 17.0059 9.11076C17.2195 9.11076 17.3923 9.28316 17.3931 9.49668ZM9.88884 16.5487L9.88552 17.0057C9.88385 17.2184 9.71104 17.3899 9.49834 17.3899C9.49751 17.3899 9.49668 17.3899 9.49585 17.3899C9.28148 17.3887 9.1095 17.2137 9.11116 16.9998L9.11448 16.5429C9.11615 16.3302 9.28896 16.1587 9.50166 16.1587C9.50249 16.1587 9.50332 16.1587 9.50332 16.1587C9.71851 16.1598 9.8905 16.3347 9.88884 16.5487ZM9.11282 2.45169V1.99812C9.11282 1.78424 9.28647 1.61101 9.5 1.61101C9.71353 1.61101 9.88718 1.78424 9.88718 1.99812V2.45169C9.88718 2.66568 9.71353 2.83891 9.5 2.83891C9.28647 2.83891 9.11282 2.66568 9.11282 2.45169Z" fill="#BEBEBE"/>
</svg>
