<svg width="17" height="9" viewBox="0 0 17 9" fill="none" xmlns="http://www.w3.org/2000/svg">
<path fill-rule="evenodd" clip-rule="evenodd" d="M16.899 8.43683C16.0258 7.43512 15.099 6.57416 14.2183 5.57751C13.7595 5.05835 13.918 5.00183 14.1718 4.63153C14.9548 3.48981 15.7571 2.2608 16.5 1.12952C16.8334 0.621582 16.7243 0.421265 16.1992 0.421265C15.4233 0.421265 14.6475 0.421265 13.8716 0.421265C13.2559 0.421265 13.1884 0.328674 12.7723 1.08197C12.0176 2.44745 11.1131 4.20813 9.88032 4.31195C9.8877 3.06488 9.89545 1.90723 9.90278 0.660217C9.90473 0.325317 9.84193 0 9.22157 0C8.41419 0 7.60694 0 6.79951 0C6.09663 0 5.71406 0.328796 5.73566 0.53064C5.77778 0.922974 6.53242 0.434265 6.53242 1.52386C6.53242 2.45312 6.53242 3.38251 6.53242 4.31195C5.61976 4.44562 4.42622 2.35455 3.5677 0.934692C3.33002 0.541565 3.34443 0.421265 2.56373 0.421265C1.86481 0.421265 1.16615 0.421265 0.467354 0.421265C0.0923535 0.421265 -0.157769 0.535095 0.115303 1.04956C1.50251 3.66388 4.64045 8.99542 7.41926 8.99542C8.07093 8.99542 8.72254 8.99542 9.37415 8.99542C9.85151 8.99542 9.98396 8.77875 9.98396 8.47913C9.98396 7.95154 9.98396 7.46869 9.98396 6.8999C11.033 7.00043 11.7275 7.75122 12.4741 8.50604C12.9523 8.98944 13.104 9 13.5001 9C14.4908 9 15.4815 8.99847 16.4721 8.99774C17.0293 8.99731 17.0966 8.66327 16.899 8.43683Z" fill="#007AEB"/>
</svg>
