<svg width="17" height="17" viewBox="0 0 17 17" fill="none" xmlns="http://www.w3.org/2000/svg">
<path d="M12.9734 11.1722C12.651 11.6762 12.1402 12.2918 11.501 12.4453C10.3742 12.7162 8.64335 12.4519 6.4821 10.4509C4.61131 8.71893 4.11662 7.27643 4.23344 6.13226C4.29966 5.48327 4.84501 4.89752 5.30442 4.51196C5.61772 4.24908 6.09727 4.35754 6.26316 4.72967L6.95585 6.28369C7.04692 6.48804 7.01786 6.72534 6.88011 6.90204L6.52854 7.35315C6.38035 7.54346 6.36051 7.80408 6.48118 8.01263C6.89958 8.73535 8.53794 10.1802 9.31675 10.4929C9.54154 10.5831 9.79911 10.528 9.96891 10.3563L10.3716 9.94946C10.5292 9.79004 10.7622 9.72925 10.9787 9.79077L12.6252 10.2596C13.0196 10.3721 13.1932 10.8285 12.9734 11.1722ZM16.9957 8.70093C16.8515 13.288 12.9941 16.9317 8.36784 16.8617C7.05692 16.8417 5.81828 16.527 4.71543 15.9821L0.423136 16.9909C0.187662 17.0462 -0.0260222 16.8403 0.0227449 16.6053L0.92515 12.2602C0.337442 11.1186 0.00419022 9.82635 3.98168e-05 8.45734C-0.0137541 3.96265 3.55815 0.223632 8.08439 0.00982569C13.059 -0.225099 17.1504 3.78369 16.9957 8.70093ZM15.1556 8.43115C15.1556 6.66778 14.4634 5.00995 13.2062 3.76312C11.9491 2.51623 10.2779 1.82959 8.50016 1.82959C6.7382 1.82959 5.03971 2.52734 3.79386 3.76312C2.53672 5.01007 1.84446 6.66791 1.84446 8.43127C1.84446 9.48743 2.08787 10.4957 2.56785 11.4282L2.86234 12.0002L2.30839 14.6676L4.9401 14.0491L5.53782 14.3445C6.46244 14.8013 7.45915 15.033 8.50004 15.033C10.2778 15.033 11.9491 14.3464 13.2062 13.0994C14.4521 11.8638 15.1556 10.1788 15.1556 8.43115Z" fill="#00C34E"/>
</svg>
