<svg width="49" height="49" viewBox="0 0 49 49" fill="none" xmlns="http://www.w3.org/2000/svg">
<path d="M48.6448 46.9118L38.4853 36.7553C46.2355 28.1051 45.9557 14.7602 37.6431 6.4504C29.1408 -2.0413 15.4024 -2.16449 6.74932 6.17408C-1.90417 14.5123 -2.28613 28.2421 5.89019 37.0481C14.0665 45.8545 27.7907 46.495 36.7517 38.4884L46.9111 48.6449C47.3906 49.12 48.1638 49.1181 48.6409 48.641C49.1181 48.164 49.12 47.3911 48.6448 46.9118ZM35.9094 35.9133C28.2617 43.5587 15.8186 43.5584 8.17161 35.9133C0.476676 28.2916 0.41871 15.877 8.04224 8.18351C15.6662 0.490821 28.0848 0.432871 35.7801 8.05418L35.9094 8.18351C43.5568 15.8286 43.5568 28.2678 35.9094 35.9133ZM30.6203 22.0457C30.6203 22.7227 30.0717 23.2711 29.3946 23.2711H23.2636V29.4007C23.2636 30.0773 22.715 30.6261 22.0378 30.6261C21.3614 30.6261 20.8121 30.0773 20.8121 29.4007V23.2711H14.6861C14.0097 23.2711 13.4604 22.7227 13.4604 22.0457C13.4604 21.3695 14.0097 20.8203 14.6861 20.8203H20.8121V14.6965C20.8121 14.0199 21.3614 13.4711 22.0378 13.4711C22.715 13.4711 23.2636 14.0199 23.2636 14.6965V20.8203H29.3946C30.0717 20.8203 30.6203 21.3695 30.6203 22.0457Z" fill="white"/>
</svg>
