<svg width="75" height="75" viewBox="0 0 75 75" fill="none" xmlns="http://www.w3.org/2000/svg">
<circle cx="37.5" cy="37.5" r="37.5" fill="#F1F1F1"/>
<path d="M52.7029 22.2971C48.642 18.2363 43.2429 16 37.5 16C31.7571 16 26.358 18.2363 22.2971 22.2971C18.2363 26.358 16 31.7571 16 37.5C16 42.5682 17.797 47.4894 21.0606 51.3578C21.8337 52.2732 22.6872 53.1287 23.597 53.9004C27.4718 57.189 32.4093 59 37.5 59V59C42.5907 59 47.5282 57.189 51.4028 53.9006C52.3128 53.1287 53.1663 52.2732 53.9399 51.3573C57.203 47.4895 59 42.5683 59 37.5C59 31.7571 56.7637 26.358 52.7029 22.2971ZM25.6736 52.1309C25.4966 51.3007 25.4063 50.4494 25.4063 49.5938C25.4063 43.019 30.7515 37.5952 37.3231 37.5008L37.5 37.5L37.677 37.5008C44.2485 37.5952 49.5938 43.019 49.5938 49.5938C49.5938 50.4493 49.5034 51.3007 49.3264 52.1309C45.9898 54.8305 41.8079 56.3125 37.5 56.3125C33.1922 56.3125 29.0104 54.8305 25.6736 52.1309ZM37.5 34.8125C34.5362 34.8125 32.125 32.4013 32.125 29.4375C32.125 26.4737 34.5362 24.0625 37.5 24.0625C40.4638 24.0625 42.875 26.4737 42.875 29.4375C42.875 32.4013 40.4638 34.8125 37.5 34.8125ZM52.2739 49.1467C52.1631 45.4017 50.6632 41.8883 48.0206 39.2107C46.459 37.6285 44.6004 36.4417 42.5695 35.7018C44.394 34.2224 45.5625 31.964 45.5625 29.4375C45.5625 24.9918 41.9457 21.375 37.5 21.375C33.0543 21.375 29.4375 24.9918 29.4375 29.4375C29.4375 31.9641 30.606 34.2225 32.4306 35.7019C30.3997 36.4418 28.541 37.6286 26.9795 39.2108C24.3368 41.8883 22.8369 45.4017 22.7261 49.1467C20.118 45.8401 18.6875 41.729 18.6875 37.5C18.6875 27.1268 27.1268 18.6875 37.5 18.6875H37.5C47.8732 18.6875 56.3125 27.1268 56.3125 37.5C56.3125 41.7293 54.8818 45.8405 52.2739 49.1467Z" fill="white"/>
</svg>
