<?xml version="1.0" encoding="utf-8"?>
<svg version="1.1" id="Слой_1" xmlns="http://www.w3.org/2000/svg" xmlns:xlink="http://www.w3.org/1999/xlink" x="0px" y="0px"
	 viewBox="0 0 87.2 14" style="enable-background:new 0 0 87.2 14;" xml:space="preserve">
<g>
	<polygon class="st0" points="9.6,5 7.6,0.9 5.6,5 1.2,5.6 4.4,8.8 3.7,13.3 7.6,11.2 11.6,13.3 10.8,8.8 14.1,5.6 	"/>
	<path class="st0" d="M14.9,5.3l-5-0.7L7.6,0L5.4,4.6l-5,0.7L4,8.9L3.1,14l4.5-2.4l4.5,2.4l-0.9-5.1L14.9,5.3z M7.6,10.7l-3.5,1.8
	l0.7-3.9L2,5.8l3.9-0.5l1.7-3.6l1.7,3.6l3.9,0.6l-2.8,2.8l0.7,3.9L7.6,10.7z"/>
</g>
<g>
	<polygon class="st0" points="27.7,5 25.7,0.9 23.7,5 19.3,5.6 22.5,8.8 21.7,13.3 25.7,11.2 29.7,13.3 28.9,8.8 32.1,5.6 	"/>
	<path class="st0" d="M33,5.3l-5-0.7L25.7,0l-2.2,4.6l-5,0.7l3.6,3.6L21.2,14l4.5-2.4l4.5,2.4l-0.9-5.1L33,5.3z M25.7,10.7l-3.5,1.8
	l0.7-3.9l-2.8-2.8L24,5.3l1.7-3.6l1.7,3.6l3.9,0.6l-2.8,2.8l0.7,3.9L25.7,10.7z"/>
</g>
<g>
	<polygon class="st0" points="45.8,5 43.8,0.9 41.8,5 37.4,5.6 40.6,8.8 39.8,13.3 43.8,11.2 47.8,13.3 47,8.8 50.2,5.6 	"/>
<path class="st0" d="M51.1,5.3l-5-0.7L43.8,0l-2.2,4.6l-5,0.7l3.6,3.6L39.3,14l4.5-2.4l4.5,2.4l-0.9-5.1L51.1,5.3z M43.8,10.7
	l-3.5,1.8L41,8.6l-2.8-2.8l3.9-0.5l1.7-3.6l1.7,3.6l3.9,0.6l-2.8,2.8l0.7,3.9L43.8,10.7z"/>
</g>
<g>
	<polygon class="st0" points="63.8,5 61.9,0.9 59.9,5 55.4,5.6 58.6,8.8 57.9,13.3 61.9,11.2 65.8,13.3 65.1,8.8 68.3,5.6 	"/>

<path class="st0" d="M69.2,5.3l-5-0.7L61.9,0l-2.2,4.6l-5,0.7l3.6,3.6L57.4,14l4.5-2.4l4.5,2.4l-0.9-5.1L69.2,5.3z M61.9,10.7
	l-3.5,1.8l0.7-3.9l-2.8-2.8l3.9-0.5l1.7-3.6l1.7,3.6l3.9,0.6l-2.8,2.8l0.7,3.9L61.9,10.7z"/>
</g>
<g>
	<path class="st0" d="M87.2,5.3l-5-0.7L79.9,0l-2.2,4.6l-5,0.7l3.6,3.6L75.4,14l4.5-2.4l4.5,2.4l-0.9-5.1L87.2,5.3z M79.9,10.7
		l-3.5,1.8l0.7-3.9l-2.8-2.8l3.9-0.5l1.7-3.6l1.7,3.6l3.9,0.6l-2.8,2.8l0.7,3.9L79.9,10.7z"/>
		<polygon class="st0" points="81.8,5 79.9,0.9 77.9,5 73.4,5.6 76.6,8.8 75.9,13.3 79.9,11.2 83.8,13.3 83.1,8.8 86.3,5.6 "/>
</g>

</svg>
