<svg aria-hidden="true" style="position: absolute; width: 0; height: 0; overflow: hidden;" version="1.1" xmlns="http://www.w3.org/2000/svg" xmlns:xlink="http://www.w3.org/1999/xlink">
<defs>
<symbol id="icon-arrow-down" viewBox="0 0 32 32">
<path d="M17.249 22.861l14.24-14.24c0.33-0.329 0.511-0.769 0.511-1.238s-0.182-0.909-0.511-1.238l-1.048-1.049c-0.683-0.682-1.794-0.682-2.476 0l-11.958 11.958-11.971-11.971c-0.33-0.329-0.769-0.511-1.238-0.511s-0.908 0.182-1.238 0.511l-1.048 1.049c-0.33 0.33-0.511 0.769-0.511 1.238s0.182 0.908 0.511 1.238l14.253 14.254c0.331 0.33 0.772 0.512 1.241 0.51 0.471 0.001 0.912-0.18 1.243-0.51z"></path>
</symbol>
<symbol id="icon-arrow-left" viewBox="0 0 32 32">
<path d="M7.38 15.122l15.416-14.76c0.505-0.483 1.323-0.482 1.827 0.003s0.503 1.27-0.003 1.754l-14.498 13.882 14.499 13.882c0.505 0.484 0.506 1.269 0.003 1.754-0.253 0.243-0.584 0.365-0.915 0.365s-0.66-0.121-0.912-0.362l-15.416-14.76c-0.243-0.232-0.38-0.549-0.38-0.878s0.137-0.645 0.38-0.878z"></path>
</symbol>
<symbol id="icon-arrow-right" viewBox="0 0 32 32">
<path d="M24.62 15.122l-15.416-14.76c-0.505-0.483-1.323-0.482-1.827 0.003s-0.503 1.27 0.003 1.754l14.498 13.882-14.499 13.882c-0.505 0.484-0.506 1.269-0.003 1.754 0.253 0.243 0.584 0.365 0.915 0.365s0.66-0.121 0.912-0.362l15.416-14.76c0.243-0.232 0.38-0.549 0.38-0.878s-0.137-0.645-0.38-0.878z"></path>
</symbol>
<symbol id="icon-arrow-top" viewBox="0 0 32 32">
<path d="M15.122 7.571l-14.76 15.073c-0.483 0.494-0.482 1.293 0.003 1.786s1.27 0.491 1.754-0.003l13.881-14.176 13.881 14.176c0.484 0.494 1.269 0.495 1.754 0.003 0.243-0.247 0.365-0.571 0.365-0.895s-0.121-0.645-0.362-0.892l-14.76-15.073c-0.232-0.238-0.549-0.371-0.878-0.371s-0.645 0.134-0.878 0.371z"></path>
</symbol>
<symbol id="icon-avatar" viewBox="0 0 32 32">
<path d="M27.314 4.686c-3.022-3.022-7.040-4.686-11.314-4.686s-8.292 1.664-11.314 4.686c-3.022 3.022-4.686 7.040-4.686 11.314 0 3.772 1.337 7.434 3.766 10.313 0.575 0.681 1.21 1.318 1.888 1.892 2.884 2.447 6.558 3.795 10.346 3.795v0c3.788 0 7.463-1.348 10.346-3.795 0.677-0.574 1.312-1.211 1.888-1.893 2.428-2.878 3.766-6.541 3.766-10.312 0-4.274-1.664-8.292-4.686-11.314zM7.199 26.888c-0.132-0.618-0.199-1.251-0.199-1.888 0-4.893 3.978-8.929 8.868-8.999l0.132-0.001 0.132 0.001c4.89 0.070 8.868 4.107 8.868 8.999 0 0.637-0.067 1.27-0.199 1.888-2.483 2.009-5.595 3.112-8.801 3.112s-6.318-1.103-8.801-3.112zM16 14c-2.206 0-4-1.794-4-4s1.794-4 4-4c2.206 0 4 1.794 4 4s-1.794 4-4 4zM26.995 24.667c-0.082-2.787-1.199-5.402-3.165-7.394-1.162-1.177-2.545-2.061-4.057-2.611 1.358-1.101 2.227-2.782 2.227-4.662 0-3.308-2.692-6-6-6s-6 2.692-6 6c0 1.88 0.87 3.561 2.227 4.662-1.511 0.551-2.895 1.434-4.057 2.611-1.967 1.993-3.083 4.607-3.165 7.394-1.941-2.461-3.006-5.52-3.006-8.667 0-7.72 6.28-14 14-14v0c7.72 0 14 6.28 14 14 0 3.147-1.065 6.207-3.005 8.667z"></path>
</symbol>
<symbol id="icon-back" viewBox="0 0 32 32">
<path d="M31.946 17.901c-0.566-5.744-5.706-9.946-11.446-9.946h-8.5v-5.028c0-0.386-0.22-0.738-0.566-0.907-0.348-0.167-0.758-0.123-1.058 0.121l-10 8.045c-0.238 0.193-0.376 0.481-0.376 0.786s0.138 0.593 0.374 0.786l10 8.045c0.182 0.145 0.404 0.219 0.626 0.219 0.148 0 0.296-0.032 0.434-0.099 0.346-0.169 0.566-0.521 0.566-0.907v-5.028h8.712c2.616 0 5 1.891 5.262 4.507 0.302 3.009-2.044 5.549-4.974 5.549h-8c-0.552 0-1 0.451-1 1.006v4.023c0 0.555 0.448 1.006 1 1.006h8c6.426 0 11.592-5.586 10.946-12.179z"></path>
</symbol>
<symbol id="icon-badge" viewBox="0 0 32 32">
<path d="M26.091 12.781l-1.8-2.51c-0.099-0.138-0.109-0.322-0.027-0.47l1.5-2.699c0.238-0.429 0.253-0.948 0.040-1.39s-0.63-0.753-1.114-0.833l-3.047-0.502c-0.167-0.028-0.305-0.151-0.352-0.313l-0.848-2.97c-0.135-0.472-0.491-0.849-0.955-1.011s-0.978-0.087-1.376 0.199l-2.51 1.8c-0.138 0.099-0.322 0.109-0.47 0.027l-2.699-1.5c-0.429-0.238-0.948-0.253-1.39-0.040s-0.753 0.63-0.833 1.114l-0.502 3.047c-0.028 0.167-0.15 0.305-0.313 0.351l-2.97 0.848c-0.472 0.135-0.849 0.491-1.011 0.955s-0.087 0.978 0.199 1.376l1.8 2.51c0.099 0.138 0.109 0.322 0.027 0.47l-1.5 2.699c-0.238 0.429-0.253 0.948-0.040 1.39s0.63 0.753 1.113 0.832l2.318 0.382-2.683 9.486c-0.055 0.193 0.004 0.401 0.151 0.538s0.359 0.179 0.548 0.109l2.971-1.093 1.766 3.725c0.089 0.188 0.278 0.306 0.483 0.306 0.015 0 0.030-0.001 0.045-0.002 0.222-0.019 0.409-0.173 0.47-0.387l2.297-8.124 1.529 9.915c0.033 0.216 0.195 0.39 0.408 0.439s0.435-0.036 0.559-0.216l1.862-2.682 3.645 3.305c0.101 0.091 0.229 0.139 0.359 0.139 0.089 0 0.178-0.022 0.259-0.067 0.2-0.111 0.308-0.337 0.267-0.562l-2.473-13.852 0.199-1.208c0.028-0.167 0.151-0.305 0.313-0.352l2.97-0.848c0.472-0.135 0.849-0.491 1.011-0.955s0.087-0.978-0.199-1.376zM12.442 27.563l-1.365-2.879c-0.118-0.25-0.408-0.368-0.668-0.273l-2.445 0.9 2.392-8.458c0.013 0.020 0.025 0.041 0.036 0.063 0.009 0.020 0.017 0.040 0.022 0.061l0.848 2.97c0.051 0.18 0.134 0.345 0.244 0.493 0.002 0.002 0.003 0.004 0.004 0.006 0 0 0 0 0 0l0 0c0.036 0.047 0.075 0.093 0.117 0.137l0 0c0.144 0.148 0.314 0.264 0.507 0.344 0 0 0.001 0 0.001 0 0.080 0.033 0.163 0.059 0.248 0.078 0 0 0 0 0 0l0 0c0.028 0.006 0.057 0.012 0.085 0.017 0.015 0.002 0.030 0.004 0.044 0.005 0.067 0.009 0.135 0.015 0.202 0.015 0.005 0 0.010 0 0.015-0 0 0 0.001 0 0.001 0 0.031-0 0.063-0.002 0.094-0.004 0.001-0 0.002-0 0.004-0 0 0 0-0 0-0s0 0 0 0 0 0 0 0c0.273-0.021 0.537-0.117 0.762-0.279l0.971-0.696-2.121 7.501zM20.006 27.356c-0.114-0.103-0.267-0.153-0.42-0.135s-0.291 0.1-0.378 0.226l-1.446 2.083-1.633-10.588c0.134-0.082 0.304-0.087 0.443-0.010l2.699 1.5c0.227 0.126 0.48 0.19 0.733 0.19 0.224 0 0.449-0.050 0.657-0.15 0.198-0.096 0.369-0.232 0.506-0.397l1.775 9.943-2.936-2.661zM25.28 13.805c-0.048 0.137-0.155 0.238-0.295 0.278l-2.969 0.848c-0.559 0.159-0.98 0.633-1.075 1.206l-0.214 1.299-0.288 1.748c-0.024 0.143-0.112 0.262-0.243 0.325s-0.278 0.059-0.405-0.012l-2.699-1.5c-0.508-0.282-1.141-0.246-1.613 0.093l-1.239 0.888c0 0-0 0-0 0l-1.27 0.911c-0.034 0.024-0.069 0.043-0.106 0.057s-0.075 0.022-0.115 0.025c-0 0-0 0-0 0h-0c-0.009 0.001-0.018 0.001-0.028 0.001-0.026 0.001-0.051-0.002-0.077-0.006h-0c-0.009-0.001-0.017-0.003-0.026-0.005-0.025-0.006-0.050-0.014-0.074-0.023h-0c-0.057-0.023-0.106-0.057-0.148-0.1-0.012-0.012-0.023-0.025-0.033-0.039l-0-0c-0.033-0.043-0.057-0.092-0.072-0.146l-0.848-2.969c-0.020-0.069-0.045-0.139-0.075-0.206 0 0-0-0-0-0l-0-0c-0.125-0.277-0.329-0.507-0.589-0.667-0.001-0.001-0.002-0.002-0.003-0.002-0.045-0.028-0.087-0.050-0.128-0.070l-0-0c-0.063-0.030-0.13-0.057-0.197-0.078-0.001-0-0.001-0-0.002-0.001l-0-0c0 0-0-0-0-0-0.068-0.022-0.139-0.039-0.21-0.050 0 0-0 0-0 0l-0-0-0.133-0.022c-0-0-0.001-0-0.001-0l-0.004-0.001c-0 0-0 0-0 0l-2.908-0.479c-0.143-0.024-0.261-0.112-0.325-0.243s-0.059-0.278 0.012-0.405l1.5-2.699c0.282-0.508 0.246-1.141-0.093-1.613l-1.8-2.51c-0.085-0.118-0.106-0.264-0.058-0.401s0.155-0.238 0.295-0.278l2.97-0.848c0.559-0.159 0.981-0.633 1.075-1.206l0.502-3.047c0.024-0.143 0.112-0.262 0.243-0.325s0.278-0.059 0.405 0.012l2.699 1.5c0.508 0.282 1.141 0.246 1.613-0.093l2.51-1.8c0.118-0.085 0.264-0.106 0.401-0.058s0.238 0.155 0.278 0.295l0.848 2.97c0.16 0.558 0.633 0.98 1.206 1.075l3.047 0.502c0.143 0.024 0.262 0.112 0.325 0.243s0.059 0.278-0.012 0.405l-1.5 2.699c-0.282 0.508-0.246 1.141 0.093 1.613l1.8 2.509c0.085 0.118 0.106 0.264 0.058 0.401z"></path>
<path d="M16 15.351c-2.782 0-5.046-2.264-5.046-5.046s2.264-5.046 5.046-5.046 5.046 2.264 5.046 5.046c0 2.783-2.264 5.046-5.046 5.046zM16 6.322c-2.196 0-3.982 1.786-3.982 3.982s1.787 3.982 3.982 3.982 3.982-1.786 3.982-3.982c0-2.196-1.787-3.982-3.982-3.982z"></path>
</symbol>
<symbol id="icon-bill" viewBox="0 0 32 32">
<path d="M27.552 0.828c-0.546-0.247-1.189-0.151-1.635 0.244l-2.119 1.841-2.883-2.531c-0.579-0.509-1.456-0.509-2.035 0l-2.88 2.529-2.881-2.529c-0.579-0.509-1.456-0.509-2.036 0l-2.884 2.531-2.121-1.841c-0.626-0.546-1.584-0.491-2.14 0.124-0.249 0.275-0.385 0.631-0.383 0.999v27.612c-0.005 0.823 0.671 1.494 1.509 1.499 0.375 0.002 0.737-0.132 1.018-0.376l2.119-1.841 2.883 2.531c0.579 0.509 1.456 0.509 2.035 0l2.881-2.529 2.881 2.529c0.579 0.509 1.456 0.509 2.036 0l2.884-2.531 2.121 1.841c0.626 0.546 1.584 0.491 2.14-0.123 0.249-0.275 0.386-0.631 0.383-0.999v-27.612c0.008-0.59-0.343-1.127-0.892-1.366zM24.808 27.964c-0.579-0.504-1.451-0.501-2.028 0.005l-2.883 2.531-2.88-2.529c-0.579-0.509-1.456-0.509-2.035 0l-2.881 2.529-2.884-2.531c-0.574-0.507-1.445-0.509-2.022-0.005l-2.113 1.841v-3.994l-0.008-23.617 2.117 1.841c0.579 0.504 1.451 0.501 2.028-0.005l2.883-2.531 2.88 2.529c0.579 0.509 1.456 0.509 2.035 0l2.881-2.529 2.884 2.531c0.574 0.507 1.445 0.509 2.022 0.005l2.113-1.841v18.981l0.008 8.631-2.117-1.841z"></path>
<path d="M24 16c0 0.414-0.342 0.749-0.764 0.749h-14.474c-0.422 0-0.763-0.335-0.763-0.749s0.342-0.749 0.763-0.749h14.474c0.422 0 0.764 0.336 0.764 0.749z"></path>
<path d="M7.999 11.504c0-0.414 0.342-0.749 0.763-0.749h7.603c0.422 0 0.764 0.335 0.764 0.749s-0.342 0.749-0.764 0.749h-7.603c-0.422 0-0.763-0.335-0.763-0.749z"></path>
<path d="M24 20.496c0 0.414-0.342 0.749-0.764 0.749h-14.474c-0.422 0-0.763-0.335-0.763-0.749s0.342-0.749 0.763-0.749h14.474c0.422 0 0.764 0.336 0.764 0.749z"></path>
</symbol>
<symbol id="icon-box" viewBox="0 0 32 32">
<path d="M31.406 8.317c-0-0.010-0.001-0.020-0.002-0.031-0.002-0.030-0.006-0.059-0.012-0.088-0.001-0.005-0.002-0.011-0.003-0.017-0.004-0.016-0.008-0.032-0.013-0.048-0.002-0.007-0.005-0.015-0.007-0.022-0.005-0.015-0.011-0.030-0.017-0.045-0.003-0.008-0.007-0.015-0.010-0.023-0.010-0.022-0.021-0.043-0.034-0.063-0.007-0.012-0.014-0.023-0.021-0.034-0.006-0.009-0.013-0.018-0.019-0.026-0.009-0.012-0.019-0.024-0.029-0.035-0.006-0.007-0.012-0.014-0.019-0.021-0.013-0.014-0.028-0.028-0.042-0.040-0.004-0.003-0.008-0.007-0.012-0.011-0.020-0.017-0.042-0.033-0.064-0.047-0-0-0.001-0-0.001-0.001-0.001-0.001-0.003-0.002-0.005-0.002-0.015-0.009-0.030-0.019-0.046-0.027l-14.755-7.667c-0.18-0.093-0.393-0.093-0.574 0l-14.775 7.667c-0.016 0.008-0.031 0.018-0.047 0.027-0.001 0.001-0.002 0.001-0.003 0.002l-0.001 0.001c-0.023 0.015-0.045 0.031-0.066 0.049l-0.001 0.001c-0.020 0.017-0.039 0.036-0.057 0.055-0.002 0.002-0.003 0.004-0.005 0.005-0.122 0.135-0.186 0.316-0.175 0.5v14.957c0 0.248 0.134 0.476 0.345 0.591l14.754 8c0.092 0.051 0.195 0.076 0.297 0.076 0.003 0 0.007-0.001 0.010-0.001s0.007 0.001 0.010 0.001c0.101 0 0.204-0.025 0.297-0.076l14.755-8c0.212-0.115 0.345-0.343 0.345-0.591v-15c0-0.005-0.001-0.010-0.001-0.016zM15.348 30.233l-13.471-7.304v-13.518l13.471 7v13.822zM16 15.26l-13.329-6.926 13.34-6.922 13.319 6.922-13.33 6.926zM30.123 22.929l-13.471 7.304v-13.822l13.471-7v13.518z"></path>
<path d="M24.407 26.029l-1.303 0.691 0.005-15.044-13.428-6.979 1.413-0.734 13.319 6.922-0.006 15.144z"></path>
</symbol>
<symbol id="icon-car" viewBox="0 0 32 32">
<path d="M30.978 14.866l-2.235-0.983-1.884-3.725c-0.485-0.972-1.454-1.572-2.534-1.564h-3.332v-1.044c0-1.602-1.27-2.905-2.83-2.905h-15.347c-1.553 0-2.816 1.303-2.816 2.905v14.114c-0.013 0.948 0.734 1.728 1.666 1.742h0.529v0.123c0 0.046-0.003 0.078-0.005 0.103-0.001 0.015-0.002 0.028-0.002 0.043-0.002 0.457 0.090 0.891 0.239 1.296 0.228-0.352 0.595-0.609 1.045-0.684-0.047-0.19-0.079-0.386-0.079-0.59 0-0.359 0.081-0.698 0.218-1.005-0.377-0.262-0.648-0.728-0.691-1.203-0.146 0.2-0.279 0.411-0.384 0.642l-0.032 0.072h-0.812c-0.282 0-0.495-0.226-0.495-0.525v-3.889h18.597v4.414h-10.693l-0.032-0.072c-0.066-0.145-0.143-0.283-0.225-0.416-0.015 0.030-0.016 0.060-0.033 0.089-0.186 0.317-0.533 0.574-0.915 0.7 0.196 0.354 0.318 0.757 0.318 1.191 0 0.395-0.101 0.763-0.265 1.093 0.387 0.32 0.559 0.836 0.52 1.341 0.595-0.67 0.933-1.519 0.936-2.427v-0.036c0-0.049 0-0.067-0.007-0.134l-0.013-0.135h12.657v0.269c-0 0.103 0.020 0.202 0.028 0.303 0.202-0.106 0.414-0.195 0.653-0.285 0.193-0.072 0.37-0.093 0.539-0.093 0.019-0.422 0.137-0.818 0.341-1.159-0.392-0.161-0.729-0.489-0.899-0.854-0.119 0.173-0.224 0.358-0.313 0.552l-0.032 0.071h-1.364v-7.266h7.201l2.318 1.037c0.186 0.095 0.305 0.298 0.297 0.507v5.197c0 0.299-0.213 0.525-0.495 0.525h-1.358l-0.033-0.071c-0.078-0.169-0.178-0.32-0.277-0.471-0.17 0.278-0.407 0.511-0.712 0.641-0.083 0.036-0.17 0.047-0.255 0.073 0.243 0.382 0.387 0.834 0.387 1.322 0 0.085-0.016 0.165-0.025 0.247 0.437 0.124 0.815 0.438 1.034 0.83 0.106-0.343 0.18-0.7 0.181-1.077v-0.305h1.050c0.934 0 1.693-0.772 1.693-1.72v-5.221c0.013-0.672-0.397-1.307-1.021-1.584zM19.796 16.573h-18.597v-9.015c0-0.931 0.726-1.688 1.618-1.688h15.347c0.44 0.004 0.852 0.181 1.16 0.5s0.476 0.738 0.472 1.181v9.022zM20.993 13.721v-3.902h3.331c0.622-0.008 1.188 0.334 1.475 0.892l1.531 3.010h-6.337z"></path>
<path d="M5.798 20.017c-1.992 0-3.607 1.641-3.607 3.665s1.615 3.665 3.607 3.665 3.607-1.641 3.607-3.665c0-2.024-1.615-3.665-3.607-3.665zM5.798 26.137c-1.334 0-2.416-1.099-2.416-2.455s1.082-2.455 2.416-2.455 2.416 1.099 2.416 2.455c0 1.356-1.082 2.455-2.416 2.455z"></path>
<path d="M25.656 20.017c-1.992 0-3.607 1.641-3.607 3.665s1.615 3.665 3.607 3.665c1.992 0 3.607-1.641 3.607-3.665s-1.615-3.665-3.607-3.665zM25.656 26.137c-1.334 0-2.416-1.099-2.416-2.455s1.082-2.455 2.416-2.455c1.334 0 2.416 1.099 2.416 2.455s-1.082 2.455-2.416 2.455z"></path>
</symbol>
<symbol id="icon-cards" viewBox="0 0 32 32">
<path d="M31.431 5.878c-0.415-0.499-0.995-0.803-1.635-0.858l-22.535-1.915c-0.64-0.054-1.262 0.148-1.752 0.57-0.488 0.42-0.787 1.008-0.842 1.656l-0.453 4.328h-1.81c-1.325 0-2.403 1.097-2.403 2.445v14.353c0 1.348 1.078 2.446 2.403 2.446h22.613c1.325 0 2.404-1.097 2.404-2.446v-2.328l0.802 0.068c0.068 0.006 0.135 0.009 0.202 0.009 1.235 0 2.289-0.967 2.393-2.242l1.174-14.303c0.053-0.651-0.146-1.284-0.56-1.783zM26.17 26.458c0 0.647-0.517 1.174-1.153 1.174h-22.613c-0.636 0-1.153-0.527-1.153-1.174v-7.863h24.92v7.863zM26.17 17.323h-24.92v-2.638h24.92v2.638zM26.17 13.412h-24.92v-1.308c0-0.647 0.517-1.174 1.153-1.174h22.613c0.636 0 1.153 0.526 1.153 1.174v1.308zM29.572 21.858c-0.053 0.645-0.612 1.126-1.245 1.072l-0.906-0.077v-10.748c0-1.348-1.078-2.445-2.404-2.445h-19.546l0.44-4.2c0-0.005 0.001-0.010 0.001-0.014 0.053-0.645 0.611-1.126 1.245-1.072l22.535 1.915c0.307 0.026 0.586 0.172 0.785 0.412s0.294 0.543 0.269 0.856l-1.174 14.303z"></path>
<path d="M23.554 20.485h-6.015c-0.345 0-0.625 0.285-0.625 0.636v3.993c0 0.351 0.28 0.636 0.625 0.636h6.015c0.345 0 0.625-0.285 0.625-0.636v-3.993c0-0.351-0.28-0.636-0.625-0.636zM22.929 24.478h-4.765v-2.721h4.765v2.721z"></path>
</symbol>
<symbol id="icon-cart" viewBox="0 0 32 32">
<path d="M13.157 19.335l-2.321-13.869 20.873 3.789v10.401l-18.553-0.321zM30.418 22.021h-19.309l-4.182-21.381h-5.345c-0.874 0-1.582 0.75-1.582 1.675s0.708 1.673 1.582 1.673h2.77l4.182 21.381h21.885c0.874 0 1.582-0.749 1.582-1.674s-0.708-1.674-1.582-1.674zM13.092 26.896c-1.165 0-2.109 1-2.109 2.233s0.944 2.232 2.109 2.232c1.165 0 2.109-0.999 2.109-2.232s-0.944-2.233-2.109-2.233zM25.956 26.896c-1.165 0-2.109 1-2.109 2.233s0.944 2.232 2.109 2.232c1.165 0 2.11-0.999 2.11-2.232s-0.945-2.233-2.11-2.233z"></path>
</symbol>
<symbol id="icon-chart" viewBox="0 0 32 32">
<path d="M9.145 13.713v17.142c0 0.629-0.509 1.145-1.145 1.145h-6.855c-0.629 0-1.145-0.509-1.145-1.145v-17.142c0.007-0.636 0.515-1.145 1.145-1.145h6.855c0.629 0 1.145 0.509 1.145 1.145zM19.428 0h-6.855c-0.629 0-1.145 0.509-1.145 1.138v29.717c0 0.636 0.515 1.145 1.145 1.145h6.855c0.636 0 1.145-0.516 1.145-1.145v-29.71c0-0.636-0.515-1.145-1.145-1.145zM30.855 9.14h-6.855c-0.636 0-1.145 0.509-1.145 1.145v20.57c0 0.636 0.515 1.145 1.145 1.145h6.855c0.636 0 1.145-0.516 1.145-1.145v-20.57c0-0.636-0.515-1.145-1.145-1.145z"></path>
</symbol>
<symbol id="icon-check" viewBox="0 0 32 32">
<path d="M29.425 4l-19.262 18.937-7.588-7.46-2.575 2.532 10.163 9.992 21.837-21.468-2.575-2.532z"></path>
</symbol>
<symbol id="icon-close" viewBox="0 0 32 32">
<path d="M14.233 16l-13.866-13.866c-0.488-0.488-0.488-1.28 0-1.768s1.28-0.488 1.768 0l13.866 13.866 13.866-13.866c0.488-0.488 1.28-0.488 1.768 0s0.488 1.28 0 1.768l-13.866 13.866 13.866 13.866c0.488 0.488 0.488 1.28 0 1.768-0.244 0.244-0.564 0.366-0.884 0.366s-0.64-0.122-0.884-0.366l-13.866-13.866-13.866 13.866c-0.244 0.244-0.564 0.366-0.884 0.366s-0.64-0.122-0.884-0.366c-0.488-0.488-0.488-1.28 0-1.768l13.866-13.866z"></path>
</symbol>
<symbol id="icon-delivery" viewBox="0 0 32 32">
<path d="M26.451 10.833h-3.499v-1.478c0-0.549-0.447-0.996-0.996-0.996h-11.505c-0.549 0-0.996 0.447-0.996 0.996v10.293c0 0.549 0.447 0.996 0.996 0.996h1.35c0.040 1.426 1.212 2.574 2.648 2.574s2.608-1.148 2.648-2.574h7.215c0.041 1.426 1.212 2.574 2.648 2.574s2.608-1.148 2.648-2.574h0.918c0.549 0 0.996-0.447 0.996-0.996v-3.742c0-2.797-2.275-5.072-5.072-5.072zM10.173 19.647v-10.293c0-0.153 0.125-0.278 0.278-0.278h11.505c0.153 0 0.278 0.125 0.278 0.278v10.571h-5.214c-0.070-0.283-0.186-0.551-0.348-0.799l-0-0c-0-0-0-0-0-0l-0-0c-0.001-0.002-0.003-0.004-0.004-0.006l-0-0c0 0-0-0-0-0s-0.001-0.001-0.001-0.001-0-0-0.001-0.001c-0.018-0.028-0.038-0.056-0.057-0.083-0-0-0-0-0-0.001l-0.001-0.001c-0-0-0-0-0-0l-0-0-0.008-0.012c-0-0-0-0-0-0s-0-0.001-0.001-0.001c-0.020-0.027-0.040-0.054-0.060-0.080l-0-0-0.012-0.015c-0-0-0-0-0-0.001s-0-0-0-0c-0.020-0.025-0.040-0.049-0.060-0.073-0-0-0-0.001-0.001-0.001l-0.015-0.017-0 0c-0.001-0.001-0.001-0.001-0.002-0.002-0.021-0.024-0.042-0.047-0.063-0.070l-0-0-0.018-0.019-0-0c0-0 0-0-0-0-0.021-0.022-0.043-0.045-0.065-0.066-0-0-0-0-0-0s-0-0-0-0l-0.019-0.018c-0-0-0-0-0-0l-0-0c-0.022-0.021-0.045-0.043-0.068-0.063l-0-0-0.018-0.016c0 0-0-0-0-0s-0-0-0-0c-0.023-0.020-0.046-0.040-0.070-0.060-0-0-0.001-0.001-0.001-0.001s-0.001-0.001-0.001-0.001-0-0-0-0-0-0-0-0c-0.004-0.003-0.007-0.006-0.012-0.009-0-0-0-0-0.001-0-0.081-0.065-0.167-0.126-0.255-0.182-0-0-0-0-0-0l-0.003-0.002c-0.006-0.004-0.012-0.008-0.018-0.011-0-0-0-0-0-0s-0-0-0-0c-0.017-0.011-0.035-0.021-0.053-0.031l-0.011-0.006c-0 0-0-0-0-0l-0.011-0.006c-0.011-0.006-0.022-0.013-0.033-0.019 0 0-0-0-0-0-0.016-0.009-0.032-0.017-0.048-0.026l-0.010-0.005c0 0-0-0-0-0l-0.009-0.005c-0.014-0.007-0.028-0.015-0.042-0.022-0-0-0-0-0-0l-0-0c-0.017-0.008-0.034-0.016-0.051-0.024l-0.005-0.002-0-0-0-0c-0.019-0.009-0.037-0.017-0.056-0.025 0 0-0-0-0-0s-0-0-0-0c-0.018-0.008-0.037-0.015-0.056-0.023 0 0-0-0-0-0-0.020-0.008-0.040-0.016-0.060-0.024-0 0-0-0-0-0-0.018-0.007-0.037-0.013-0.055-0.020 0 0-0-0-0-0s-0-0-0-0-0-0-0-0-0-0-0-0c-0.021-0.007-0.042-0.014-0.063-0.021-0-0-0-0-0-0-0.018-0.006-0.037-0.012-0.055-0.017 0 0 0 0-0 0s-0-0-0-0c-0.022-0.007-0.044-0.013-0.067-0.019 0 0-0 0-0-0-0.018-0.005-0.036-0.010-0.054-0.014 0 0-0-0-0-0-0.023-0.006-0.046-0.011-0.070-0.016l-0-0-0.004-0.001c-0.017-0.004-0.033-0.007-0.050-0.011l-0-0c-0.024-0.005-0.049-0.009-0.074-0.013l-0-0h-0l-0.011-0.002c-0.013-0.002-0.027-0.005-0.041-0.007h-0c-0.026-0.004-0.053-0.007-0.079-0.010-0 0-0 0-0 0l-0.012-0.001c-0.012-0.002-0.024-0.003-0.037-0.004l-0-0c-0.030-0.003-0.060-0.005-0.091-0.007-0 0-0 0-0-0l-0.009-0.001c-0.010-0.001-0.020-0.001-0.029-0.002-0 0-0 0-0 0s-0 0-0 0c-0.091-0.004-0.172-0.004-0.263 0h-0c-0 0-0 0-0 0-0.010 0.001-0.019 0.001-0.029 0.002l-0.009 0.001c-0.030 0.002-0.061 0.004-0.091 0.007-0 0-0 0-0 0s-0 0-0 0-0 0-0 0h-0c-0.012 0.001-0.024 0.003-0.036 0.004l-0.012 0.001c-0.027 0.003-0.053 0.006-0.079 0.010h-0c-0.014 0.002-0.027 0.004-0.041 0.007l-0.011 0.002h-0c0 0-0 0-0 0-0.025 0.004-0.049 0.008-0.074 0.013 0 0-0 0-0 0-0.016 0.003-0.033 0.007-0.049 0.010l-0.005 0.001-0 0c0 0-0 0-0 0-0.023 0.005-0.046 0.010-0.069 0.016-0.018 0.005-0.036 0.009-0.055 0.014-0 0-0 0-0.001 0l-0 0c-0.022 0.006-0.044 0.012-0.066 0.019l-0 0c-0.019 0.006-0.037 0.011-0.055 0.017l-0 0c-0.021 0.007-0.042 0.014-0.063 0.021-0 0-0 0-0 0-0.019 0.007-0.037 0.013-0.056 0.020l-0 0c-0.020 0.008-0.040 0.015-0.060 0.023-0 0-0 0-0 0l-0 0c-0.019 0.008-0.037 0.015-0.056 0.023 0 0-0 0-0 0l-0 0c-0.018 0.008-0.036 0.016-0.053 0.024l0 0c-0.001 0-0.002 0.001-0.003 0.001l-0.006 0.003c-0.017 0.008-0.034 0.016-0.050 0.024 0 0-0 0-0 0l-0 0c-0 0-0 0-0.001 0s-0 0-0.001 0c-0.014 0.007-0.027 0.014-0.040 0.020l-0.010 0.005c-0 0-0 0-0 0s-0 0-0 0l-0.010 0.005c-0.016 0.008-0.032 0.017-0.048 0.025-0 0-0 0-0 0-0.011 0.006-0.022 0.013-0.033 0.019l-0.010 0.006h-0l-0.010 0.006c-0.018 0.010-0.035 0.020-0.053 0.031-0 0-0 0-0 0s-0 0-0 0-0 0-0 0-0 0-0 0c-0.006 0.004-0.012 0.008-0.020 0.013-0.014 0.009-0.028 0.018-0.042 0.027-0.008 0.005-0.016 0.011-0.025 0.016-0.013 0.009-0.026 0.018-0.038 0.026-0.009 0.006-0.018 0.012-0.027 0.019-0.036 0.026-0.072 0.053-0.106 0.080-0.006 0.005-0.013 0.010-0.019 0.015-0 0-0 0-0 0-0.004 0.003-0.009 0.007-0.013 0.010-0 0-0.001 0.001-0.001 0.001-0.024 0.020-0.048 0.040-0.071 0.061 0 0-0 0-0 0s-0 0-0 0l-0.018 0.016c-0 0-0 0-0 0s-0 0-0 0c-0.023 0.021-0.046 0.042-0.068 0.063 0 0-0 0-0 0l-0.020 0.019c0 0-0 0-0 0-0.022 0.021-0.043 0.043-0.065 0.066l-0 0-0.018 0.019c-0 0-0 0-0.001 0.001s-0 0-0.001 0.001c-0.021 0.022-0.041 0.045-0.062 0.069 0 0-0 0-0 0l-0 0.001c0 0-0 0-0 0l-0 0-0.016 0.019c-0 0-0 0-0 0.001-0.021 0.024-0.041 0.049-0.061 0.073l-0 0c-0 0-0 0-0 0l-0.013 0.017-0 0c-0.020 0.026-0.040 0.053-0.060 0.080 0 0-0 0-0 0l-0 0-0.009 0.012-0 0c-0 0-0 0-0 0l-0 0.001c0 0-0 0-0 0-0.020 0.027-0.038 0.055-0.057 0.083-0 0-0 0-0.001 0.001s-0.001 0.001-0.001 0.002c-0 0-0 0.001-0.001 0.001s-0 0-0 0c-0.001 0.002-0.003 0.004-0.004 0.006l-0 0c0 0-0 0-0 0-0.161 0.248-0.278 0.517-0.348 0.8h-1.427c-0.153 0-0.278-0.125-0.278-0.278zM13.23 19.069v0zM14.45 22.499c-1.065 0-1.932-0.867-1.932-1.932 0-0.078 0.005-0.156 0.015-0.24v-0c0.033-0.269 0.121-0.522 0.26-0.753 0.012-0.019 0.023-0.039 0.035-0.058 0 0 0-0 0-0 0.001-0.001 0.002-0.003 0.003-0.004l0-0c0.014-0.022 0.029-0.043 0.044-0.064 0-0 0-0 0-0s0-0 0-0l0.007-0.009c0.014-0.020 0.029-0.039 0.044-0.058l0-0 0.010-0.012c0.014-0.018 0.029-0.036 0.044-0.054v0c0 0 0-0 0-0l0.011-0.013 0-0c0-0 0-0 0-0 0.015-0.017 0.030-0.034 0.046-0.051l0.013-0.014 0-0c0 0 0-0 0-0 0.016-0.016 0.031-0.032 0.047-0.048l0-0 0.014-0.014 0-0c0.016-0.016 0.032-0.031 0.049-0.046h0l0.014-0.012c0 0 0-0 0-0 0.017-0.015 0.035-0.030 0.052-0.045l0.009-0.007 0-0c0-0 0-0 0-0 0.030-0.024 0.061-0.047 0.092-0.070s0.064-0.044 0.097-0.065c0-0 0-0 0.001-0l0.014-0.009c0-0 0-0 0-0s0-0 0-0c0.011-0.007 0.023-0.014 0.035-0.020l0.011-0.006 0.014-0.008c0.006-0.003 0.011-0.007 0.017-0.010l0-0c0.010-0.006 0.021-0.011 0.032-0.017l0.011-0.006c0 0 0 0 0 0l0.012-0.006c0.008-0.004 0.017-0.009 0.025-0.013 0-0 0-0 0-0s0-0 0-0c0.011-0.006 0.023-0.011 0.035-0.016l0.007-0.003c0.001-0 0.002-0.001 0.003-0.002l0 0c0.012-0.006 0.025-0.012 0.038-0.017l0-0c0 0 0-0 0-0 0.014-0.006 0.027-0.011 0.041-0.017s0.029-0.012 0.044-0.017l0-0c0.013-0.005 0.027-0.010 0.041-0.015 0 0 0-0 0-0 0.015-0.005 0.030-0.011 0.046-0.016 0.014-0.004 0.027-0.009 0.041-0.013 0 0 0-0 0-0 0.016-0.005 0.032-0.009 0.048-0.014 0.013-0.004 0.027-0.007 0.040-0.011 0.017-0.004 0.034-0.008 0.051-0.012l0-0 0.005-0.001c0.011-0.002 0.022-0.005 0.034-0.007v-0c0 0 0 0 0 0 0.018-0.003 0.036-0.007 0.054-0.010l0.014-0.002c0.008-0.001 0.016-0.003 0.025-0.004 0.019-0.003 0.038-0.005 0.058-0.007l0.017-0.002c0.006-0.001 0.012-0.002 0.018-0.002 0 0 0-0 0-0s0 0 0 0c0.022-0.002 0.044-0.004 0.066-0.005l0.029-0.002c0.066-0.003 0.126-0.003 0.192 0v0l0.028 0.002c0 0 0 0 0.001 0s0 0 0 0c0.022 0.001 0.045 0.003 0.067 0.005h0c0.006 0.001 0.012 0.001 0.018 0.002l0.017 0.002c0.019 0.002 0.039 0.005 0.058 0.007v0l0 0c0.008 0.001 0.016 0.003 0.025 0.004l0.013 0.002c0 0 0 0 0 0 0.018 0.003 0.036 0.006 0.054 0.010l0 0c0.012 0.002 0.023 0.005 0.035 0.007l0.004 0.001 0 0c0.017 0.004 0.034 0.008 0.051 0.012l0 0c0.013 0.003 0.027 0.007 0.040 0.010 0 0 0 0 0 0 0.016 0.004 0.032 0.009 0.048 0.014h0c0.013 0.004 0.027 0.008 0.040 0.012 0 0 0 0 0 0 0.015 0.005 0.031 0.010 0.046 0.016 0 0 0 0 0 0l0 0c0.013 0.005 0.027 0.009 0.040 0.014 0 0 0 0 0 0 0.015 0.006 0.029 0.011 0.044 0.017 0 0 0 0 0 0 0.014 0.006 0.027 0.011 0.041 0.017l0 0c0 0 0 0 0 0 0.014 0.006 0.027 0.012 0.041 0.018l0 0c0 0 0 0 0 0l0.006 0.003c0.012 0.005 0.024 0.011 0.035 0.017l0 0c0.009 0.005 0.018 0.009 0.027 0.014l0.010 0.005c0 0 0 0 0 0l0.011 0.006c0.011 0.005 0.021 0.011 0.031 0.017l0 0c0.006 0.003 0.011 0.007 0.017 0.010l0.015 0.009v0l0.011 0.007c0.011 0.007 0.023 0.013 0.034 0.020l0.016 0.010c0 0 0 0 0 0 0.065 0.041 0.128 0.086 0.188 0.134 0 0 0 0 0.001 0l0.008 0.007c0.018 0.015 0.035 0.030 0.053 0.045 0 0 0 0 0 0l0.014 0.012c0 0 0 0 0 0 0.017 0.015 0.033 0.030 0.049 0.046l0.015 0.014c0.016 0.016 0.032 0.032 0.047 0.048h0l0.014 0.015c0.016 0.017 0.031 0.034 0.046 0.051 0 0.001 0.001 0.001 0.002 0.002l-0 0 0.010 0.011c0 0 0 0 0 0s0 0 0 0c0.015 0.018 0.030 0.036 0.044 0.054l0.010 0.012 0 0 0 0c0.015 0.019 0.030 0.039 0.044 0.059l0 0 0.005 0.007c0 0 0 0 0.001 0.001s0 0.001 0.001 0.001c0.015 0.021 0.029 0.042 0.043 0.063 0.001 0.001 0.002 0.003 0.003 0.005 0 0 0 0 0 0 0.012 0.019 0.023 0.037 0.034 0.056 0.12 0.2 0.203 0.415 0.244 0.644 0.007 0.037 0.013 0.074 0.017 0.112v0c0.010 0.084 0.015 0.162 0.015 0.239 0 1.065-0.867 1.932-1.932 1.932zM26.961 22.499c-1.065 0-1.932-0.867-1.932-1.932 0-0.077 0.005-0.155 0.015-0.239v-0c0.036-0.292 0.136-0.565 0.296-0.812 0-0 0-0.001 0.001-0.001s0-0 0.001-0.001l-0-0c0-0 0-0.001 0.001-0.001s0.001-0.001 0.001-0.002c0.014-0.022 0.029-0.043 0.044-0.064 0-0 0-0 0-0s0-0 0-0l0.007-0.009c0.014-0.020 0.029-0.039 0.044-0.058v0c0 0 0-0 0-0l0.010-0.013 0-0c0.014-0.018 0.029-0.036 0.044-0.054 0 0 0-0 0-0s0-0 0-0l0.010-0.012c0 0 0.001-0.002 0.002-0.002s0-0 0-0 0-0 0-0c0.015-0.017 0.030-0.034 0.046-0.051l0.013-0.013c0 0 0-0 0-0s0-0 0.001-0c0.015-0.016 0.031-0.032 0.047-0.048l0.014-0.014c0.016-0.016 0.033-0.031 0.050-0.046v-0c0 0 0-0 0-0l0.014-0.012c0.017-0.015 0.035-0.030 0.053-0.045l0.009-0.007c0.030-0.024 0.060-0.047 0.091-0.069s0.063-0.044 0.096-0.064l0.017-0.011c0.011-0.007 0.022-0.013 0.033-0.020l0.012-0.007c0-0 0-0 0-0l0.015-0.008c0.006-0.003 0.011-0.007 0.017-0.010 0 0 0-0 0-0s0-0 0-0c0.011-0.006 0.021-0.011 0.032-0.017l0.010-0.005c0 0 0-0 0-0s0-0 0-0l0.009-0.005c0.010-0.005 0.019-0.010 0.029-0.015 0.011-0.006 0.023-0.011 0.035-0.016l0.007-0.003 0-0c0.014-0.006 0.027-0.013 0.041-0.019s0.027-0.011 0.040-0.017c0-0 0-0 0-0 0.014-0.006 0.029-0.012 0.043-0.017 0 0 0-0 0-0h0c0.013-0.005 0.027-0.010 0.040-0.015 0 0 0-0 0-0s0-0 0-0c0.015-0.005 0.030-0.011 0.046-0.015l0-0c0-0 0-0 0-0 0.013-0.004 0.027-0.009 0.040-0.012l0-0c0.016-0.005 0.032-0.009 0.049-0.014l0-0c0.013-0.003 0.026-0.007 0.039-0.010 0 0 0-0 0-0s0 0 0 0c0.017-0.004 0.034-0.008 0.051-0.012l0.008-0.002c0.011-0.002 0.021-0.005 0.032-0.007l0-0c0.018-0.003 0.036-0.006 0.054-0.009l0-0 0.013-0.002c0.008-0.001 0.017-0.003 0.025-0.004l0-0c0.019-0.003 0.038-0.005 0.058-0.007 0 0 0 0 0-0l0.017-0.002c0.006-0.001 0.012-0.002 0.018-0.002 0 0 0-0 0-0h0c0.022-0.002 0.044-0.004 0.066-0.005h0l0.029-0.002c0.066-0.003 0.126-0.003 0.192 0v0l0.029 0.002c0 0 0 0 0 0 0.022 0.001 0.044 0.003 0.066 0.005h0c0.006 0.001 0.012 0.001 0.018 0.002l0.017 0.002c0 0 0 0 0 0 0.019 0.002 0.039 0.005 0.058 0.007v0l0 0c0.008 0.001 0.016 0.003 0.025 0.004l0.013 0.002 0 0c0.018 0.003 0.036 0.006 0.054 0.010 0 0 0 0 0 0 0.012 0.002 0.023 0.005 0.035 0.007l0.004 0.001c0 0 0 0 0 0l0 0c0.017 0.004 0.034 0.008 0.051 0.012 0.013 0.003 0.027 0.007 0.040 0.010l0 0c0.016 0.004 0.032 0.009 0.048 0.014 0.013 0.004 0.027 0.008 0.040 0.013 0.015 0.005 0.031 0.010 0.046 0.016l0 0c0 0 0 0 0 0 0.014 0.005 0.027 0.010 0.040 0.015l0 0c0.015 0.006 0.029 0.011 0.044 0.017 0 0 0 0 0 0 0.014 0.006 0.027 0.011 0.041 0.017l0 0c0 0 0 0 0 0 0.014 0.006 0.027 0.012 0.041 0.019 0 0 0 0 0 0s0 0 0 0l0.004 0.002c0.012 0.006 0.025 0.011 0.037 0.017 0.009 0.005 0.018 0.009 0.027 0.014l0.010 0.005 0 0 0.008 0.004c0.011 0.006 0.023 0.012 0.034 0.018 0.006 0.003 0.011 0.006 0.017 0.010l0.015 0.009c0 0 0 0 0 0l0.010 0.006c0.012 0.007 0.023 0.013 0.035 0.020l0.015 0.010c0 0 0 0 0.001 0s0.001 0 0.001 0.001c0.065 0.041 0.128 0.086 0.188 0.134 0 0 0 0 0.001 0l0.008 0.006c0.018 0.015 0.035 0.030 0.053 0.045 0 0 0 0 0 0s0 0 0 0l0.014 0.012c0.017 0.015 0.033 0.030 0.049 0.046 0 0 0 0 0 0s0 0 0 0l0.013 0.013c0 0 0 0 0 0 0.016 0.016 0.032 0.032 0.048 0.048l0 0c0 0 0 0 0 0l0.013 0.014c0 0 0 0 0 0 0.016 0.017 0.031 0.034 0.046 0.051v0c0 0 0 0 0 0l0.011 0.013 0 0c0.015 0.018 0.030 0.036 0.045 0.054 0 0 0 0 0 0l0.009 0.012c0 0 0 0 0 0 0.015 0.019 0.030 0.039 0.044 0.059v0l0 0 0.006 0.009c0 0 0 0 0 0 0.015 0.021 0.030 0.042 0.044 0.064 0 0 0 0 0 0s0.001 0.001 0.001 0.002 0.001 0.001 0.001 0.002c0.16 0.247 0.26 0.52 0.296 0.812 0 0 0 0 0 0 0.010 0.084 0.015 0.162 0.015 0.239 0 1.065-0.867 1.932-1.932 1.932zM30.805 19.647c0 0.153-0.125 0.278-0.278 0.278h-0.995c-0.070-0.282-0.186-0.549-0.346-0.797-0-0-0-0-0-0l-0.001-0.002c-0-0-0-0.001-0.001-0.001l-0-0-0.003-0.005c-0-0-0-0-0-0s-0-0-0-0l-0.001-0.001c-0-0-0-0-0-0.001-0.019-0.029-0.039-0.058-0.059-0.086-0-0-0-0-0.001-0.001s-0-0-0-0.001l-0.008-0.012c-0.020-0.027-0.040-0.054-0.060-0.080-0-0-0-0-0-0l-0.012-0.016-0-0c-0.020-0.025-0.041-0.050-0.061-0.075-0-0-0-0-0-0s-0-0-0-0l-0.016-0.018c0 0-0-0-0-0-0.020-0.023-0.041-0.047-0.062-0.069 0 0-0-0-0-0l-0.018-0.019c0 0-0-0-0-0-0.021-0.022-0.043-0.044-0.065-0.066-0-0-0-0-0-0-0.005-0.005-0.010-0.010-0.015-0.015l-0.004-0.004c0 0-0-0-0-0-0.022-0.021-0.044-0.042-0.067-0.062-0-0-0-0-0-0l-0-0c-0.005-0.004-0.010-0.008-0.015-0.013l-0.003-0.003c-0-0-0-0-0-0l-0.001-0.001-0-0c-0.024-0.021-0.048-0.041-0.072-0.061-0-0-0.001-0-0.001-0.001s-0-0-0.001-0.001l-0.011-0.009c-0 0-0-0-0-0-0.081-0.065-0.166-0.126-0.254-0.181-0-0-0-0-0.001-0.001l-0.003-0.002c-0.006-0.004-0.013-0.008-0.020-0.012 0 0-0-0-0-0s-0 0-0-0-0-0-0-0-0-0-0-0c-0.017-0.011-0.035-0.021-0.053-0.031l-0.009-0.005c-0-0-0-0-0-0l-0.011-0.006c-0.011-0.006-0.022-0.013-0.033-0.019 0 0-0 0-0-0l-0-0c-0.017-0.009-0.034-0.018-0.051-0.027l-0.017-0.009c-0.014-0.007-0.028-0.015-0.042-0.022l-0-0c0 0-0 0-0 0-0.017-0.009-0.035-0.017-0.053-0.025l-0.003-0.002c0 0-0-0-0-0-0.019-0.009-0.038-0.017-0.056-0.026 0 0-0-0-0-0s-0-0-0-0l-0-0c-0.018-0.008-0.037-0.016-0.056-0.023-0-0-0-0-0-0-0.020-0.008-0.040-0.016-0.060-0.024 0 0-0-0-0-0-0.018-0.007-0.037-0.014-0.056-0.020 0 0-0-0-0-0-0.021-0.007-0.042-0.014-0.063-0.021h-0c-0 0-0-0-0-0-0.018-0.006-0.037-0.012-0.055-0.017-0 0-0 0-0 0s-0-0-0-0c-0.022-0.007-0.044-0.013-0.067-0.019 0 0-0 0-0-0-0.018-0.005-0.036-0.010-0.055-0.014-0.023-0.006-0.046-0.011-0.070-0.016l-0-0-0.004-0.001c-0.017-0.004-0.033-0.007-0.050-0.011h-0c-0.024-0.005-0.049-0.009-0.074-0.013l-0-0c0 0-0 0-0 0l-0.011-0.002c-0.013-0.002-0.027-0.005-0.041-0.007h-0c-0.026-0.004-0.053-0.007-0.079-0.010l-0-0-0.012-0.001c-0.012-0.001-0.024-0.003-0.036-0.004 0 0-0-0-0-0-0.030-0.003-0.061-0.005-0.092-0.007h-0l-0.009-0.001c-0.010-0.001-0.019-0.001-0.029-0.002-0 0-0 0-0 0h-0c-0.090-0.004-0.173-0.004-0.263 0-0 0-0 0-0 0s-0 0-0 0c-0.010 0.001-0.019 0.001-0.029 0.002l-0.009 0.001h-0c-0.030 0.002-0.060 0.004-0.090 0.007-0 0-0 0-0.001 0-0.012 0.001-0.025 0.003-0.037 0.004l-0.012 0.001c-0 0-0 0-0 0-0.027 0.003-0.053 0.006-0.080 0.010-0 0-0 0-0 0-0.014 0.002-0.027 0.004-0.041 0.007l-0.011 0.002h-0c-0.025 0.004-0.049 0.008-0.073 0.013-0 0-0 0-0 0-0.016 0.003-0.031 0.006-0.047 0.010l-0.007 0.002c-0 0-0 0-0 0s-0 0-0 0c-0.023 0.005-0.047 0.010-0.070 0.016l-0 0c-0.018 0.005-0.036 0.009-0.054 0.014-0 0-0 0-0 0l-0 0c-0.022 0.006-0.044 0.012-0.066 0.019l-0 0c-0.019 0.006-0.037 0.011-0.056 0.017-0 0-0 0-0 0-0.021 0.007-0.042 0.014-0.062 0.021l-0 0c-0.019 0.007-0.037 0.013-0.056 0.020l-0 0c-0.020 0.008-0.041 0.016-0.061 0.024-0 0-0 0-0.001 0-0.019 0.008-0.037 0.015-0.055 0.023 0 0-0 0-0 0s-0 0-0 0c-0.019 0.008-0.038 0.017-0.056 0.025-0 0-0 0-0 0l-0 0-0.006 0.003c-0.017 0.008-0.034 0.016-0.050 0.024 0 0-0 0-0 0h-0c-0.015 0.007-0.030 0.015-0.044 0.023l-0.017 0.009c-0.016 0.008-0.033 0.017-0.049 0.026-0 0-0 0-0 0s-0 0-0 0-0 0-0 0l-0 0c-0.011 0.006-0.022 0.012-0.033 0.019l-0.011 0.006-0 0c0 0-0 0-0 0l-0.011 0.006c-0.017 0.010-0.034 0.020-0.051 0.030l-0 0c-0 0-0 0-0 0l-0 0c-0.007 0.004-0.013 0.008-0.019 0.012l-0.003 0.002c-0.067 0.042-0.132 0.087-0.195 0.134-0.007 0.005-0.014 0.011-0.021 0.017-0.013 0.010-0.026 0.020-0.040 0.031-0 0-0 0-0 0-0.004 0.003-0.008 0.006-0.012 0.010-0 0-0 0-0 0-0.025 0.020-0.049 0.041-0.072 0.062-0 0-0 0-0 0l-0.004 0.003c-0.005 0.004-0.010 0.009-0.015 0.013l-0 0-0 0c-0 0-0 0-0 0-0.023 0.020-0.045 0.041-0.067 0.062-0 0-0 0-0 0s-0 0-0 0l-0.019 0.018c-0.022 0.021-0.043 0.043-0.064 0.065l-0.001 0.001-0 0-0.018 0.019c0 0-0 0-0 0s-0 0-0 0c-0.021 0.023-0.042 0.046-0.063 0.070-0 0-0 0-0.001 0.001s-0 0-0 0.001l-0.016 0.018c-0 0-0 0-0.001 0.001-0.020 0.024-0.041 0.048-0.060 0.073-0 0-0 0-0 0l-0.013 0.017c-0.021 0.026-0.041 0.053-0.060 0.080-0 0-0 0-0 0s-0 0-0 0l-0.009 0.013c0 0-0 0-0 0s-0 0-0 0l-0 0-0 0c-0.020 0.028-0.040 0.057-0.059 0.087-0 0-0 0-0 0.001s-0 0-0 0.001l-0.004 0.007c-0 0-0 0-0 0s-0.001 0.001-0.001 0.001c-0.16 0.248-0.276 0.514-0.346 0.797h-1.438v-8.374h3.499c2.401 0 4.354 1.953 4.354 4.354v3.742z"></path>
<path d="M8.004 19.71h-7.645c-0.198 0-0.359 0.161-0.359 0.359s0.161 0.359 0.359 0.359h7.645c0.198 0 0.359-0.161 0.359-0.359s-0.161-0.359-0.359-0.359z"></path>
<path d="M8.004 16.819h-5.734c-0.198 0-0.359 0.161-0.359 0.359s0.161 0.359 0.359 0.359h5.734c0.198 0 0.359-0.161 0.359-0.359s-0.161-0.359-0.359-0.359z"></path>
<path d="M8.004 13.927h-3.822c-0.198 0-0.359 0.161-0.359 0.359s0.161 0.359 0.359 0.359h3.822c0.198 0 0.359-0.161 0.359-0.359s-0.161-0.359-0.359-0.359z"></path>
</symbol>
<symbol id="icon-fb" viewBox="0 0 32 32">
<path d="M20.353 5.329h4.536v-5.326h-7.486c0 0-6.332-0.377-6.332 7.564v3.096h-3.96v5.272h3.96v16.066h6.040v-16.066h6.237l1.089-5.272h-7.326v-2.468c0-1.060 0.272-2.865 3.242-2.865z"></path>
</symbol>
<symbol id="icon-heart" viewBox="0 0 32 32">
<path d="M23.5 2.462c-1.736 0-3.328 0.527-4.732 1.568-1.345 0.997-2.241 2.267-2.768 3.191-0.527-0.924-1.423-2.194-2.768-3.191-1.403-1.040-2.995-1.568-4.732-1.568-4.846 0-8.5 3.799-8.5 8.837 0 5.443 4.559 9.166 11.461 14.804 1.172 0.957 2.5 2.042 3.881 3.2 0.182 0.153 0.416 0.237 0.658 0.237s0.476-0.084 0.658-0.237c1.381-1.158 2.709-2.243 3.882-3.2 6.901-5.637 11.46-9.36 11.46-14.803 0-5.038-3.654-8.837-8.5-8.837z"></path>
</symbol>
<symbol id="icon-inst" viewBox="0 0 32 32">
<path d="M31.904 9.403c-0.078-1.703-0.348-2.866-0.744-3.884-0.402-1.068-1.032-2.035-1.846-2.834-0.799-0.814-1.766-1.444-2.834-1.846-1.018-0.395-2.181-0.666-3.884-0.743-1.706-0.078-2.251-0.097-6.597-0.097s-4.89 0.019-6.597 0.096c-1.703 0.078-2.866 0.348-3.884 0.744-1.068 0.402-2.035 1.032-2.834 1.845-0.814 0.799-1.444 1.766-1.846 2.834-0.395 1.018-0.666 2.181-0.743 3.884-0.078 1.707-0.097 2.251-0.097 6.597s0.019 4.891 0.097 6.597c0.078 1.703 0.348 2.866 0.744 3.884 0.402 1.067 1.032 2.035 1.845 2.834 0.799 0.814 1.766 1.444 2.834 1.845 1.018 0.396 2.181 0.666 3.884 0.744 1.707 0.078 2.251 0.096 6.597 0.096s4.89-0.018 6.597-0.096c1.703-0.078 2.866-0.348 3.884-0.744 2.149-0.831 3.848-2.53 4.679-4.679 0.396-1.018 0.666-2.181 0.744-3.884 0.078-1.706 0.096-2.251 0.096-6.597s-0.019-4.89-0.096-6.597zM29.024 22.466c-0.071 1.56-0.332 2.407-0.551 2.971-0.538 1.395-1.641 2.498-3.037 3.037-0.564 0.219-1.411 0.48-2.971 0.551-1.687 0.077-2.193 0.093-6.465 0.093s-4.779-0.016-6.466-0.093c-1.56-0.071-2.407-0.332-2.971-0.551-0.695-0.257-1.323-0.666-1.84-1.197-0.532-0.516-0.94-1.145-1.197-1.84-0.219-0.564-0.48-1.411-0.551-2.971-0.077-1.687-0.093-2.193-0.093-6.465s0.016-4.778 0.093-6.466c0.071-1.56 0.332-2.407 0.551-2.971 0.257-0.695 0.666-1.324 1.197-1.84 0.516-0.532 1.145-0.94 1.84-1.197 0.564-0.219 1.411-0.48 2.971-0.551 1.687-0.077 2.193-0.093 6.465-0.093h-0c4.272 0 4.778 0.016 6.466 0.094 1.56 0.071 2.407 0.332 2.971 0.551 0.695 0.257 1.324 0.666 1.84 1.197 0.532 0.516 0.941 1.145 1.197 1.84 0.219 0.564 0.48 1.411 0.551 2.971 0.077 1.687 0.093 2.193 0.093 6.465s-0.016 4.778-0.093 6.466z"></path>
<path d="M16 7.783c-4.538 0-8.216 3.679-8.216 8.216s3.678 8.216 8.216 8.216c4.538 0 8.216-3.678 8.216-8.216s-3.678-8.216-8.216-8.216zM16 21.333c-2.945-0-5.333-2.388-5.333-5.334s2.388-5.333 5.333-5.333c2.946 0 5.333 2.388 5.333 5.333s-2.388 5.334-5.333 5.334z"></path>
<path d="M26.461 7.459c0 1.060-0.86 1.92-1.92 1.92s-1.92-0.86-1.92-1.92c0-1.061 0.86-1.92 1.92-1.92s1.92 0.86 1.92 1.92z"></path>
</symbol>
<symbol id="icon-letter" viewBox="0 0 32 32">
<path d="M31.934 31.778c0.005-0.008 0.010-0.017 0.014-0.026 0.003-0.005 0.005-0.010 0.007-0.015 0.004-0.008 0.008-0.017 0.011-0.026 0.002-0.005 0.004-0.011 0.006-0.017 0.003-0.008 0.006-0.017 0.008-0.026 0.002-0.006 0.003-0.012 0.005-0.018 0.002-0.008 0.004-0.017 0.006-0.025 0.001-0.007 0.002-0.013 0.003-0.020 0.001-0.008 0.002-0.016 0.003-0.025 0.001-0.007 0.001-0.014 0.001-0.021s0.001-0.012 0.001-0.018v-19.196c0-0.001 0-0.002 0-0.003v-0.001c0-0.002-0-0.003-0-0.004s-0-0.002-0-0.003c0-0.007-0-0.013-0.001-0.020s-0-0.012-0.001-0.018c-0-0.003-0.001-0.005-0.001-0.008-0.001-0.006-0.001-0.011-0.002-0.017-0.001-0.007-0.002-0.013-0.003-0.020-0.001-0.003-0.001-0.006-0.002-0.009-0.001-0.005-0.002-0.010-0.003-0.014-0.002-0.007-0.003-0.013-0.005-0.020-0.001-0.003-0.002-0.006-0.003-0.008-0.001-0.005-0.003-0.009-0.005-0.014-0.002-0.006-0.005-0.013-0.007-0.019-0.001-0.002-0.002-0.005-0.003-0.007-0.002-0.005-0.005-0.011-0.007-0.016s-0.005-0.012-0.008-0.017c-0.001-0.002-0.002-0.004-0.003-0.006-0.003-0.006-0.007-0.012-0.011-0.018-0.003-0.005-0.006-0.010-0.009-0.014-0.001-0.002-0.002-0.003-0.003-0.005-0.005-0.007-0.009-0.013-0.014-0.019-0.003-0.003-0.005-0.007-0.008-0.011-0-0.001-0.001-0.001-0.001-0.002s-0.002-0.003-0.003-0.004c-0.005-0.006-0.011-0.012-0.016-0.018s-0.011-0.011-0.016-0.017c-0.004-0.004-0.009-0.008-0.014-0.013-0.007-0.007-0.015-0.013-0.022-0.019-0.001-0.001-0.002-0.002-0.004-0.003l-4.163-3.186v-5.136c0-0.252-0.205-0.457-0.457-0.457h-6.862l-4.060-3.106c-0.164-0.125-0.391-0.125-0.555 0l-4.060 3.106h-6.862c-0.252 0-0.457 0.205-0.457 0.457v5.136l-4.164 3.186c-0.001 0.001-0.002 0.002-0.003 0.003-0.010 0.008-0.020 0.017-0.030 0.026-0.003 0.003-0.006 0.005-0.008 0.008-0.007 0.007-0.014 0.015-0.021 0.022-0.004 0.005-0.008 0.009-0.012 0.014-0 0-0.001 0.001-0.001 0.001s-0.001 0.001-0.001 0.001c-0.004 0.005-0.008 0.011-0.012 0.016s-0.009 0.012-0.014 0.019c-0.001 0.002-0.002 0.003-0.003 0.005s-0.002 0.004-0.003 0.005-0.004 0.007-0.006 0.010-0.007 0.012-0.010 0.018c-0.002 0.003-0.004 0.007-0.005 0.010s-0.003 0.007-0.005 0.010c-0.001 0.001-0.001 0.002-0.002 0.003-0.003 0.006-0.005 0.011-0.008 0.017s-0.004 0.010-0.006 0.016c-0.001 0.004-0.003 0.008-0.004 0.012-0.002 0.005-0.004 0.010-0.005 0.015-0.002 0.007-0.004 0.014-0.006 0.021-0.001 0.004-0.002 0.008-0.003 0.012s-0.002 0.007-0.002 0.010c-0.002 0.009-0.003 0.018-0.004 0.028-0.001 0.004-0.001 0.008-0.002 0.012-0 0.002-0 0.003-0.001 0.005-0.001 0.013-0.002 0.027-0.002 0.040 0 0 0 0 0 0-0 0.002-0 0.003-0 0.005 0 0 0 0.001 0 0.001v0c0 0.001 0 0.002 0 0.003v19.19c-0 0.002-0 0.004-0 0.006 0 0.253 0.205 0.457 0.458 0.457h31.085c0.017 0 0.034-0.001 0.050-0.003 0.004-0 0.008-0.001 0.012-0.002 0.013-0.002 0.025-0.004 0.038-0.007 0.004-0.001 0.008-0.002 0.013-0.003 0.012-0.003 0.024-0.006 0.035-0.010 0.004-0.001 0.008-0.003 0.013-0.005 0.011-0.004 0.022-0.009 0.033-0.014 0.004-0.002 0.008-0.004 0.013-0.006 0.011-0.005 0.021-0.011 0.031-0.017 0.004-0.002 0.008-0.005 0.011-0.007 0.011-0.007 0.022-0.015 0.032-0.023 0.002-0.002 0.005-0.004 0.008-0.006 0.013-0.011 0.025-0.021 0.037-0.033 0-0 0.001-0.001 0.001-0.001 0.011-0.011 0.022-0.023 0.032-0.035 0.001-0.001 0.001-0.002 0.002-0.002 0.002-0.003 0.004-0.006 0.006-0.009 0.006-0.008 0.013-0.017 0.018-0.026 0.003-0.004 0.005-0.009 0.008-0.013zM0.915 13.304l10.81 8.801-10.81 8.496v-17.297zM12.462 22.689c1.029 0.737 2.266 1.135 3.538 1.133 1.272 0.002 2.508-0.396 3.537-1.132l10.685 8.396h-28.443l10.683-8.397zM20.274 22.106l10.811-8.802v17.298l-10.811-8.496zM30.805 12.353l-3.148 2.564v-4.973l3.148 2.409zM16 1.032l2.833 2.167h-5.666l2.833-2.167zM26.743 4.114v4.793c-0.015 0.067-0.015 0.137 0 0.203v6.551l-7.489 6.098c-1.878 1.519-4.553 1.534-6.447 0.047-0.038-0.044-0.082-0.078-0.131-0.104l-7.418-6.041v-11.548h21.485zM4.343 14.917l-3.148-2.564 3.148-2.409v4.973zM8.457 7.543c0-0.252 0.205-0.457 0.457-0.457h14.171c0.253 0 0.457 0.205 0.457 0.457s-0.205 0.457-0.457 0.457h-14.171c-0.252 0-0.457-0.205-0.457-0.457zM8.457 11.085c0-0.252 0.205-0.457 0.457-0.457h14.171c0.253 0 0.457 0.205 0.457 0.457s-0.205 0.457-0.457 0.457h-14.171c-0.252 0-0.457-0.205-0.457-0.457zM8.457 14.628c0-0.252 0.205-0.457 0.457-0.457h14.171c0.253 0 0.457 0.205 0.457 0.457s-0.205 0.457-0.457 0.457h-14.171c-0.252 0-0.457-0.205-0.457-0.457z"></path>
</symbol>
<symbol id="icon-login" viewBox="0 0 32 32">
<path d="M8.267 8.308c0-4.571 3.479-8.308 7.735-8.308s7.735 3.737 7.735 8.308c0 4.571-3.479 8.308-7.735 8.308s-7.735-3.737-7.735-8.308zM29.276 23.256c-0.203-0.544-0.473-1.052-0.777-1.524-1.554-2.467-3.952-4.1-6.654-4.499-0.338-0.036-0.709 0.036-0.979 0.254-1.419 1.125-3.107 1.705-4.864 1.705s-3.445-0.58-4.864-1.705c-0.27-0.218-0.642-0.327-0.98-0.254-2.702 0.399-5.134 2.032-6.654 4.499-0.304 0.472-0.574 1.016-0.777 1.524-0.101 0.218-0.068 0.472 0.034 0.689 0.27 0.508 0.608 1.016 0.912 1.451 0.473 0.689 0.98 1.306 1.554 1.887 0.473 0.508 1.013 0.98 1.554 1.451 2.668 2.141 5.877 3.265 9.187 3.265s6.519-1.125 9.187-3.265c0.54-0.435 1.081-0.943 1.554-1.451 0.54-0.581 1.081-1.197 1.554-1.887 0.338-0.472 0.642-0.943 0.912-1.451 0.169-0.218 0.203-0.472 0.101-0.689z"></path>
</symbol>
<symbol id="icon-mail" viewBox="0 0 32 32">
<path d="M32 7.018c0-0.347-0.069-0.676-0.181-0.982-0.001-0.003 0-0.006-0.001-0.009s-0.004-0.006-0.005-0.009c-0.094-0.254-0.225-0.487-0.383-0.699-0.018-0.024-0.037-0.046-0.056-0.070-0.317-0.4-0.735-0.705-1.218-0.875-0.044-0.016-0.088-0.029-0.133-0.043-0.237-0.070-0.483-0.119-0.741-0.119h-26.564c-0.259 0-0.504 0.049-0.741 0.119-0.045 0.014-0.089 0.027-0.134 0.043-0.481 0.17-0.897 0.473-1.215 0.87-0.021 0.027-0.043 0.052-0.063 0.079-0.155 0.21-0.284 0.438-0.378 0.688-0.002 0.005-0.006 0.009-0.008 0.015s0.001 0.010-0.001 0.015c-0.111 0.306-0.18 0.633-0.18 0.979v17.962c0 0.345 0.069 0.673 0.18 0.979 0.002 0.005-0.001 0.011 0.001 0.016s0.007 0.010 0.009 0.016c0.093 0.249 0.222 0.476 0.376 0.685 0.021 0.029 0.044 0.055 0.067 0.083 0.317 0.396 0.732 0.698 1.212 0.868 0.045 0.016 0.089 0.030 0.135 0.043 0.237 0.070 0.482 0.119 0.741 0.119h26.564c0.258 0 0.503-0.050 0.74-0.119 0.046-0.013 0.089-0.027 0.134-0.043 0.482-0.171 0.898-0.474 1.215-0.873 0.020-0.025 0.041-0.049 0.060-0.075 0.157-0.211 0.286-0.443 0.381-0.695 0.002-0.004 0.004-0.007 0.006-0.011s-0-0.007 0.001-0.011c0.112-0.307 0.181-0.636 0.181-0.983v-17.962zM21.703 16l8.835-8.143v16.287l-8.835-8.144zM29.284 5.722c0.176 0 0.346 0.040 0.501 0.111 0.010 0.004 0.016 0.013 0.026 0.018 0.142 0.070 0.273 0.165 0.381 0.284 0.003 0.003 0.004 0.007 0.006 0.009l-14.195 13.084-14.199-13.084c0.003-0.004 0.005-0.009 0.008-0.013 0.104-0.113 0.229-0.201 0.363-0.27 0.016-0.008 0.027-0.023 0.044-0.030 0.156-0.071 0.326-0.111 0.502-0.111h26.564zM1.463 7.857l8.837 8.143-8.837 8.144v-16.286zM2.719 26.278c-0.176 0-0.346-0.040-0.501-0.111-0.018-0.008-0.030-0.024-0.047-0.033-0.133-0.069-0.257-0.155-0.359-0.267-0.004-0.004-0.005-0.009-0.009-0.013l9.595-8.843 4.118 3.794c0.139 0.128 0.312 0.192 0.486 0.192s0.348-0.064 0.487-0.192l4.115-3.793 9.593 8.842c-0.003 0.003-0.004 0.007-0.007 0.010-0.107 0.118-0.237 0.211-0.377 0.281-0.011 0.005-0.018 0.015-0.029 0.020-0.155 0.072-0.325 0.111-0.501 0.111h-26.564z"></path>
</symbol>
<symbol id="icon-marker" viewBox="0 0 32 32">
<path d="M16.001 0c-7.5 0-13.601 6.021-13.601 13.422 0 7.269 12.611 17.962 13.148 18.413 0.13 0.11 0.291 0.165 0.452 0.165s0.322-0.055 0.452-0.165c0.537-0.452 13.147-11.144 13.147-18.413 0-7.401-6.101-13.422-13.599-13.422zM16.001 30.397c-2.26-1.985-12.206-11.059-12.206-16.974 0-6.642 5.476-12.046 12.206-12.046s12.205 5.404 12.205 12.046c0 5.913-9.944 14.988-12.205 16.974zM16.001 7.229c-3.461 0-6.276 2.778-6.276 6.194s2.815 6.194 6.276 6.194c3.461 0 6.276-2.778 6.276-6.194s-2.815-6.194-6.276-6.194zM16.001 18.239c-2.691 0-4.881-2.161-4.881-4.817s2.19-4.817 4.881-4.817c2.691 0 4.881 2.161 4.881 4.817s-2.19 4.817-4.881 4.817z"></path>
</symbol>
<symbol id="icon-menu" viewBox="0 0 32 32">
<path d="M32 16c0 0.675-0.56 1.222-1.25 1.222h-29.5c-0.69 0-1.25-0.547-1.25-1.222s0.56-1.222 1.25-1.222h29.5c0.69 0 1.25 0.547 1.25 1.222zM1.25 7.444h29.5c0.69 0 1.25-0.547 1.25-1.222s-0.56-1.222-1.25-1.222h-29.5c-0.69 0-1.25 0.547-1.25 1.222s0.56 1.222 1.25 1.222zM30.75 24.556h-29.5c-0.69 0-1.25 0.547-1.25 1.222s0.56 1.222 1.25 1.222h29.5c0.69 0 1.25-0.547 1.25-1.222s-0.56-1.222-1.25-1.222z"></path>
</symbol>
<symbol id="icon-minus" viewBox="0 0 32 32">
<path d="M2.397 13.73h27.2v4.42h-27.2v-4.42z"></path>
</symbol>
<symbol id="icon-more" viewBox="0 0 32 32">
<path d="M22.635 25.116l9.191-9.145c0.114-0.114 0.166-0.244 0.166-0.388 0-0.145-0.054-0.276-0.156-0.378l-9.202-9.154c-0.21-0.209-0.547-0.209-0.756 0.002-0.099 0.101-0.155 0.235-0.155 0.378s0.056 0.277 0.157 0.377l8.284 8.242h-29.632c-0.295 0-0.534 0.239-0.534 0.534s0.239 0.534 0.534 0.534h29.632l-8.284 8.241c-0.101 0.101-0.157 0.235-0.157 0.378 0 0.143 0.055 0.277 0.155 0.377 0.21 0.209 0.547 0.211 0.756 0.002z"></path>
</symbol>
<symbol id="icon-person" viewBox="0 0 32 32">
<path d="M24.431 18.428l-5.883-1.188v-1.237l0.163-0.079c2.198-1.057 3.617-3.324 3.617-5.774v-3.709c-0.328 0.202-0.677 0.365-1.036 0.504-0.261 0.98-0.766 1.873-1.469 2.639-0.015 0.016-0.035 0.026-0.050 0.042 0.289 0.004 0.577-0.043 0.855-0.144l0.383-0.138v0.807c0 2.791-2.248 5.062-5.012 5.062s-5.012-2.271-5.012-5.062v-0.806l0.383 0.138c0.121 0.044 0.245 0.074 0.369 0.098-0.777-0.778-1.329-1.838-1.556-2.937-0.173-0.048-0.346-0.098-0.514-0.165v3.672c0 2.451 1.42 4.717 3.617 5.774l0.163 0.079v1.237l-5.883 1.188c-2.068 0.418-3.569 2.266-3.569 4.396v9.116h24v-9.116c0-2.13-1.501-3.978-3.569-4.396zM14.768 18.331v-1.902l0.327 0.047c0.6 0.087 1.209 0.087 1.809 0l0.327-0.047v1.902l1.781 0.36-0.136 0.326c-0.486 1.167-1.615 1.921-2.876 1.921s-2.39-0.754-2.876-1.921l-0.136-0.326 1.781-0.36zM12.878 21.024l0.459 0.348c0.773 0.587 1.694 0.897 2.663 0.897s1.89-0.31 2.663-0.897l0.459-0.348v3.732h-6.244v-3.732zM7.781 30.61h-2.463v-7.786c0-1.332 0.836-2.526 2.081-2.972l0.382-0.137v10.894zM22.902 30.61h-13.805v-11.134l2.463-0.498v7.108h8.878v-7.108l2.463 0.498v11.134zM26.683 30.61h-2.463v-10.894l0.382 0.137c1.245 0.445 2.081 1.64 2.081 2.972v7.786z"></path>
<path d="M17.92 0h-3.842c-2.432 0-4.41 2.011-4.41 4.483v3.028c0.106 1.532 1.309 1.893 1.309 1.893l0.38 0.138c0.544 0.197 1.123 0.193 1.675-0.013 1.001-0.374 1.985-0.563 2.923-0.563 0.014 0 0.029 0.002 0.043 0.002s0.029-0.002 0.043-0.002c0.939 0 1.922 0.189 2.923 0.563 0.552 0.206 1.132 0.211 1.675 0.013l0.38-0.138c0 0 1.203-0.361 1.309-1.893v-3.028c0-2.472-1.978-4.483-4.41-4.483zM21.021 7.104c0 0.417-0.192 0.793-0.528 1.031-0.204 0.145-0.437 0.219-0.673 0.219-0.135 0-0.271-0.024-0.404-0.074-1.146-0.428-2.281-0.644-3.374-0.644-0.014 0-0.029 0.002-0.043 0.002s-0.029-0.002-0.043-0.002c-1.093 0-2.228 0.217-3.374 0.644-0.132 0.049-0.269 0.074-0.404 0.074-0.236 0-0.469-0.074-0.673-0.219-0.336-0.238-0.528-0.614-0.528-1.031v-0.36l0.135-0.085c0.727-0.454 2.653-1.511 4.844-1.511 0.015 0 0.028 0.002 0.043 0.002s0.028-0.002 0.043-0.002c2.19 0 4.117 1.056 4.844 1.511l0.135 0.085v0.36zM21.021 5.19l-0.411-0.206c-1.058-0.532-2.708-1.166-4.568-1.166-0.015 0-0.028 0.003-0.043 0.003s-0.028-0.003-0.043-0.003c-1.86 0-3.511 0.634-4.568 1.166l-0.411 0.206v-0.707c0-1.738 1.391-3.153 3.101-3.153h3.842c1.71 0 3.101 1.414 3.101 3.153v0.707z"></path>
</symbol>
<symbol id="icon-phone" viewBox="0 0 32 32">
<path d="M30.912 21.703c-2.508-1.137-4.469-1.77-7.769-2.506-0.115-0.025-0.247-0.038-0.401-0.038-0.432 0-1.644 0.141-2.063 0.79l-1.623 2.558c-0.249 0.399-1.204 0.352-1.897-0.157-1.37-0.995-2.733-2.156-4.044-3.444-1.292-1.314-2.458-2.681-3.467-4.061-0.34-0.467-0.501-1.028-0.415-1.461 0.028-0.143 0.096-0.336 0.269-0.443l2.548-1.617c0.737-0.464 0.886-1.975 0.751-2.491-0.714-2.695-1.7-5.525-2.48-7.69-0.269-0.736-1.524-1.143-2.29-1.143-0.253 0-0.482 0.039-0.679 0.116-2.21 0.855-4.179 2.137-5.855 3.812-0.456 0.457-0.893 0.953-1.337 1.517l-0.149 0.188-0.006 0.24c-0.152 6.366 2.721 12.978 7.984 18.241 5.013 5.012 11.455 7.886 17.677 7.886l0.706-0.011 0.187-0.148c0.54-0.42 1.050-0.87 1.524-1.338 1.671-1.676 2.951-3.645 3.805-5.849 0.36-0.917-0.197-2.599-0.976-2.951zM30.545 24.131c-0.782 2.020-1.953 3.822-3.479 5.351-0.376 0.373-0.78 0.732-1.205 1.075l-0.196 0.003c-5.842 0-11.915-2.722-16.653-7.459l-0.107-0.107c-4.819-4.819-7.531-10.947-7.465-16.848 0.357-0.443 0.711-0.838 1.076-1.203 1.531-1.529 3.334-2.703 5.357-3.486 0.001-0.001 0.048-0.018 0.157-0.018 0.392 0 0.865 0.236 0.936 0.195 0.771 2.136 1.742 4.926 2.44 7.558 0.037 0.196-0.077 0.814-0.127 0.917l-2.542 1.614c-0.474 0.292-0.8 0.784-0.917 1.386-0.164 0.838 0.079 1.781 0.667 2.585 1.049 1.437 2.261 2.856 3.611 4.23 1.37 1.345 2.788 2.554 4.213 3.589 1.378 1.009 3.279 0.877 3.966-0.24l1.551-2.471c0.108-0.080 0.552-0.215 1.001-0.198 3.192 0.711 5.081 1.32 7.403 2.357 0.181 0.181 0.406 0.933 0.312 1.171z"></path>
</symbol>
<symbol id="icon-play" viewBox="0 0 32 32">
<path stroke-linejoin="miter" stroke-linecap="butt" stroke-miterlimit="4" stroke-width="3.9385" d="M26.47 15.799l0 0c0.080 0.054 0.115 0.132 0.115 0.201v0c0 0.069-0.035 0.148-0.115 0.201l-20.584 13.777c-0.094 0.063-0.222 0.071-0.326 0.017l-0-0c-0.1-0.052-0.143-0.141-0.143-0.218v-27.553c0-0.077 0.043-0.166 0.143-0.218l0-0c0.104-0.054 0.232-0.046 0.326 0.017 0 0 0 0 0 0l20.584 13.776z"></path>
</symbol>
<symbol id="icon-plus" viewBox="0 0 32 32">
<path d="M29.054 17.171h-11.098v11.696h-3.944v-11.696h-11.043v-3.672h11.043v-11.614h3.944v11.614h11.098v3.672z"></path>
</symbol>
<symbol id="icon-point" viewBox="0 0 32 32">
<path d="M26.028 4.145c-2.679-2.673-6.24-4.145-10.028-4.145s-7.349 1.472-10.028 4.145c-2.679 2.673-4.154 6.227-4.154 10.008 0 6.669 4.672 12.427 11.163 13.83l3.019 4.017 3.019-4.017c6.491-1.403 11.163-7.161 11.163-13.83 0-3.78-1.475-7.334-4.154-10.008z"></path>
</symbol>
<symbol id="icon-point-active" viewBox="0 0 32 32">
<path stroke-linejoin="miter" stroke-linecap="butt" stroke-miterlimit="4" stroke-width="5.8182" d="M23.973 6.204c2.132 2.128 3.3 4.942 3.3 7.948 0 5.295-3.712 9.872-8.868 10.987l-1.060 0.229-1.345 1.79-1.345-1.79-1.060-0.229c-5.156-1.115-8.868-5.692-8.868-10.987 0-3.007 1.167-5.82 3.3-7.948s4.955-3.295 7.973-3.295 5.841 1.167 7.973 3.295zM23.973 6.204v0z"></path>
</symbol>
<symbol id="icon-purse" viewBox="0 0 32 32">
<path d="M30.203 2.605h-28.743c-0.805 0-1.46 0.655-1.46 1.46v23.804c0 0.805 0.655 1.46 1.46 1.46h28.743c0.805 0 1.46-0.655 1.46-1.46v-23.804c0-0.805-0.655-1.46-1.46-1.46zM21.826 19.675c-0.327 0-0.554-0.198-0.554-0.376v-6.665c0-0.178 0.228-0.376 0.554-0.376h8.719v7.417h-8.719zM30.203 28.211h-28.743c-0.185 0-0.341-0.156-0.341-0.341v-23.804c0-0.185 0.156-0.341 0.341-0.341h28.743c0.185 0 0.341 0.156 0.341 0.341v7.075h-8.719c-0.923 0-1.673 0.671-1.673 1.495v6.665c0 0.824 0.751 1.495 1.673 1.495h8.719v7.075c0 0.185-0.156 0.341-0.341 0.341z"></path>
<path d="M25.908 13.54c-1.338 0-2.427 1.089-2.427 2.427s1.089 2.427 2.427 2.427c1.338 0 2.427-1.089 2.427-2.427s-1.089-2.427-2.427-2.427zM25.908 17.276c-0.721 0-1.308-0.587-1.308-1.308s0.587-1.308 1.308-1.308c0.721 0 1.308 0.587 1.308 1.308s-0.587 1.308-1.308 1.308z"></path>
</symbol>
<symbol id="icon-sale" viewBox="0 0 32 32">
<path d="M27.731 16.278v-2.88c1.539-1.254 2.104-3.31 1.369-5.102-0.449-1.094-1.315-1.938-2.439-2.377-0.96-0.375-2.010-0.416-3.005-0.125l-1.152-2.809c-0.271-0.66-1.028-0.977-1.688-0.706l-18.828 7.725c-0.319 0.131-0.568 0.379-0.702 0.698s-0.135 0.671-0.004 0.99l1.153 2.809c-2.031 1.095-2.978 3.507-2.117 5.604 0.106 0.257 0.238 0.505 0.394 0.739 0.095 2.181 1.851 3.959 4.081 4.195v3.036c0 0.713 0.58 1.294 1.294 1.294h20.351c0.713 0 1.294-0.58 1.294-1.294v-3.036c2.295-0.242 4.086-2.114 4.086-4.381s-1.791-4.138-4.086-4.381zM3.305 15.298l0.006-0.002c0.010-0.004 0.021-0.008 0.031-0.012 0.135-0.054 0.243-0.16 0.3-0.294s0.058-0.286 0.002-0.421l-1.35-3.291c-0.027-0.066-0.011-0.124 0.001-0.153s0.042-0.081 0.108-0.108l18.828-7.726c0.1-0.041 0.22 0.009 0.262 0.109l1.35 3.291c0.055 0.135 0.162 0.242 0.297 0.298s0.286 0.055 0.421-0.001c0.010-0.004 0.020-0.009 0.030-0.013l0.003-0.002c0.869-0.356 1.817-0.369 2.669-0.036 0.843 0.33 1.491 0.96 1.826 1.774 0.504 1.229 0.184 2.631-0.769 3.588-0.002-0.002-0.005-0.005-0.007-0.007s-0.004-0.004-0.007-0.006c-0.001-0.001-0.001-0.001-0.002-0.002s-0-0-0-0.001 0 0-0-0c-0.007-0.007-0.014-0.013-0.022-0.020-0-0-0-0-0-0s-0-0-0-0-0.001-0.001-0.001-0.001-0.002-0.001-0.003-0.002c-0.018-0.015-0.036-0.030-0.054-0.044-0.001-0-0.001-0.001-0.002-0.001s-0.001-0.001-0.001-0.001l-0-0c-0-0-0-0-0-0s-0-0-0-0-0-0-0-0l-0-0c-0.007-0.005-0.014-0.011-0.021-0.016-0.003-0.003-0.007-0.005-0.010-0.008l-0-0c-0-0-0.001-0-0.001-0s-0.001-0.001-0.001-0.001l-0.001-0.001c-0.019-0.013-0.038-0.026-0.058-0.039l-0-0c-0.013-0.008-0.026-0.016-0.040-0.024-0.001-0-0.001-0.001-0.002-0.001s-0.001-0-0.001-0l-0-0c-0-0-0.001-0-0.001-0.001s-0.001-0.001-0.001-0.001-0.001-0.001-0.002-0.001c-0.017-0.010-0.034-0.019-0.051-0.028-0-0-0.001-0-0.001-0.001s-0-0-0-0l-0-0c0 0-0-0-0-0s-0-0-0-0c-0.017-0.008-0.033-0.016-0.050-0.024-0-0-0-0-0-0s-0.001-0-0.001-0l-0-0-0-0c0 0-0-0-0-0l-0-0c-0.018-0.008-0.035-0.016-0.053-0.023-0-0-0.001-0-0.001-0.001s-0-0-0-0-0-0-0-0-0-0-0-0c-0.020-0.008-0.040-0.015-0.060-0.022-0-0-0-0-0-0s-0-0-0.001-0-0-0-0-0-0-0-0-0c-0.016-0.006-0.032-0.011-0.048-0.016-0.001-0-0.002-0.001-0.002-0.001s-0.001-0-0.001-0-0.001-0-0.001-0-0.002-0-0.003-0.001c-0.021-0.006-0.042-0.012-0.063-0.017v0c-0-0-0.001-0-0.001-0l-0 0c-0.002-0-0.003-0.001-0.005-0.001-0.015-0.004-0.029-0.007-0.044-0.010 0 0-0-0-0-0l-0-0c-0.025-0.005-0.050-0.008-0.075-0.012-0.001-0-0.002-0.001-0.004-0.001s-0.003-0-0.004-0.001c-0 0-0.001-0-0.001-0s-0 0-0 0c-0.012-0.002-0.024-0.004-0.037-0.005-0.001-0-0.001-0-0.002-0s-0.001 0-0.001 0-0-0-0-0-0.001 0-0.001 0c-0.043-0.004-0.085-0.006-0.125-0.006h-20.351c-0.713 0-1.294 0.58-1.294 1.294v3.036c-0.734 0.077-1.436 0.322-2.053 0.72-0 0-0 0-0.001 0-0.722 0.466-1.279 1.108-1.626 1.845-0.162-1.456 0.702-2.934 2.191-3.545zM27.229 23.972l-0.007-0c-0.010-0-0.021-0.001-0.031-0.001-0.145-0.002-0.287 0.055-0.391 0.158s-0.162 0.243-0.162 0.389v3.557c0 0.109-0.092 0.2-0.201 0.2h-20.351c-0.109 0-0.2-0.092-0.2-0.2v-3.557c0-0.146-0.058-0.286-0.162-0.389-0.102-0.101-0.241-0.158-0.384-0.158-0.002 0-0.004 0-0.006 0-0.010 0-0.021 0-0.031 0.001l-0.004 0c-1.925 0-3.494-1.483-3.498-3.306l-0-0c0-0.003-0-0.006-0-0.009 0 0 0-0.001 0-0.001l-0-0.002c-0-0.001-0-0.002-0-0.003 0.003-1.095 0.575-2.117 1.533-2.734 0 0 0-0 0-0 0.109-0.070 0.221-0.134 0.336-0.192 0.5-0.25 1.055-0.38 1.628-0.38 0 0 0 0 0.001 0s0-0 0.001 0 0 0 0.001 0 0.001 0 0.002 0c0 0 0 0 0 0 0.005 0 0.010 0 0.015 0s0.011 0 0.016 0c0.002 0 0.004 0 0.006 0 0.144 0 0.282-0.057 0.384-0.158 0.104-0.103 0.162-0.243 0.162-0.389v-3.557c0-0.109 0.092-0.2 0.2-0.2h20.351c0.005 0 0.010 0 0.015 0.001l0.010 0.001c0 0 0 0 0.001 0s0 0 0.001 0l0.011 0.002 0.009 0.002v0l0.010 0.002 0.007 0.002c0 0 0 0 0.001 0s0.001 0 0.001 0l0.009 0.003 0.008 0.004 0 0c0 0 0 0 0 0l0.008 0.004 0.008 0.004c0 0 0.001 0 0.001 0s0.001 0.001 0.002 0.001l0.004 0.002 0.002 0.001 0 0c0.003 0.002 0.005 0.003 0.008 0.005l0.004 0.003 0 0 0.001 0.001c0 0 0 0 0 0s0.001 0 0.001 0.001l0.008 0.006c0.001 0.001 0.003 0.002 0.003 0.003s0 0 0 0l0.001 0.001c0 0 0 0 0 0s0 0 0 0 0 0 0.001 0.001l0 0c0.003 0.003 0.007 0.006 0.010 0.009 0 0 0 0 0.001 0.001l0 0c0.020 0.022 0.046 0.058 0.054 0.109v0c0 0 0 0 0 0 0.003 0.019 0.003 0.027 0.003 0.028v3.557c0 0.146 0.058 0.286 0.162 0.388s0.243 0.159 0.39 0.158c0.011-0 0.022-0 0.033-0.001l0.004-0c1.929 0 3.498 1.487 3.498 3.314s-1.569 3.314-3.495 3.314z"></path>
<path d="M20.251 15.226c-0.243-0.179-0.586-0.126-0.764 0.117l-7.331 9.982c-0.179 0.243-0.126 0.586 0.117 0.764 0.097 0.072 0.211 0.106 0.323 0.106 0.168 0 0.334-0.077 0.441-0.223l7.331-9.982c0.179-0.243 0.126-0.586-0.117-0.764z"></path>
<path d="M19.795 20.936c-1.393 0-2.527 1.185-2.527 2.641s1.133 2.641 2.527 2.641c1.393 0 2.527-1.185 2.527-2.641s-1.134-2.641-2.527-2.641zM19.795 25.125c-0.79 0-1.433-0.694-1.433-1.547s0.643-1.547 1.433-1.547c0.79 0 1.433 0.694 1.433 1.547s-0.643 1.547-1.433 1.547z"></path>
<path d="M15.256 17.739c0-1.456-1.134-2.641-2.527-2.641s-2.527 1.185-2.527 2.641c0 1.456 1.134 2.641 2.527 2.641s2.527-1.185 2.527-2.641zM11.296 17.739c0-0.853 0.643-1.547 1.433-1.547s1.433 0.694 1.433 1.547c0 0.853-0.643 1.547-1.433 1.547s-1.433-0.694-1.433-1.547z"></path>
</symbol>
<symbol id="icon-search" viewBox="0 0 32 32">
<path d="M31.805 29.919l-9.296-9.296c1.763-2.177 2.824-4.944 2.824-7.957 0-6.984-5.682-12.667-12.667-12.667s-12.667 5.682-12.667 12.667c0 6.984 5.682 12.667 12.667 12.667 3.013 0 5.78-1.061 7.957-2.824l9.296 9.296c0.261 0.26 0.682 0.26 0.943 0l0.943-0.943c0.26-0.26 0.26-0.682-0-0.943zM12.667 22.667c-5.514 0-10-4.486-10-10s4.486-10 10-10c5.514 0 10 4.486 10 10s-4.486 10-10 10z"></path>
</symbol>
<symbol id="icon-settings" viewBox="0 0 32 32">
<path d="M29.11 8.066c-0.084-0.142-0.221-0.245-0.384-0.288s-0.337-0.021-0.484 0.063c-0.146 0.083-0.249 0.216-0.292 0.376-0.042 0.156-0.020 0.319 0.063 0.459 1.258 2.134 1.924 4.569 1.924 7.040 0 7.762-6.431 14.077-14.335 14.077-2.876 0-5.644-0.83-8.005-2.4l-1.015-0.675h2.802c0.349 0 0.632-0.275 0.632-0.614s-0.283-0.614-0.632-0.614h-4.366c-0.348 0-0.632 0.275-0.632 0.614v4.285c0 0.338 0.283 0.614 0.632 0.614s0.632-0.275 0.632-0.614v-2.873l0.588 0.435c2.709 2.008 5.947 3.069 9.364 3.069 4.168 0 8.086-1.593 11.033-4.485 2.945-2.89 4.567-6.733 4.567-10.819 0-2.684-0.723-5.329-2.090-7.649z"></path>
<path d="M18.716 15.714c0-1.683-1.398-3.052-3.116-3.052s-3.116 1.369-3.116 3.052c0 1.683 1.398 3.052 3.116 3.052s3.116-1.369 3.116-3.052zM13.748 15.714c0-1.006 0.831-1.824 1.852-1.824s1.852 0.818 1.852 1.824c0 1.006-0.831 1.825-1.852 1.825s-1.852-0.818-1.852-1.825z"></path>
<path d="M13.737 23.643h3.726c0.348 0 0.632-0.275 0.632-0.614v-1.394l0.218-0.098c0.376-0.169 0.738-0.375 1.076-0.612l0.191-0.134 1.224 0.694c0.145 0.082 0.321 0.105 0.484 0.062s0.299-0.145 0.384-0.288l1.863-3.167c0.082-0.14 0.104-0.305 0.062-0.462-0.044-0.157-0.148-0.29-0.293-0.372l-1.225-0.694 0.023-0.238c0.020-0.202 0.029-0.407 0.029-0.612s-0.010-0.41-0.029-0.611l-0.023-0.238 1.225-0.694c0.145-0.082 0.249-0.215 0.292-0.373 0.042-0.157 0.020-0.321-0.062-0.461l-1.863-3.167c-0.084-0.143-0.22-0.245-0.384-0.288s-0.336-0.021-0.484 0.062l-1.225 0.694-0.191-0.134c-0.339-0.238-0.701-0.444-1.076-0.612l-0.218-0.097v-1.394c0-0.339-0.283-0.614-0.632-0.614h-3.726c-0.349 0-0.632 0.275-0.632 0.614v1.394l-0.218 0.098c-0.376 0.169-0.738 0.375-1.076 0.612l-0.19 0.134-1.225-0.694c-0.145-0.083-0.321-0.106-0.484-0.063-0.164 0.043-0.3 0.145-0.384 0.288l-1.864 3.168c-0.083 0.141-0.105 0.305-0.062 0.461s0.147 0.29 0.293 0.373l1.225 0.694-0.023 0.238c-0.020 0.204-0.030 0.41-0.030 0.612s0.010 0.407 0.030 0.611l0.023 0.238-1.225 0.694c-0.145 0.083-0.249 0.215-0.293 0.373s-0.021 0.321 0.062 0.462l1.863 3.167c0.084 0.143 0.22 0.245 0.384 0.288s0.337 0.022 0.484-0.062l1.225-0.694 0.191 0.134c0.337 0.237 0.699 0.442 1.076 0.611l0.218 0.098v1.395c0 0.338 0.283 0.614 0.632 0.614zM12.111 19.586c-0.205-0.179-0.503-0.209-0.741-0.073l-1.061 0.601-1.236-2.102 1.064-0.603c0.234-0.132 0.355-0.394 0.301-0.651-0.071-0.34-0.107-0.691-0.107-1.043s0.036-0.703 0.107-1.043c0.053-0.257-0.068-0.519-0.301-0.652l-1.064-0.603 1.236-2.101 1.060 0.601c0.238 0.135 0.536 0.105 0.741-0.073 0.538-0.469 1.153-0.818 1.827-1.039 0.257-0.084 0.43-0.318 0.43-0.582v-1.21h2.462v1.21c0 0.264 0.173 0.498 0.43 0.582 0.674 0.22 1.289 0.57 1.827 1.039 0.204 0.178 0.502 0.208 0.741 0.073l1.061-0.601 1.236 2.101-1.064 0.603c-0.234 0.132-0.355 0.394-0.301 0.652 0.071 0.34 0.107 0.691 0.107 1.043s-0.036 0.703-0.107 1.043c-0.054 0.257 0.068 0.519 0.301 0.652l1.064 0.603-1.237 2.102-1.060-0.601c-0.24-0.136-0.536-0.106-0.741 0.073-0.538 0.469-1.153 0.818-1.827 1.039-0.257 0.084-0.43 0.318-0.43 0.582v1.21h-2.462v-1.21c0-0.264-0.173-0.498-0.43-0.582-0.674-0.22-1.289-0.57-1.827-1.039z"></path>
<path d="M3.188 22.754c-1.258-2.135-1.923-4.569-1.923-7.040 0-7.762 6.431-14.077 14.336-14.077 2.876 0 5.645 0.83 8.006 2.4l1.015 0.675h-2.803c-0.349 0-0.632 0.275-0.632 0.614s0.283 0.614 0.632 0.614h4.366c0.348 0 0.632-0.275 0.632-0.614v-4.285c0-0.339-0.283-0.614-0.632-0.614s-0.632 0.275-0.632 0.614v2.871l-0.588-0.435c-2.709-2.006-5.947-3.067-9.364-3.067-4.168 0-8.086 1.593-11.033 4.485-2.945 2.89-4.567 6.733-4.567 10.819 0 2.684 0.723 5.33 2.090 7.649 0.167 0.283 0.572 0.392 0.869 0.225 0.146-0.083 0.249-0.216 0.292-0.376 0.042-0.156 0.019-0.319-0.063-0.458v-0z"></path>
</symbol>
<symbol id="icon-telegram" viewBox="0 0 32 32">
<path d="M30.817 0.069l-30.261 13.408c-0.747 0.331-0.74 1.545 0.009 1.867l7.373 3.161 2.854 10.542c0.183 0.675 0.902 0.925 1.379 0.477l4.11-3.848c0.431-0.403 1.044-0.423 1.495-0.048l7.413 6.182c0.51 0.426 1.233 0.105 1.361-0.603l5.43-30.002c0.14-0.774-0.522-1.419-1.164-1.134zM25.046 7.085l-11.893 12.697c-0.418 0.447-0.688 1.045-0.764 1.694l-0.405 3.448c-0.054 0.461-0.617 0.506-0.727 0.060l-1.558-6.288c-0.178-0.717 0.082-1.483 0.634-1.875l14.41-10.194c0.259-0.183 0.526 0.22 0.303 0.457z"></path>
</symbol>
<symbol id="icon-time" viewBox="0 0 32 32">
<path d="M16.003 0c-8.824 0-16.003 7.178-16.003 16.001 0 8.822 7.179 15.999 16.003 15.999 8.821 0 15.997-7.178 15.997-15.999 0-8.823-7.176-16.001-15.997-16.001zM16.003 30.567c-8.034 0-14.57-6.534-14.57-14.566s6.536-14.568 14.57-14.568c8.031 0 14.564 6.535 14.564 14.568s-6.534 14.566-14.564 14.566zM16.719 6.111v9.89c0 0.244-0.13 0.449-0.316 0.578-0.023 0.032-0.036 0.069-0.065 0.098l-4.159 4.159c-0.14 0.14-0.323 0.21-0.507 0.21s-0.367-0.070-0.507-0.21c-0.28-0.28-0.28-0.733 0-1.013l4.12-4.12v-9.592c0-0.396 0.32-0.716 0.716-0.716s0.716 0.321 0.716 0.716zM21.368 5.396l0.383-0.665c0.179-0.313 0.581-0.418 0.891-0.239 0.312 0.18 0.42 0.579 0.239 0.891l-0.383 0.665c-0.12 0.209-0.34 0.327-0.565 0.327-0.11 0-0.224-0.029-0.326-0.087-0.312-0.181-0.42-0.579-0.239-0.891zM10.628 26.604l-0.381 0.666c-0.12 0.211-0.341 0.329-0.567 0.329-0.111 0-0.221-0.028-0.323-0.086-0.313-0.179-0.423-0.578-0.243-0.891l0.381-0.666c0.181-0.313 0.579-0.419 0.89-0.243 0.313 0.179 0.423 0.578 0.243 0.891zM27.508 22.643c-0.12 0.209-0.34 0.327-0.565 0.327-0.11 0-0.222-0.029-0.326-0.088l-0.661-0.38c-0.312-0.18-0.42-0.579-0.239-0.891s0.576-0.419 0.891-0.239l0.661 0.381c0.312 0.18 0.42 0.579 0.239 0.891zM4.492 9.358c0.179-0.313 0.579-0.42 0.89-0.241l0.666 0.382c0.312 0.179 0.421 0.578 0.241 0.891-0.12 0.21-0.34 0.328-0.565 0.328-0.111 0-0.223-0.028-0.325-0.087l-0.666-0.382c-0.312-0.179-0.421-0.578-0.241-0.891zM10.632 5.396c0.181 0.312 0.073 0.711-0.239 0.891-0.102 0.059-0.216 0.087-0.326 0.087-0.225 0-0.445-0.117-0.565-0.327l-0.383-0.665c-0.181-0.312-0.073-0.711 0.239-0.891 0.309-0.179 0.711-0.074 0.891 0.239l0.383 0.665zM22.889 26.617c0.181 0.311 0.076 0.71-0.235 0.892-0.104 0.061-0.217 0.090-0.329 0.090-0.224 0-0.442-0.116-0.564-0.324l-0.389-0.666c-0.181-0.311-0.076-0.71 0.235-0.892 0.309-0.184 0.71-0.077 0.893 0.234l0.389 0.666zM6.29 21.612c0.179 0.313 0.070 0.712-0.243 0.891l-0.666 0.381c-0.102 0.058-0.213 0.086-0.323 0.086-0.225 0-0.446-0.118-0.567-0.329-0.179-0.313-0.070-0.712 0.244-0.891l0.666-0.381c0.308-0.176 0.709-0.072 0.89 0.243zM25.717 10.392c-0.179-0.312-0.073-0.711 0.239-0.891l0.661-0.382c0.307-0.181 0.708-0.076 0.891 0.238 0.179 0.312 0.073 0.711-0.239 0.891l-0.661 0.382c-0.102 0.059-0.214 0.088-0.326 0.088-0.225 0-0.444-0.117-0.565-0.326zM4.131 16.651h-0.001l-0.767-0.001c-0.36-0.001-0.652-0.293-0.651-0.653 0-0.36 0.292-0.651 0.652-0.651h0.001l0.767 0.001c0.36 0.001 0.652 0.293 0.651 0.654 0 0.36-0.292 0.651-0.652 0.651zM29.294 15.994c0.002 0.36-0.29 0.653-0.649 0.654l-0.772 0.003c-0.002 0-0.002 0-0.003 0-0.36 0-0.651-0.29-0.652-0.65s0.29-0.653 0.649-0.654l0.772-0.003c0.001 0 0.001 0 0.003 0 0.36 0 0.651 0.29 0.652 0.65zM16.655 27.872l-0.006 0.77c-0.003 0.358-0.294 0.647-0.652 0.647-0.001 0-0.003 0-0.004 0-0.361-0.002-0.651-0.297-0.648-0.657l0.006-0.77c0.003-0.358 0.294-0.647 0.652-0.647 0.001 0 0.003 0 0.003 0 0.362 0.002 0.652 0.296 0.649 0.657zM15.348 4.129v-0.764c0-0.36 0.292-0.652 0.652-0.652s0.652 0.292 0.652 0.652v0.764c0 0.36-0.292 0.652-0.652 0.652s-0.652-0.292-0.652-0.652z"></path>
</symbol>
<symbol id="icon-viber" viewBox="0 0 32 32">
<path d="M19.080 13.398c-0.265-0.010-0.409-0.179-0.438-0.453-0.021-0.2-0.037-0.403-0.081-0.598-0.087-0.384-0.276-0.74-0.574-0.975-0.141-0.111-0.301-0.192-0.468-0.244-0.213-0.066-0.433-0.048-0.646-0.104-0.23-0.061-0.358-0.263-0.322-0.496 0.033-0.213 0.224-0.379 0.439-0.362 1.343 0.105 2.303 0.856 2.44 2.566 0.010 0.121 0.021 0.248-0.004 0.364-0.040 0.188-0.164 0.285-0.29 0.303 0.010 0 0.008 0.001-0.020 0.003-0.164 0.003-0.1-0-0.037-0.002zM21.054 17.815c-0.419-0.323-0.84-0.642-1.274-0.939s-0.95-0.293-1.353 0.064c-0.413 0.365-0.603 1.063-1.192 1.138-0.352 0.044-0.658-0.116-0.963-0.253-1.907-0.858-3.069-2.451-3.758-4.5-0.090-0.266-0.083-0.555 0.056-0.8 0.076-0.134 0.181-0.234 0.292-0.332 0.127-0.113 0.25-0.23 0.386-0.33 0.559-0.411 0.644-1.148 0.335-1.752-0.502-0.981-1.121-1.871-1.796-2.717-0.312-0.392-0.733-0.52-1.16-0.298-0.547 0.284-1.053 0.67-1.445 1.174-0.419 0.537-0.816 1.274-0.546 1.986 0.296 0.782 0.586 1.569 0.931 2.326 0.726 1.597 1.586 3.105 2.684 4.442 1.931 2.35 4.369 3.883 7.017 5.071 0.256 0.115 0.531 0.179 0.82 0.273 0.251-0.084 0.517-0.125 0.74-0.255 0.789-0.458 1.335-1.176 1.711-2.038 0.205-0.471 0.080-0.926-0.284-1.273-0.379-0.361-0.788-0.671-1.199-0.987zM16.016 6.111c0.194 0.007 3.318 0.1-0.009-0-0.067-0-0.134-0.004-0.201 0-0.246 0.014-0.463 0.236-0.417 0.515 0.055 0.333 0.379 0.349 0.627 0.377 0.391 0.044 0.787 0.064 1.174 0.139 2.569 0.495 4.627 2.804 4.986 5.595 0.068 0.529 0.093 1.064 0.128 1.597 0.018 0.269 0.143 0.521 0.421 0.517 0.269-0.004 0.41-0.259 0.391-0.529-0.046-0.641-0.083-1.286-0.187-1.917-0.609-3.7-3.45-6.185-6.911-6.294zM29.675 20.403l-0.009 0.037c-0.691 3.019-3.805 6.26-6.664 6.934l-0.032 0.007c-2.312 0.477-4.642 0.715-6.97 0.715-0.685 0-1.371-0.023-2.056-0.064l-3.158 3.55c-0.782 0.88-2.157 0.281-2.157-0.939v-3.371c-2.753-0.85-5.635-3.941-6.297-6.832l-0.008-0.037c-0.854-4.217-0.854-8.493 0-12.71l0.008-0.037c0.692-3.019 3.806-6.259 6.665-6.934l0.033-0.007c4.624-0.954 9.315-0.954 13.94 0l0.032 0.007c2.86 0.674 5.974 3.914 6.664 6.934l0.009 0.037c0.854 4.217 0.854 8.493 0 12.71zM27.176 8.305c-0.461-1.97-2.825-4.419-4.704-4.871-4.294-0.883-8.649-0.883-12.945 0-1.879 0.453-4.242 2.902-4.704 4.871-0.769 3.812-0.769 7.675 0 11.487 0.462 1.97 2.826 4.419 4.704 4.871 0.001 0 0.001 0 0.001 0 0.084 0.018 0.145 0.096 0.145 0.188v5.584c0 0.279 0.315 0.416 0.494 0.215l2.453-2.722c0 0 1.955-2.169 2.306-2.559 0.034-0.038 0.082-0.059 0.131-0.057 2.476 0.074 4.955-0.142 7.415-0.648 1.879-0.452 4.243-2.901 4.704-4.871 0.769-3.812 0.769-7.675 0-11.487zM20.456 13.432c0 0.121 0.006 0.249 0.042 0.362 0.121 0.38 0.649 0.332 0.741-0.044 0.025-0.104 0.028-0.213 0.034-0.26-0.014-0.257-0.022-0.452-0.036-0.647-0.006-0.079-0.023-0.157-0.034-0.235-0.24-1.735-1.061-3.034-2.498-3.857-0.707-0.405-1.475-0.591-2.27-0.639-0.242-0.015-0.404 0.158-0.415 0.398-0.011 0.256 0.117 0.422 0.357 0.458 0.198 0.030 0.398 0.051 0.595 0.087 0.452 0.081 0.898 0.216 1.31 0.435 0.681 0.361 1.263 0.957 1.643 1.667 0.37 0.69 0.53 1.483 0.531 2.277z"></path>
</symbol>
<symbol id="icon-vk" viewBox="0 0 32 32">
<path d="M31.81 23.41c-1.644-1.886-3.388-3.506-5.046-5.382-0.864-0.977-0.565-1.084-0.088-1.781 1.474-2.149 2.984-4.463 4.383-6.592 0.628-0.956 0.422-1.333-0.566-1.333-1.461 0-2.921 0-4.381 0-1.159 0-1.286-0.174-2.069 1.244-1.421 2.57-3.123 5.885-5.444 6.080 0.014-2.347 0.028-4.527 0.042-6.874 0.004-0.63-0.115-1.243-1.282-1.243-1.52 0-3.039 0-4.559 0-1.323 0-2.043 0.619-2.003 0.999 0.079 0.739 1.5-0.181 1.5 1.87 0 1.749 0 3.499 0 5.248-1.718 0.252-3.965-3.685-5.581-6.357-0.447-0.74-0.42-0.966-1.89-0.966-1.316 0-2.631 0-3.946 0-0.706 0-1.177 0.214-0.663 1.183 2.611 4.921 8.518 14.957 13.749 14.957 1.227 0 2.453 0 3.68 0 0.899 0 1.148-0.408 1.148-0.972 0-0.993 0-1.902 0-2.973 1.975 0.189 3.282 1.602 4.687 3.023 0.9 0.91 1.186 0.93 1.931 0.93 1.865 0 3.73-0.003 5.594-0.004 1.049-0.001 1.176-0.63 0.804-1.056z"></path>
</symbol>
<symbol id="icon-wallet" viewBox="0 0 32 32">
<path d="M28.982 5.899l-0.171-0.047-0.014-0.174c-0.166-2.107-1.976-3.757-4.122-3.757h-20.539c-2.281 0-4.136 1.828-4.136 4.075v20.010c0 2.247 1.855 4.075 4.136 4.075h23.728c2.281 0 4.136-1.828 4.136-4.075v-16.184c0-1.817-1.241-3.43-3.018-3.922zM1.543 5.995c0-1.409 1.163-2.555 2.593-2.555h20.539c1.206 0 2.27 0.842 2.531 2.002l0.068 0.304h-23.139c-0.781 0-1.543 0.218-2.203 0.629l-0.39 0.243v-0.623zM30.457 20.835h-6.792c-1.6 0-2.902-1.283-2.902-2.859s1.302-2.859 2.902-2.859h6.792v5.719zM30.457 13.597h-6.793c-2.451 0-4.445 1.965-4.445 4.379s1.994 4.379 4.445 4.379h6.792v3.65c0 1.409-1.163 2.555-2.593 2.555h-23.728c-1.43 0-2.593-1.146-2.593-2.555v-16.184c0-1.409 1.163-2.555 2.593-2.555h23.728c1.43 0 2.593 1.146 2.593 2.555v3.776z"></path>
<path d="M24.045 17.251c0.448 0 0.814 0.36 0.814 0.802s-0.365 0.802-0.814 0.802c-0.449 0-0.814-0.36-0.814-0.802s0.365-0.802 0.814-0.802z"></path>
<path d="M26.647 22.356h5.353v-8.762h-1.543v0.004h-6.793c-2.451 0-4.445 1.965-4.445 4.379s1.994 4.379 4.445 4.379l2.982-0.001zM20.763 17.978c0-1.577 1.302-2.859 2.902-2.859h6.792v5.719h-6.792c-1.6 0-2.902-1.283-2.902-2.859z"></path>
</symbol>
<symbol id="icon-whatsapp" viewBox="0 0 32 32">
<path d="M24.421 21.030c-0.607 0.949-1.568 2.107-2.772 2.396-2.121 0.51-5.379 0.012-9.447-3.754-3.521-3.26-4.453-5.975-4.233-8.129 0.125-1.222 1.151-2.324 2.016-3.050 0.59-0.495 1.492-0.291 1.805 0.41l1.304 2.925c0.171 0.385 0.117 0.831-0.143 1.164l-0.662 0.849c-0.279 0.358-0.316 0.849-0.089 1.241 0.788 1.36 3.872 4.080 5.338 4.669 0.423 0.17 0.908 0.066 1.228-0.257l0.758-0.766c0.297-0.3 0.735-0.415 1.143-0.299l3.099 0.883c0.742 0.212 1.069 1.071 0.655 1.718zM31.992 16.378c-0.271 8.634-7.532 15.493-16.241 15.361-2.468-0.038-4.799-0.63-6.875-1.656l-8.080 1.899c-0.443 0.104-0.845-0.283-0.754-0.726l1.699-8.179c-1.106-2.149-1.734-4.581-1.741-7.158-0.026-8.461 6.698-15.499 15.218-15.901 9.364-0.442 17.065 7.104 16.774 16.36zM28.528 15.87c0-3.319-1.303-6.44-3.669-8.787s-5.512-3.64-8.858-3.64c-3.317 0-6.514 1.313-8.859 3.64-2.366 2.347-3.669 5.468-3.669 8.787 0 1.988 0.458 3.886 1.362 5.641l0.554 1.077-1.043 5.021 4.954-1.164 1.125 0.556c1.74 0.86 3.617 1.296 5.576 1.296 3.346 0 6.492-1.292 8.859-3.64 2.345-2.326 3.669-5.498 3.669-8.787z"></path>
</symbol>
<symbol id="icon-youtube" viewBox="0 0 32 32">
<path d="M25.354 5.333h-18.708c-3.671 0-6.646 2.803-6.646 6.261v8.811c0 3.458 2.975 6.261 6.646 6.261h18.708c3.671 0 6.646-2.803 6.646-6.261v-8.811c0-3.458-2.975-6.261-6.646-6.261zM20.859 16.429l-8.75 3.932c-0.233 0.105-0.502-0.055-0.502-0.298v-8.11c0-0.246 0.276-0.407 0.51-0.295l8.75 4.178c0.26 0.124 0.256 0.476-0.007 0.594z"></path>
</symbol>
<symbol id="icon-zoom" viewBox="0 0 32 32">
<path d="M31.768 30.636l-6.635-6.633c5.061-5.649 4.879-14.364-0.55-19.791-5.553-5.546-14.525-5.626-20.176-0.18s-5.901 14.412-0.561 20.163c5.34 5.751 14.302 6.169 20.154 0.941l6.635 6.633c0.313 0.31 0.818 0.309 1.13-0.003s0.313-0.816 0.003-1.129zM23.451 23.454c-4.994 4.993-13.121 4.993-18.114 0-5.025-4.977-5.063-13.085-0.085-18.109s13.089-5.062 18.115-0.084l0.084 0.084c4.994 4.993 4.994 13.116 0 18.109zM19.997 14.397c0 0.442-0.358 0.8-0.8 0.8h-4.004v4.003c0 0.442-0.358 0.8-0.801 0.8s-0.8-0.358-0.8-0.8v-4.003h-4.001c-0.442 0-0.8-0.358-0.8-0.8s0.359-0.8 0.8-0.8h4.001v-3.999c0-0.442 0.359-0.8 0.8-0.8s0.801 0.358 0.801 0.8v3.999h4.004c0.442 0 0.8 0.359 0.8 0.8z"></path>
</symbol>
</defs>
</svg>
